<svg version="1.1" viewBox="0.0 0.0 240.0 96.0" fill="none" stroke="none" stroke-linecap="square" stroke-miterlimit="10" xmlns:xlink="http://www.w3.org/1999/xlink" xmlns="http://www.w3.org/2000/svg"><clipPath id="g2c0f758c5d1_0_63.0"><path d="m0 0l240.0 0l0 96.0l-240.0 0l0 -96.0z" clip-rule="nonzero"/></clipPath><g clip-path="url(#g2c0f758c5d1_0_63.0)"><path fill="#ffffff" d="m0 0l240.0 0l0 96.0l-240.0 0z" fill-rule="evenodd"/><path fill="#000000" fill-opacity="0.0" d="m-1.0866052 45.64042l242.17323 0l0 37.574806l-242.17323 0z" fill-rule="evenodd"/><path fill="#141414" d="m9.411907 66.11917l3.1875 -0.3125q0.296875 1.609375 1.171875 2.359375q0.875 0.75 2.375 0.75q1.578125 0 2.375 -0.65625q0.8125 -0.671875 0.8125 -1.578125q0 -0.5625 -0.34375 -0.96875q-0.328125 -0.40625 -1.171875 -0.703125q-0.578125 -0.203125 -2.625 -0.71875q-2.640625 -0.6406288 -3.703125 -1.5937538q-1.484375 -1.34375 -1.484375 -3.265625q0 -1.234375 0.703125 -2.3125q0.703125 -1.078125 2.015625 -1.640625q1.328125 -0.578125 3.203125 -0.578125q3.046875 0 4.59375 1.34375q1.546875 1.34375 1.625 3.578125l-3.28125 0.140625q-0.203125 -1.25 -0.90625 -1.796875q-0.6875 -0.546875 -2.0625 -0.546875q-1.4375 0 -2.234375 0.578125q-0.53125 0.375 -0.53125 1.015625q0 0.578125 0.484375 0.984375q0.625 0.515625 3.015625 1.078125q2.390625 0.5625 3.53125 1.171875q1.15625 0.59375 1.796875 1.6406288q0.640625 1.046875 0.640625 2.59375q0 1.390625 -0.78125 2.609375q-0.765625 1.21875 -2.1875 1.8125q-1.40625 0.578125 -3.515625 0.578125q-3.078125 0 -4.734375 -1.421875q-1.640625 -1.421875 -1.96875 -4.140625zm15.939667 5.28125l0 -16.218754l12.03125 0l0 2.75l-8.75 0l0 3.59375l8.140625 0l0 2.7343788l-8.140625 0l0 4.40625l9.0625 0l0 2.734375l-12.34375 0zm15.127167 -16.218754l6.484375 0q1.921875 0 2.859375 0.171875q0.953125 0.15625 1.703125 0.671875q0.75 0.5 1.25 1.34375q0.5 0.84375 0.5 1.890625q0 1.140625 -0.625 2.09375q-0.609375 0.953125 -1.65625 1.421875q1.484375 0.4375 2.28125 1.4843788q0.796875 1.03125 0.796875 2.4375q0 1.109375 -0.515625 2.15625q-0.515625 1.046875 -1.40625 1.671875q-0.890625 0.625 -2.203125 0.765625q-0.8125 0.09375 -3.953125 0.109375l-5.515625 0l0 -16.218754zm3.28125 2.703125l0 3.75l2.140625 0q1.921875 0 2.375 -0.0625q0.84375 -0.09375 1.328125 -0.578125q0.484375 -0.484375 0.484375 -1.265625q0 -0.75 -0.421875 -1.21875q-0.40625 -0.46875 -1.234375 -0.578125q-0.484375 -0.046875 -2.796875 -0.046875l-1.875 0zm0 6.453129l0 4.328125l3.03125 0q1.765625 0 2.234375 -0.09375q0.734375 -0.140625 1.1875 -0.65625q0.46875 -0.515625 0.46875 -1.375q0 -0.734375 -0.359375 -1.234375q-0.34375 -0.515625 -1.015625 -0.734375q-0.671875 -0.234375 -2.90625 -0.234375l-2.640625 0zm27.68974 7.0625l-3.546875 0l-1.421875 -3.6875l-6.484371 0l-1.34375 3.6875l-3.46875 0l6.3125 -16.218754l3.4687462 0l6.484375 16.218754zm-6.015625 -6.421875l-2.2343712 -6.015629l-2.203125 6.015629l4.437496 0zm6.924118 1.140625l3.1875 -0.3125q0.296875 1.609375 1.171875 2.359375q0.875 0.75 2.375 0.75q1.578125 0 2.375 -0.65625q0.8125 -0.671875 0.8125 -1.578125q0 -0.5625 -0.34375 -0.96875q-0.328125 -0.40625 -1.171875 -0.703125q-0.578125 -0.203125 -2.625 -0.71875q-2.640625 -0.6406288 -3.703125 -1.5937538q-1.484375 -1.34375 -1.484375 -3.265625q0 -1.234375 0.703125 -2.3125q0.703125 -1.078125 2.015625 -1.640625q1.328125 -0.578125 3.203125 -0.578125q3.046875 0 4.59375 1.34375q1.546875 1.34375 1.625 3.578125l-3.28125 0.140625q-0.203125 -1.25 -0.90625 -1.796875q-0.6875 -0.546875 -2.0625 -0.546875q-1.4375 0 -2.234375 0.578125q-0.53125 0.375 -0.53125 1.015625q0 0.578125 0.484375 0.984375q0.625 0.515625 3.015625 1.078125q2.390625 0.5625 3.53125 1.171875q1.15625 0.59375 1.796875 1.6406288q0.640625 1.046875 0.640625 2.59375q0 1.390625 -0.78125 2.609375q-0.765625 1.21875 -2.1875 1.8125q-1.40625 0.578125 -3.515625 0.578125q-3.078125 0 -4.734375 -1.421875q-1.640625 -1.421875 -1.96875 -4.140625zm19.595917 5.28125l0 -13.468754l-4.8125 0l0 -2.75l12.890625 0l0 2.75l-4.796875 0l0 13.468754l-3.28125 0zm10.08934 0l0 -16.218754l3.28125 0l0 16.218754l-3.28125 0zm21.013382 0l-3.546875 0l-1.421875 -3.6875l-6.484375 0l-1.34375 3.6875l-3.46875 0l6.3125 -16.218754l3.46875 0l6.484375 16.218754zm-6.015625 -6.421875l-2.234375 -6.015629l-2.203125 6.015629l4.4375 0zm7.799118 6.421875l0 -16.218754l3.1875076 0l6.625 10.828129l0 -10.828129l3.046875 0l0 16.218754l-3.28125 0l-6.546875 -10.578129l0 10.578129l-3.0312576 0zm21.781258 -5.28125l3.1875 -0.3125q0.296875 1.609375 1.171875 2.359375q0.875 0.75 2.375 0.75q1.578125 0 2.375 -0.65625q0.8125 -0.671875 0.8125 -1.578125q0 -0.5625 -0.34375 -0.96875q-0.328125 -0.40625 -1.171875 -0.703125q-0.578125 -0.203125 -2.625 -0.71875q-2.640625 -0.6406288 -3.703125 -1.5937538q-1.484375 -1.34375 -1.484375 -3.265625q0 -1.234375 0.703125 -2.3125q0.703125 -1.078125 2.015625 -1.640625q1.328125 -0.578125 3.203125 -0.578125q3.046875 0 4.59375 1.34375q1.546875 1.34375 1.625 3.578125l-3.28125 0.140625q-0.203125 -1.25 -0.90625 -1.796875q-0.6875 -0.546875 -2.0625 -0.546875q-1.4375 0 -2.234375 0.578125q-0.53125 0.375 -0.53125 1.015625q0 0.578125 0.484375 0.984375q0.625 0.515625 3.015625 1.078125q2.390625 0.5625 3.53125 1.171875q1.15625 0.59375 1.796875 1.6406288q0.640625 1.046875 0.640625 2.59375q0 1.390625 -0.78125 2.609375q-0.765625 1.21875 -2.1875 1.8125q-1.40625 0.578125 -3.515625 0.578125q-3.078125 0 -4.734375 -1.421875q-1.640625 -1.421875 -1.96875 -4.140625zm19.595917 5.28125l0 -13.468754l-4.8125 0l0 -2.75l12.890625 0l0 2.75l-4.796875 0l0 13.468754l-3.28125 0zm10.16745 -16.218754l3.28125 0l0 8.78125q0 2.0937538 0.109375 2.7187538q0.21875 0.984375 1.0 1.59375q0.796875 0.609375 2.171875 0.609375q1.390625 0 2.09375 -0.5625q0.71875 -0.578125 0.859375 -1.40625q0.140625 -0.84375 0.140625 -2.765625l0 -8.968754l3.28125 0l0 8.515625q0 2.9218788 -0.265625 4.125004q-0.265625 1.203125 -0.984375 2.046875q-0.71875 0.828125 -1.921875 1.328125q-1.1875 0.484375 -3.109375 0.484375q-2.3125 0 -3.515625 -0.53125q-1.203125 -0.546875 -1.90625 -1.40625q-0.6875 -0.859375 -0.90625 -1.796875q-0.328125 -1.390625 -0.328125 -4.109379l0 -8.65625zm16.377258 0l5.984375 0q2.015625 0 3.078125 0.3125q1.4375 0.421875 2.453125 1.5q1.015625 1.0625 1.546875 2.625q0.53125 1.546875 0.53125 3.828125q0 2.0000038 -0.5 3.4531288q-0.609375 1.765625 -1.734375 2.859375q-0.859375 0.828125 -2.296875 1.296875q-1.09375 0.34375 -2.90625 0.34375l-6.15625 0l0 -16.218754zm3.265625 2.75l0 10.734379l2.453125 0q1.375 0 1.984375 -0.15625q0.796875 -0.203125 1.3125 -0.671875q0.53125 -0.46875 0.859375 -1.5625q0.328125 -1.09375 0.328125 -2.9687538q0 -1.890625 -0.328125 -2.890625q-0.328125 -1.0 -0.9375 -1.5625q-0.59375 -0.578125 -1.5 -0.765625q-0.6875 -0.15625 -2.6875 -0.15625l-1.484375 0zm13.002228 13.468754l0 -16.218754l3.28125 0l0 16.218754l-3.28125 0zm5.732147 -8.015629q0 -2.46875 0.734375 -4.15625q0.5625 -1.234375 1.515625 -2.21875q0.953125 -0.984375 2.09375 -1.46875q1.515625 -0.640625 3.5 -0.640625q3.578125 0 5.734375 2.234375q2.15625 2.21875 2.15625 6.171875q0 3.9375038 -2.140625 6.156254q-2.125 2.21875 -5.703125 2.21875q-3.625 0 -5.765625 -2.203125q-2.125 -2.21875 -2.125 -6.093754zm3.375 -0.109375q0 2.7656288 1.265625 4.187504q1.28125 1.421875 3.234375 1.421875q1.953125 0 3.203125 -1.40625q1.265625 -1.421875 1.265625 -4.250004q0 -2.78125 -1.21875 -4.15625q-1.21875 -1.375 -3.25 -1.375q-2.015625 0 -3.265625 1.390625q-1.234375 1.390625 -1.234375 4.1875z" fill-rule="nonzero"/><path fill="#000000" fill-opacity="0.0" d="m1.7165354 7.2047243l236.56693 0l0 47.244095l-236.56693 0z" fill-rule="evenodd"/><path fill="#4d5156" d="m16.427534 40.644722l0 -19.656248q-0.03125 0.03125 -0.671875 0.1875q-0.625 0.140625 -1.421875 0.296875q-0.78125 0.140625 -1.40625 0.265625q-0.609375 0.109375 -0.640625 0.109375l0 -2.375q0.5 -0.125 1.15625 -0.328125q0.671875 -0.203125 1.359375 -0.5q0.6875 -0.296875 1.3125 -0.734375q0.640625 -0.4375 1.078125 -1.015625l2.375 0l0 23.749998l-3.140625 0zm13.664154 0.265625q-2.015625 0 -3.328125 -0.90625q-1.296875 -0.90625 -1.9375 -2.484375q-0.625 -1.59375 -0.625 -3.625l0 -10.234373q0 -2.078125 0.609375 -3.640625q0.625 -1.578125 1.921875 -2.453125q1.3125 -0.890625 3.359375 -0.890625q2.062498 0 3.343748 0.890625q1.296875 0.875 1.90625 2.453125q0.625 1.5625 0.625 3.640625l0 10.234373q0 2.0625 -0.640625 3.640625q-0.625 1.578125 -1.921875 2.484375q-1.28125 0.890625 -3.312498 0.890625zm0 -2.578125q1.109375 0 1.6875 -0.640625q0.5781231 -0.65625 0.7968731 -1.65625q0.21875 -1.015625 0.21875 -2.109375l0 -10.296873q0 -1.140625 -0.203125 -2.140625q-0.203125 -1.015625 -0.7812481 -1.625q-0.578125 -0.625 -1.71875 -0.625q-1.140625 0 -1.734375 0.625q-0.578125 0.609375 -0.78125 1.625q-0.203125 1.0 -0.203125 2.140625l0 10.296873q0 1.09375 0.21875 2.109375q0.21875 1.0 0.8125 1.65625q0.609375 0.640625 1.6875 0.640625zm15.162626 2.578125q-2.015625 0 -3.328125 -0.90625q-1.296875 -0.90625 -1.9375 -2.484375q-0.625 -1.59375 -0.625 -3.625l0 -10.234373q0 -2.078125 0.609375 -3.640625q0.625 -1.578125 1.921875 -2.453125q1.3125 -0.890625 3.359375 -0.890625q2.0625 0 3.34375 0.890625q1.296875 0.875 1.90625 2.453125q0.625 1.5625 0.625 3.640625l0 10.234373q0 2.0625 -0.640625 3.640625q-0.625 1.578125 -1.921875 2.484375q-1.28125 0.890625 -3.3125 0.890625zm0 -2.578125q1.109375 0 1.6875 -0.640625q0.578125 -0.65625 0.796875 -1.65625q0.21875 -1.015625 0.21875 -2.109375l0 -10.296873q0 -1.140625 -0.203125 -2.140625q-0.203125 -1.015625 -0.78125 -1.625q-0.578125 -0.625 -1.71875 -0.625q-1.140625 0 -1.734375 0.625q-0.578125 0.609375 -0.78125 1.625q-0.203125 1.0 -0.203125 2.140625l0 10.296873q0 1.09375 0.21875 2.109375q0.21875 1.0 0.8125 1.65625q0.609375 0.640625 1.6875 0.640625zm16.037628 2.3125l6.546879 -23.781248l2.703125 0l-6.515625 23.781248l-2.7343788 0zm-2.8125 -11.140623q-2.4375 0 -3.515625 -1.5q-1.078125 -1.5 -1.078125 -4.015625l0 -1.84375q0 -2.609375 1.046875 -4.015625q1.0625 -1.421875 3.546875 -1.421875q2.5 0 3.546875 1.359375q1.0625 1.34375 1.0625 3.921875l0 2.078125q0 2.5625 -1.078125 4.0q-1.0625 1.4375 -3.53125 1.4375zm0 -2.375q0.765625 0 1.125 -0.421875q0.375 -0.4375 0.5 -1.140625q0.140625 -0.703125 0.140625 -1.5l0 -2.078125q0 -1.203125 -0.3125 -2.046875q-0.3125 -0.859375 -1.453125 -0.859375q-1.140625 0 -1.4375 0.875q-0.28125 0.859375 -0.28125 2.0625l0 2.078125q0 0.796875 0.125 1.484375q0.125 0.6875 0.484375 1.125q0.375 0.421875 1.109375 0.421875zm14.812504 13.656248q-2.4375 0 -3.515625 -1.46875q-1.0625 -1.484375 -1.0625 -4.03125l0 -1.859375q0 -2.578123 1.046875 -3.999998q1.046875 -1.421875 3.53125 -1.421875q2.53125 0 3.5625 1.375q1.046875 1.359375 1.046875 3.937498l0 2.046875q0 2.578125 -1.078125 4.0q-1.0625 1.421875 -3.53125 1.421875zm0 -2.375q0.765625 0 1.140625 -0.421875q0.390625 -0.421875 0.5 -1.125q0.125 -0.703125 0.125 -1.46875l0 -2.109375q0 -1.203125 -0.3125 -2.046873q-0.3125 -0.859375 -1.453125 -0.859375q-1.140625 0 -1.4375 0.875q-0.296875 0.8593731 -0.296875 2.062498l0 2.078125q0 0.796875 0.125 1.484375q0.140625 0.6875 0.5 1.109375q0.375 0.421875 1.109375 0.421875z" fill-rule="nonzero"/><path fill="#4d5156" d="m87.91234 40.644722l0 -24.828125l3.453125 0l0 10.718751l6.375 0l0 -10.718751l3.46875 0l0 24.828125l-3.46875 0l0 -11.624998l-6.375 0l0 11.624998l-3.453125 0zm19.463837 0.25q-1.046875 0 -1.625 -0.546875q-0.578125 -0.5625 -0.8125 -1.390625q-0.234375 -0.828125 -0.234375 -1.6875l0 -14.343748l3.28125 0l0 13.359373q0 0.953125 0.265625 1.5q0.28125 0.53125 1.140625 0.53125q0.5625 0 1.15625 -0.3125q0.59375 -0.328125 1.140625 -0.796875l0 -14.281248l3.28125 0l0 17.718748l-3.28125 0l0 -1.75q-0.84375 0.828125 -1.9375 1.421875q-1.09375 0.578125 -2.375 0.578125zm10.94191 -0.25l0 -17.718748l3.03125 0l0 1.6875q0.890625 -1.015625 1.953125 -1.5q1.078125 -0.5 2.21875 -0.5q0.984375 0 1.765625 0.5q0.78125 0.484375 1.109375 1.75q0.953125 -1.171875 2.0625 -1.703125q1.125 -0.546875 2.359375 -0.546875q0.859375 0 1.5625 0.421875q0.703125 0.40625 1.125 1.3125q0.4375 0.90625 0.4375 2.375l0 13.921873l-3.0 0l0 -13.703123q0 -1.28125 -0.421875 -1.71875q-0.40625 -0.453125 -1.109375 -0.453125q-0.671875 0 -1.421875 0.390625q-0.734375 0.375 -1.34375 1.046875q0 0.125 0 0.25q0 0.109375 0 0.265625l0 13.921873l-3.0 0l0 -13.703123q0 -1.28125 -0.421875 -1.71875q-0.40625 -0.453125 -1.109375 -0.453125q-0.671875 0 -1.40625 0.390625q-0.71875 0.375 -1.359375 1.046875l0 14.437498l-3.03125 0zm23.518188 0.25q-1.046875 0 -1.84375 -0.59375q-0.796875 -0.609375 -1.265625 -1.546875q-0.453125 -0.9375 -0.453125 -1.96875q0 -1.65625 0.546875 -2.78125q0.5625 -1.140625 1.515625 -1.921875q0.96875 -0.7812481 2.234375 -1.3593731q1.28125 -0.59375 2.6875 -1.140625l0 -1.265625q0 -1.0625 -0.125 -1.765625q-0.109375 -0.71875 -0.5 -1.0625q-0.375 -0.359375 -1.140625 -0.359375q-0.6875 0 -1.109375 0.3125q-0.40625 0.296875 -0.59375 0.875q-0.171875 0.5625 -0.171875 1.328125l0 0.890625l-3.25 -0.125q0.0625 -2.9375 1.34375 -4.328125q1.296875 -1.40625 3.984375 -1.40625q2.640625 0 3.734375 1.453125q1.109375 1.4375 1.109375 4.15625l0 8.093748q0 0.828125 0.046875 1.59375q0.046875 0.765625 0.125 1.4375q0.078125 0.65625 0.140625 1.234375l-3.0 0q-0.09375 -0.484375 -0.234375 -1.234375q-0.140625 -0.765625 -0.203125 -1.375q-0.296875 1.046875 -1.171875 1.953125q-0.875 0.90625 -2.40625 0.90625zm1.28125 -2.828125q0.484375 0 0.90625 -0.265625q0.4375 -0.28125 0.78125 -0.625q0.34375 -0.359375 0.453125 -0.578125l0 -5.031248q-0.765625 0.4374981 -1.4375 0.8749981q-0.671875 0.421875 -1.1875 0.890625q-0.5 0.46875 -0.796875 1.078125q-0.28125 0.59375 -0.28125 1.359375q0 1.078125 0.390625 1.6875q0.40625 0.609375 1.171875 0.609375zm8.585312 2.578125l0 -17.718748l3.28125 0l0 1.75q0.890625 -0.828125 1.953125 -1.40625q1.078125 -0.59375 2.375 -0.59375q1.0625 0 1.625 0.5625q0.578125 0.546875 0.796875 1.375q0.234375 0.828125 0.234375 1.6875l0 14.343748l-3.28125 0l0 -13.390623q0 -0.953125 -0.28125 -1.46875q-0.265625 -0.53125 -1.125 -0.53125q-0.546875 0 -1.15625 0.328125q-0.59375 0.3125 -1.140625 0.78125l0 14.281248l-3.28125 0zm20.93155 0l0 -24.828125l3.40625 0l0 24.828125l-3.40625 0zm11.259018 0.25q-2.234375 0 -3.34375 -1.640625q-1.109375 -1.640625 -1.109375 -5.5625l0 -3.437498q0 -2.03125 0.34375 -3.75q0.34375 -1.734375 1.265625 -2.78125q0.9375 -1.046875 2.75 -1.046875q0.890625 0 1.625 0.40625q0.734375 0.390625 1.3125 0.984375l0 -8.250001l3.28125 0l0 24.828125l-3.28125 0l0 -1.140625q-0.578125 0.625 -1.265625 1.015625q-0.6875 0.375 -1.578125 0.375zm0.828125 -2.578125q0.453125 0 0.96875 -0.171875q0.53125 -0.171875 1.046875 -0.5l0 -11.624998q-0.421875 -0.296875 -0.953125 -0.53125q-0.515625 -0.234375 -1.125 -0.234375q-1.140625 0 -1.546875 1.09375q-0.390625 1.078125 -0.390625 2.609375l0 4.999998q0 1.234375 0.140625 2.234375q0.140625 0.984375 0.5625 1.5625q0.4375 0.5625 1.296875 0.5625zm13.518845 2.578125q-2.09375 0 -3.234375 -0.8125q-1.125 -0.8125 -1.578125 -2.390625q-0.4375 -1.578125 -0.4375 -3.890625l0 -4.046873q0 -2.359375 0.453125 -3.921875q0.46875 -1.5625 1.609375 -2.359375q1.15625 -0.796875 3.1875 -0.796875q2.234375 0 3.28125 0.921875q1.0625 0.921875 1.40625 2.65625q0.34375 1.734375 0.34375 4.15625l0 1.4375l-7.0 0l0 3.546873q0 1.078125 0.203125 1.75q0.203125 0.671875 0.640625 1.0q0.453125 0.328125 1.15625 0.328125q0.734375 0 1.109375 -0.34375q0.390625 -0.359375 0.53125 -1.015625q0.140625 -0.671875 0.140625 -1.5625l0 -1.0625l3.1875 0l0 0.671875q0 2.65625 -1.140625 4.203125q-1.140625 1.53125 -3.859375 1.53125zm-1.96875 -10.828123l3.78125 0l0 -1.59375q0 -1.109375 -0.125 -1.859375q-0.125 -0.75 -0.515625 -1.125q-0.375 -0.390625 -1.203125 -0.390625q-0.796875 0 -1.21875 0.375q-0.40625 0.359375 -0.5625 1.234375q-0.15625 0.875 -0.15625 2.40625l0 0.953125zm12.640686 10.828123q-1.046875 0 -1.84375 -0.59375q-0.796875 -0.609375 -1.265625 -1.546875q-0.453125 -0.9375 -0.453125 -1.96875q0 -1.65625 0.546875 -2.78125q0.5625 -1.140625 1.515625 -1.921875q0.96875 -0.7812481 2.234375 -1.3593731q1.28125 -0.59375 2.6875 -1.140625l0 -1.265625q0 -1.0625 -0.125 -1.765625q-0.109375 -0.71875 -0.5 -1.0625q-0.375 -0.359375 -1.140625 -0.359375q-0.6875 0 -1.109375 0.3125q-0.40625 0.296875 -0.59375 0.875q-0.171875 0.5625 -0.171875 1.328125l0 0.890625l-3.25 -0.125q0.0625 -2.9375 1.34375 -4.328125q1.296875 -1.40625 3.984375 -1.40625q2.640625 0 3.734375 1.453125q1.109375 1.4375 1.109375 4.15625l0 8.093748q0 0.828125 0.046875 1.59375q0.046875 0.765625 0.125 1.4375q0.078125 0.65625 0.140625 1.234375l-3.0 0q-0.09375 -0.484375 -0.234375 -1.234375q-0.140625 -0.765625 -0.203125 -1.375q-0.296875 1.046875 -1.171875 1.953125q-0.875 0.90625 -2.40625 0.90625zm1.28125 -2.828125q0.484375 0 0.90625 -0.265625q0.4375 -0.28125 0.78125 -0.625q0.34375 -0.359375 0.453125 -0.578125l0 -5.031248q-0.765625 0.4374981 -1.4375 0.8749981q-0.671875 0.421875 -1.1875 0.890625q-0.5 0.46875 -0.796875 1.078125q-0.28125 0.59375 -0.28125 1.359375q0 1.078125 0.390625 1.6875q0.40625 0.609375 1.171875 0.609375zm12.694687 2.828125q-2.171875 0 -3.5 -1.359375q-1.3125 -1.375 -1.5 -3.609375l2.734375 -0.828125q0.234375 1.6875 0.8125 2.53125q0.59375 0.84375 1.734375 0.84375q0.875 0 1.328125 -0.5q0.46875 -0.515625 0.46875 -1.375q0 -0.765625 -0.34375 -1.375q-0.328125 -0.625 -1.09375 -1.265625l-3.03125 -2.593748q-0.921875 -0.796875 -1.546875 -1.78125q-0.625 -0.984375 -0.625 -2.546875q0 -1.40625 0.5625 -2.375q0.5625 -0.96875 1.59375 -1.46875q1.03125 -0.515625 2.40625 -0.515625q2.203125 0 3.359375 1.375q1.171875 1.359375 1.359375 3.28125l-2.328125 0.828125q-0.125 -0.90625 -0.375 -1.59375q-0.234375 -0.703125 -0.703125 -1.078125q-0.453125 -0.390625 -1.1875 -0.390625q-0.796875 0 -1.28125 0.546875q-0.46875 0.53125 -0.46875 1.265625q0 0.453125 0.1875 0.90625q0.203125 0.4375 0.703125 0.875l3.125 2.875q0.640625 0.5937481 1.203125 1.2656231q0.578125 0.671875 0.9375 1.53125q0.375 0.859375 0.375 1.984375q0 1.5 -0.625 2.515625q-0.609375 1.015625 -1.71875 1.53125q-1.09375 0.5 -2.5625 0.5z" fill-rule="nonzero"/><path fill="#000000" fill-opacity="0.0" d="m10.661417 47.92126l218.67715 0.15747833" fill-rule="evenodd"/><path stroke="#4d5156" stroke-width="1.0" stroke-linejoin="round" stroke-linecap="butt" d="m10.661417 47.92126l218.67715 0.15747833" fill-rule="evenodd"/></g></svg>