<svg version="1.1" viewBox="0.0 0.0 480.0 96.0" fill="none" stroke="none" stroke-linecap="square" stroke-miterlimit="10" xmlns:xlink="http://www.w3.org/1999/xlink" xmlns="http://www.w3.org/2000/svg"><clipPath id="g2c0f758c5d1_0_63.0"><path d="m0 0l480.0 0l0 96.0l-480.0 0l0 -96.0z" clip-rule="nonzero"/></clipPath><g clip-path="url(#g2c0f758c5d1_0_63.0)"><path fill="#ffffff" d="m0 0l480.0 0l0 96.0l-480.0 0z" fill-rule="evenodd"/><path fill="#000000" fill-opacity="0.0" d="m139.72797 30.849558l196.44095 0l0 26.236223l-196.44095 0z" fill-rule="evenodd"/><path fill="#202122" d="m185.94237 45.165184l1.5 -0.140625q0.125 0.75 0.53125 1.109375q0.421875 0.34375 1.125 0.34375q0.75 0 1.125 -0.3125q0.375 -0.3125 0.375 -0.734375q0 -0.265625 -0.15625 -0.453125q-0.15625 -0.1875 -0.5625 -0.328125q-0.265625 -0.09375 -1.234375 -0.34375q-1.234375 -0.296875 -1.734375 -0.75q-0.703125 -0.625 -0.703125 -1.53125q0 -0.59375 0.328125 -1.09375q0.34375 -0.515625 0.953125 -0.78125q0.625 -0.265625 1.5 -0.265625q1.4375 0 2.15625 0.640625q0.734375 0.625 0.78125 1.671875l-1.546875 0.078125q-0.09375 -0.59375 -0.421875 -0.84375q-0.328125 -0.265625 -0.984375 -0.265625q-0.671875 0 -1.046875 0.28125q-0.234375 0.171875 -0.234375 0.46875q0 0.265625 0.21875 0.46875q0.296875 0.234375 1.421875 0.5q1.125 0.265625 1.65625 0.5625q0.546875 0.28125 0.84375 0.78125q0.3125 0.484375 0.3125 1.203125q0 0.65625 -0.375 1.234375q-0.359375 0.5625 -1.03125 0.84375q-0.65625 0.28125 -1.65625 0.28125q-1.4375 0 -2.21875 -0.671875q-0.78125 -0.671875 -0.921875 -1.953125zm7.4982605 2.484375l0 -7.625l5.65625 0l0 1.28125l-4.125 0l0 1.703125l3.828125 0l0 1.28125l-3.828125 0l0 2.078125l4.265625 0l0 1.28125l-5.796875 0zm7.1076355 -7.625l3.046875 0q0.90625 0 1.34375 0.078125q0.453125 0.0625 0.796875 0.3125q0.359375 0.234375 0.59375 0.640625q0.234375 0.390625 0.234375 0.890625q0 0.53125 -0.296875 0.984375q-0.28125 0.4375 -0.78125 0.671875q0.703125 0.203125 1.078125 0.6875q0.375 0.484375 0.375 1.140625q0 0.53125 -0.25 1.03125q-0.234375 0.484375 -0.65625 0.78125q-0.421875 0.28125 -1.03125 0.359375q-0.390625 0.03125 -1.859375 0.046875l-2.59375 0l0 -7.625zm1.546875 1.265625l0 1.765625l1.0 0q0.90625 0 1.125 -0.03125q0.390625 -0.046875 0.609375 -0.265625q0.234375 -0.234375 0.234375 -0.59375q0 -0.359375 -0.203125 -0.578125q-0.1875 -0.21875 -0.578125 -0.265625q-0.21875 -0.03125 -1.3125 -0.03125l-0.875 0zm0 3.03125l0 2.046875l1.421875 0q0.828125 0 1.046875 -0.046875q0.34375 -0.0625 0.5625 -0.296875q0.21875 -0.25 0.21875 -0.65625q0 -0.34375 -0.171875 -0.578125q-0.15625 -0.25 -0.484375 -0.359375q-0.3125 -0.109375 -1.359375 -0.109375l-1.234375 0zm13.023727 3.328125l-1.671875 0l-0.671875 -1.734375l-3.046875 0l-0.625 1.734375l-1.640625 0l2.96875 -7.625l1.625 0l3.0625 7.625zm-2.84375 -3.015625l-1.046875 -2.828125l-1.03125 2.828125l2.078125 0zm3.2737274 0.53125l1.5 -0.140625q0.125 0.75 0.53125 1.109375q0.421875 0.34375 1.125 0.34375q0.75 0 1.125 -0.3125q0.375 -0.3125 0.375 -0.734375q0 -0.265625 -0.15625 -0.453125q-0.15625 -0.1875 -0.5625 -0.328125q-0.265625 -0.09375 -1.234375 -0.34375q-1.234375 -0.296875 -1.734375 -0.75q-0.703125 -0.625 -0.703125 -1.53125q0 -0.59375 0.328125 -1.09375q0.34375 -0.515625 0.953125 -0.78125q0.625 -0.265625 1.5 -0.265625q1.4375 0 2.15625 0.640625q0.734375 0.625 0.78125 1.671875l-1.546875 0.078125q-0.09375 -0.59375 -0.421875 -0.84375q-0.328125 -0.265625 -0.984375 -0.265625q-0.671875 0 -1.046875 0.28125q-0.234375 0.171875 -0.234375 0.46875q0 0.265625 0.21875 0.46875q0.296875 0.234375 1.421875 0.5q1.125 0.265625 1.65625 0.5625q0.546875 0.28125 0.84375 0.78125q0.3125 0.484375 0.3125 1.203125q0 0.65625 -0.375 1.234375q-0.359375 0.5625 -1.03125 0.84375q-0.65625 0.28125 -1.65625 0.28125q-1.4375 0 -2.21875 -0.671875q-0.78125 -0.671875 -0.921875 -1.953125zm9.2170105 2.484375l0 -6.34375l-2.265625 0l0 -1.28125l6.0625 0l0 1.28125l-2.265625 0l0 6.34375l-1.53125 0zm4.743637 0l0 -7.625l1.53125 0l0 7.625l-1.53125 0zm9.882523 0l-1.671875 0l-0.671875 -1.734375l-3.046875 0l-0.625 1.734375l-1.640625 0l2.96875 -7.625l1.625 0l3.0625 7.625zm-2.84375 -3.015625l-1.046875 -2.828125l-1.03125 2.828125l2.078125 0zm3.6799774 3.015625l0 -7.625l1.5 0l3.109375 5.09375l0 -5.09375l1.4375 0l0 7.625l-1.546875 0l-3.078125 -4.96875l0 4.96875l-1.421875 0zm10.25 -2.484375l1.5 -0.140625q0.125 0.75 0.53125 1.109375q0.421875 0.34375 1.125 0.34375q0.75 0 1.125 -0.3125q0.375 -0.3125 0.375 -0.734375q0 -0.265625 -0.15625 -0.453125q-0.15625 -0.1875 -0.5625 -0.328125q-0.265625 -0.09375 -1.234375 -0.34375q-1.234375 -0.296875 -1.734375 -0.75q-0.703125 -0.625 -0.703125 -1.53125q0 -0.59375 0.328125 -1.09375q0.34375 -0.515625 0.953125 -0.78125q0.625 -0.265625 1.5 -0.265625q1.4375 0 2.15625 0.640625q0.734375 0.625 0.78125 1.671875l-1.546875 0.078125q-0.09375 -0.59375 -0.421875 -0.84375q-0.328125 -0.265625 -0.984375 -0.265625q-0.671875 0 -1.046875 0.28125q-0.234375 0.171875 -0.234375 0.46875q0 0.265625 0.21875 0.46875q0.296875 0.234375 1.421875 0.5q1.125 0.265625 1.65625 0.5625q0.546875 0.28125 0.84375 0.78125q0.3125 0.484375 0.3125 1.203125q0 0.65625 -0.375 1.234375q-0.359375 0.5625 -1.03125 0.84375q-0.65625 0.28125 -1.65625 0.28125q-1.4375 0 -2.21875 -0.671875q-0.78125 -0.671875 -0.921875 -1.953125zm9.2170105 2.484375l0 -6.34375l-2.265625 0l0 -1.28125l6.0625 0l0 1.28125l-2.265625 0l0 6.34375l-1.53125 0zm4.774872 -7.625l1.546875 0l0 4.125q0 0.984375 0.046875 1.28125q0.109375 0.46875 0.46875 0.75q0.375 0.28125 1.015625 0.28125q0.65625 0 0.984375 -0.265625q0.34375 -0.265625 0.40625 -0.65625q0.078125 -0.390625 0.078125 -1.296875l0 -4.21875l1.53125 0l0 4.0q0 1.375 -0.125 1.953125q-0.125 0.5625 -0.46875 0.953125q-0.328125 0.390625 -0.890625 0.625q-0.5625 0.21875 -1.46875 0.21875q-1.09375 0 -1.65625 -0.25q-0.5625 -0.25 -0.890625 -0.65625q-0.328125 -0.40625 -0.421875 -0.84375q-0.15625 -0.65625 -0.15625 -1.9375l0 -4.0625zm7.6956177 0l2.8125 0q0.953125 0 1.453125 0.140625q0.671875 0.203125 1.15625 0.703125q0.484375 0.5 0.734375 1.234375q0.25 0.734375 0.25 1.8125q0 0.9375 -0.234375 1.609375q-0.296875 0.84375 -0.828125 1.359375q-0.390625 0.390625 -1.078125 0.609375q-0.515625 0.15625 -1.359375 0.15625l-2.90625 0l0 -7.625zm1.546875 1.28125l0 5.0625l1.140625 0q0.65625 0 0.9375 -0.078125q0.375 -0.09375 0.625 -0.3125q0.25 -0.234375 0.40625 -0.734375q0.15625 -0.515625 0.15625 -1.40625q0 -0.875 -0.15625 -1.34375q-0.15625 -0.484375 -0.4375 -0.75q-0.28125 -0.265625 -0.71875 -0.359375q-0.328125 -0.078125 -1.265625 -0.078125l-0.6875 0zm6.117462 6.34375l0 -7.625l1.53125 0l0 7.625l-1.53125 0zm2.6950378 -3.765625q0 -1.171875 0.34375 -1.953125q0.265625 -0.59375 0.703125 -1.046875q0.453125 -0.46875 1.0 -0.6875q0.703125 -0.3125 1.640625 -0.3125q1.6875 0 2.6875 1.046875q1.015625 1.046875 1.015625 2.921875q0 1.84375 -1.0 2.890625q-1.0 1.03125 -2.6875 1.03125q-1.703125 0 -2.703125 -1.03125q-1.0 -1.046875 -1.0 -2.859375zm1.578125 -0.046875q0 1.28125 0.59375 1.953125q0.609375 0.671875 1.53125 0.671875q0.921875 0 1.5 -0.65625q0.59375 -0.671875 0.59375 -2.0q0 -1.3125 -0.578125 -1.953125q-0.5625 -0.640625 -1.515625 -0.640625q-0.953125 0 -1.546875 0.65625q-0.578125 0.640625 -0.578125 1.96875z" fill-rule="nonzero"/><path fill="#000000" fill-opacity="0.0" d="m146.53111 11.200573l182.83464 0l0 34.330708l-182.83464 0z" fill-rule="evenodd"/><path fill="#4d5156" d="m189.1137 34.40057l0 -8.937498q-0.015625 0.015625 -0.3125 0.09375q-0.28125 0.0625 -0.640625 0.125q-0.359375 0.0625 -0.640625 0.125q-0.28125 0.046875 -0.28125 0.046875l0 -1.078125q0.21875 -0.046875 0.515625 -0.140625q0.296875 -0.09375 0.609375 -0.21875q0.328125 -0.140625 0.609375 -0.34375q0.28125 -0.203125 0.484375 -0.46875l1.078125 0l0 10.796873l-1.421875 0zm6.2098846 0.125q-0.921875 0 -1.515625 -0.40625q-0.59375 -0.421875 -0.890625 -1.140625q-0.28125 -0.71875 -0.28125 -1.6406231l0 -4.65625q0 -0.9375 0.28125 -1.65625q0.28125 -0.71875 0.875 -1.109375q0.59375 -0.40625 1.53125 -0.40625q0.9375 0 1.515625 0.40625q0.59375 0.390625 0.875 1.109375q0.28125 0.71875 0.28125 1.65625l0 4.65625q0 0.9374981 -0.296875 1.6562481q-0.28125 0.71875 -0.875 1.125q-0.578125 0.40625 -1.5 0.40625zm0 -1.171875q0.5 0 0.765625 -0.296875q0.265625 -0.296875 0.359375 -0.75q0.09375 -0.4687481 0.09375 -0.9531231l0 -4.6875q0 -0.515625 -0.09375 -0.96875q-0.09375 -0.46875 -0.359375 -0.75q-0.25 -0.28125 -0.765625 -0.28125q-0.515625 0 -0.78125 0.28125q-0.265625 0.28125 -0.359375 0.75q-0.09375 0.453125 -0.09375 0.96875l0 4.6875q0 0.484375 0.09375 0.9531231q0.09375 0.453125 0.359375 0.75q0.28125 0.296875 0.78125 0.296875zm6.8906097 1.171875q-0.921875 0 -1.515625 -0.40625q-0.59375 -0.421875 -0.890625 -1.140625q-0.28125 -0.71875 -0.28125 -1.6406231l0 -4.65625q0 -0.9375 0.28125 -1.65625q0.28125 -0.71875 0.875 -1.109375q0.59375 -0.40625 1.53125 -0.40625q0.9375 0 1.515625 0.40625q0.59375 0.390625 0.875 1.109375q0.28125 0.71875 0.28125 1.65625l0 4.65625q0 0.9374981 -0.296875 1.6562481q-0.28125 0.71875 -0.875 1.125q-0.578125 0.40625 -1.5 0.40625zm0 -1.171875q0.5 0 0.765625 -0.296875q0.265625 -0.296875 0.359375 -0.75q0.09375 -0.4687481 0.09375 -0.9531231l0 -4.6875q0 -0.515625 -0.09375 -0.96875q-0.09375 -0.46875 -0.359375 -0.75q-0.25 -0.28125 -0.765625 -0.28125q-0.515625 0 -0.78125 0.28125q-0.265625 0.28125 -0.359375 0.75q-0.09375 0.453125 -0.09375 0.96875l0 4.6875q0 0.484375 0.09375 0.9531231q0.09375 0.453125 0.359375 0.75q0.28125 0.296875 0.78125 0.296875zm7.2968597 1.046875l2.96875 -10.812498l1.21875 0l-2.953125 10.812498l-1.234375 0zm-1.28125 -5.062498q-1.109375 0 -1.609375 -0.671875q-0.484375 -0.6875 -0.484375 -1.84375l0 -0.828125q0 -1.1875 0.46875 -1.828125q0.484375 -0.640625 1.625 -0.640625q1.125 0 1.609375 0.609375q0.484375 0.609375 0.484375 1.78125l0 0.953125q0 1.15625 -0.5 1.8125q-0.484375 0.65625 -1.59375 0.65625zm0 -1.078125q0.34375 0 0.5 -0.1875q0.171875 -0.203125 0.234375 -0.515625q0.0625 -0.328125 0.0625 -0.6875l0 -0.953125q0 -0.53125 -0.140625 -0.921875q-0.140625 -0.390625 -0.65625 -0.390625q-0.53125 0 -0.671875 0.390625q-0.125 0.390625 -0.125 0.9375l0 0.953125q0 0.359375 0.0625 0.671875q0.0625 0.3125 0.21875 0.515625q0.171875 0.1875 0.515625 0.1875zm6.71875 6.203123q-1.09375 0 -1.59375 -0.671875q-0.484375 -0.671875 -0.484375 -1.8281231l0 -0.84375q0 -1.171875 0.46875 -1.8125q0.484375 -0.65625 1.609375 -0.65625q1.15625 0 1.625 0.625q0.46875 0.625 0.46875 1.796875l0 0.921875q0 1.1874981 -0.484375 1.8281231q-0.484375 0.640625 -1.609375 0.640625zm0 -1.078125q0.359375 0 0.53125 -0.1875q0.171875 -0.203125 0.21875 -0.515625q0.0625 -0.328125 0.0625 -0.671875l0 -0.9531231q0 -0.546875 -0.140625 -0.9375q-0.140625 -0.390625 -0.671875 -0.390625q-0.515625 0 -0.65625 0.40625q-0.125 0.390625 -0.125 0.9375l0 0.9374981q0 0.359375 0.0625 0.671875q0.0625 0.3125 0.21875 0.515625q0.171875 0.1875 0.5 0.1875z" fill-rule="nonzero"/><path fill="#4d5156" d="m221.80516 34.40057l0 -11.874998l1.65625 0l0 5.140625l3.046875 0l0 -5.140625l1.65625 0l0 11.874998l-1.65625 0l0 -5.562498l-3.046875 0l0 5.562498l-1.65625 0zm9.315933 0.125q-0.5 0 -0.78125 -0.265625q-0.28125 -0.265625 -0.390625 -0.65625q-0.109375 -0.40625 -0.109375 -0.8125l0 -6.859373l1.5625 0l0 6.390623q0 0.453125 0.125 0.71875q0.140625 0.25 0.546875 0.25q0.265625 0 0.546875 -0.15625q0.296875 -0.15625 0.5625 -0.375l0 -6.828123l1.5625 0l0 8.468748l-1.5625 0l0 -0.828125q-0.40625 0.390625 -0.9375 0.671875q-0.515625 0.28125 -1.125 0.28125zm5.2300262 -0.125l0 -8.468748l1.453125 0l0 0.796875q0.421875 -0.484375 0.921875 -0.71875q0.515625 -0.234375 1.0625 -0.234375q0.46875 0 0.84375 0.234375q0.375 0.234375 0.53125 0.84375q0.453125 -0.5625 0.984375 -0.8125q0.546875 -0.265625 1.125 -0.265625q0.421875 0 0.75 0.203125q0.34375 0.203125 0.546875 0.640625q0.203125 0.421875 0.203125 1.125l0 6.656248l-1.4375 0l0 -6.546873q0 -0.625 -0.203125 -0.828125q-0.1875 -0.21875 -0.53125 -0.21875q-0.3125 0 -0.671875 0.1875q-0.34375 0.1875 -0.640625 0.5q0 0.0625 0 0.125q0 0.046875 0 0.125l0 6.656248l-1.4375 0l0 -6.546873q0 -0.625 -0.203125 -0.828125q-0.1875 -0.21875 -0.53125 -0.21875q-0.328125 0 -0.671875 0.1875q-0.34375 0.1875 -0.640625 0.5l0 6.906248l-1.453125 0zm11.231918 0.125q-0.5 0 -0.875 -0.28125q-0.375 -0.296875 -0.609375 -0.734375q-0.21875 -0.453125 -0.21875 -0.953125q0 -0.7968731 0.265625 -1.3281231q0.265625 -0.546875 0.71875 -0.921875q0.46875 -0.375 1.078125 -0.65625q0.609375 -0.28125 1.28125 -0.546875l0 -0.59375q0 -0.515625 -0.0625 -0.84375q-0.046875 -0.34375 -0.234375 -0.515625q-0.1875 -0.171875 -0.546875 -0.171875q-0.328125 0 -0.53125 0.15625q-0.1875 0.140625 -0.28125 0.421875q-0.078125 0.265625 -0.078125 0.625l0 0.421875l-1.5625 -0.046875q0.03125 -1.40625 0.640625 -2.078125q0.625 -0.671875 1.90625 -0.671875q1.265625 0 1.796875 0.703125q0.53125 0.6875 0.53125 1.984375l0 3.874998q0 0.390625 0.015625 0.765625q0.015625 0.359375 0.046875 0.671875q0.046875 0.3125 0.078125 0.59375l-1.4375 0q-0.046875 -0.234375 -0.109375 -0.59375q-0.0625 -0.359375 -0.09375 -0.65625q-0.140625 0.5 -0.5625 0.9375q-0.421875 0.4375 -1.15625 0.4375zm0.625 -1.359375q0.234375 0 0.4375 -0.125q0.203125 -0.140625 0.359375 -0.296875q0.171875 -0.171875 0.21875 -0.28125l0 -2.406248q-0.359375 0.203125 -0.6875 0.421875q-0.3125 0.203125 -0.5625 0.4375q-0.234375 0.21875 -0.375 0.5q-0.140625 0.28125 -0.140625 0.6562481q0 0.515625 0.1875 0.8125q0.1875 0.28125 0.5625 0.28125zm4.1038055 1.234375l0 -8.468748l1.5625 0l0 0.828125q0.421875 -0.390625 0.9375 -0.671875q0.515625 -0.28125 1.125 -0.28125q0.51560974 0 0.78123474 0.265625q0.28125 0.265625 0.390625 0.671875q0.109375 0.390625 0.109375 0.796875l0 6.859373l-1.5624847 0l0 -6.406248q0 -0.453125 -0.140625 -0.703125q-0.125 -0.25 -0.546875 -0.25q-0.265625 0 -0.546875 0.15625q-0.28125 0.15625 -0.546875 0.375l0 6.828123l-1.5625 0zm10.00914 0l0 -11.874998l1.625 0l0 11.874998l-1.625 0zm5.3691406 0.125q-1.0625 0 -1.59375 -0.78125q-0.53125 -0.796875 -0.53125 -2.671873l0 -1.640625q0 -0.96875 0.15625 -1.796875q0.171875 -0.828125 0.609375 -1.328125q0.453125 -0.5 1.328125 -0.5q0.421875 0 0.765625 0.203125q0.359375 0.1875 0.640625 0.46875l0 -3.953125l1.5625 0l0 11.874998l-1.5625 0l0 -0.546875q-0.28125 0.296875 -0.609375 0.484375q-0.328125 0.1875 -0.765625 0.1875zm0.40625 -1.234375q0.21875 0 0.46875 -0.078125q0.25 -0.09375 0.5 -0.25l0 -5.546873q-0.21875 -0.15625 -0.46875 -0.265625q-0.234375 -0.109375 -0.53125 -0.109375q-0.546875 0 -0.734375 0.53125q-0.1875 0.515625 -0.1875 1.25l0 2.390625q0 0.578125 0.0625 1.0624981q0.0625 0.46875 0.265625 0.75q0.203125 0.265625 0.625 0.265625zm6.4624634 1.234375q-1.0 0 -1.546875 -0.390625q-0.53125 -0.390625 -0.75 -1.140625q-0.21875 -0.765625 -0.21875 -1.8593731l0 -1.9375q0 -1.125 0.21875 -1.875q0.21875 -0.75 0.765625 -1.125q0.5625 -0.390625 1.53125 -0.390625q1.0625 0 1.5625 0.453125q0.515625 0.4375 0.671875 1.265625q0.171875 0.828125 0.171875 1.984375l0 0.6875l-3.34375 0l0 1.703125q0 0.4999981 0.09375 0.8281231q0.09375 0.328125 0.296875 0.484375q0.21875 0.140625 0.5625 0.140625q0.34375 0 0.53125 -0.15625q0.1875 -0.171875 0.25 -0.484375q0.0625 -0.328125 0.0625 -0.7499981l0 -0.515625l1.53125 0l0 0.328125q0 1.2812481 -0.546875 2.015623q-0.546875 0.734375 -1.84375 0.734375zm-0.9375 -5.187498l1.796875 0l0 -0.75q0 -0.53125 -0.0625 -0.890625q-0.046875 -0.359375 -0.234375 -0.546875q-0.1875 -0.1875 -0.578125 -0.1875q-0.390625 0 -0.59375 0.1875q-0.1875 0.171875 -0.265625 0.59375q-0.0625 0.40625 -0.0625 1.140625l0 0.453125zm6.0296936 5.187498q-0.5 0 -0.875 -0.28125q-0.375 -0.296875 -0.609375 -0.734375q-0.21875 -0.453125 -0.21875 -0.953125q0 -0.7968731 0.265625 -1.3281231q0.265625 -0.546875 0.71875 -0.921875q0.46875 -0.375 1.078125 -0.65625q0.609375 -0.28125 1.28125 -0.546875l0 -0.59375q0 -0.515625 -0.0625 -0.84375q-0.046875 -0.34375 -0.234375 -0.515625q-0.1875 -0.171875 -0.546875 -0.171875q-0.328125 0 -0.53125 0.15625q-0.1875 0.140625 -0.28125 0.421875q-0.078125 0.265625 -0.078125 0.625l0 0.421875l-1.5625 -0.046875q0.03125 -1.40625 0.640625 -2.078125q0.625 -0.671875 1.90625 -0.671875q1.265625 0 1.796875 0.703125q0.53125 0.6875 0.53125 1.984375l0 3.874998q0 0.390625 0.015625 0.765625q0.015625 0.359375 0.046875 0.671875q0.046875 0.3125 0.078125 0.59375l-1.4375 0q-0.046875 -0.234375 -0.109375 -0.59375q-0.0625 -0.359375 -0.09375 -0.65625q-0.140625 0.5 -0.5625 0.9375q-0.421875 0.4375 -1.15625 0.4375zm0.625 -1.359375q0.234375 0 0.4375 -0.125q0.203125 -0.140625 0.359375 -0.296875q0.171875 -0.171875 0.21875 -0.28125l0 -2.406248q-0.359375 0.203125 -0.6875 0.421875q-0.3125 0.203125 -0.5625 0.4375q-0.234375 0.21875 -0.375 0.5q-0.140625 0.28125 -0.140625 0.6562481q0 0.515625 0.1875 0.8125q0.1875 0.28125 0.5625 0.28125zm6.0569153 1.359375q-1.03125 0 -1.671875 -0.65625q-0.625 -0.65625 -0.71875 -1.71875l1.3125 -0.4062481q0.109375 0.8124981 0.390625 1.2187481q0.28125 0.390625 0.828125 0.390625q0.421875 0 0.640625 -0.234375q0.21875 -0.25 0.21875 -0.65625q0 -0.359375 -0.171875 -0.6562481q-0.15625 -0.296875 -0.515625 -0.59375l-1.453125 -1.25q-0.4375 -0.390625 -0.734375 -0.859375q-0.296875 -0.46875 -0.296875 -1.203125q0 -0.6875 0.265625 -1.140625q0.265625 -0.46875 0.75 -0.703125q0.5 -0.25 1.15625 -0.25q1.0625 0 1.609375 0.65625q0.5625 0.65625 0.65625 1.578125l-1.109375 0.390625q-0.0625 -0.4375 -0.1875 -0.765625q-0.109375 -0.328125 -0.328125 -0.515625q-0.21875 -0.1875 -0.578125 -0.1875q-0.375 0 -0.609375 0.265625q-0.21875 0.25 -0.21875 0.609375q0 0.21875 0.09375 0.4375q0.09375 0.203125 0.328125 0.40625l1.5 1.375q0.296875 0.28125 0.5625 0.609375q0.28125 0.3125 0.453125 0.734375q0.171875 0.40625 0.171875 0.9531231q0 0.71875 -0.296875 1.203125q-0.28125 0.484375 -0.8125 0.734375q-0.53125 0.234375 -1.234375 0.234375z" fill-rule="nonzero"/><path fill="#000000" fill-opacity="0.0" d="m186.98688 38.374016l101.921265 0.12598419" fill-rule="evenodd"/><path stroke="#44546a" stroke-width="1.0" stroke-linejoin="round" stroke-linecap="butt" d="m186.98688 38.374016l101.921265 0.12598419" fill-rule="evenodd"/></g></svg>