<svg version="1.1" viewBox="0.0 0.0 321.25984251968504 415.748031496063" fill="none" stroke="none" stroke-linecap="square" stroke-miterlimit="10" xmlns:xlink="http://www.w3.org/1999/xlink" xmlns="http://www.w3.org/2000/svg"><clipPath id="g2c9664654b5_0_0.0"><path d="m0 0l321.25986 0l0 415.74802l-321.25986 0l0 -415.74802z" clip-rule="nonzero"/></clipPath><g clip-path="url(#g2c9664654b5_0_0.0)"><path fill="#ffffff" d="m0 0l321.25986 0l0 415.74802l-321.25986 0z" fill-rule="evenodd"/><path fill="#000000" fill-opacity="0.0" d="m72.93178 58.62525l183.33858 0l0 31.874016l-183.33858 0z" fill-rule="evenodd"/><path fill="#333333" d="m90.29115 80.82525l-3.140625 0l-1.25 -3.25l-5.71875 0l-1.1875 3.25l-3.0625 0l5.578125 -14.3125l3.0625 0l5.71875 14.3125zm-5.3125 -5.671875l-1.96875 -5.3125l-1.9375 5.3125l3.90625 0zm11.6640625 5.671875l0 -14.3125l4.640625 0q2.640625 0 3.4375 0.203125q1.234375 0.328125 2.0625 1.40625q0.828125 1.078125 0.828125 2.796875q0 1.3125 -0.484375 2.21875q-0.46875 0.890625 -1.21875 1.40625q-0.734375 0.515625 -1.484375 0.671875q-1.046875 0.203125 -3.0 0.203125l-1.890625 0l0 5.40625l-2.890625 0zm2.890625 -11.890625l0 4.0625l1.578125 0q1.71875 0 2.296875 -0.21875q0.578125 -0.234375 0.890625 -0.703125q0.328125 -0.484375 0.328125 -1.125q0 -0.78125 -0.453125 -1.28125q-0.453125 -0.515625 -1.15625 -0.640625q-0.515625 -0.09375 -2.078125 -0.09375l-1.40625 0zm10.464844 11.890625l0 -14.3125l6.078125 0q2.296875 0 3.328125 0.390625q1.046875 0.375 1.671875 1.359375q0.625 0.984375 0.625 2.265625q0 1.609375 -0.953125 2.65625q-0.9375 1.046875 -2.828125 1.328125q0.9375 0.546875 1.546875 1.203125q0.609375 0.640625 1.65625 2.3125l1.75 2.796875l-3.46875 0l-2.078125 -3.109375q-1.125 -1.671875 -1.53125 -2.109375q-0.40625 -0.4375 -0.875 -0.59375q-0.453125 -0.171875 -1.453125 -0.171875l-0.578125 0l0 5.984375l-2.890625 0zm2.890625 -8.265625l2.140625 0q2.078125 0 2.59375 -0.171875q0.515625 -0.171875 0.8125 -0.59375q0.296875 -0.4375 0.296875 -1.09375q0 -0.71875 -0.390625 -1.15625q-0.390625 -0.453125 -1.09375 -0.5625q-0.34375 -0.046875 -2.109375 -0.046875l-2.25 0l0 3.625zm10.958984 1.1875q0 -2.1875 0.65625 -3.671875q0.484375 -1.09375 1.328125 -1.953125q0.84375 -0.875 1.84375 -1.296875q1.34375 -0.5625 3.09375 -0.5625q3.15625 0 5.046875 1.96875q1.90625 1.953125 1.90625 5.453125q0 3.46875 -1.890625 5.4375q-1.875 1.953125 -5.03125 1.953125q-3.1875 0 -5.078125 -1.953125q-1.875 -1.953125 -1.875 -5.375zm2.96875 -0.09375q0 2.4375 1.125 3.6875q1.125 1.25 2.859375 1.25q1.71875 0 2.828125 -1.234375q1.109375 -1.25 1.109375 -3.734375q0 -2.46875 -1.078125 -3.671875q-1.078125 -1.21875 -2.859375 -1.21875q-1.796875 0 -2.890625 1.234375q-1.09375 1.21875 -1.09375 3.6875zm13.181641 -7.140625l5.71875 0q1.703125 0 2.53125 0.140625q0.84375 0.140625 1.5 0.59375q0.65625 0.4375 1.09375 1.1875q0.4375 0.75 0.4375 1.671875q0 1.015625 -0.546875 1.859375q-0.53125 0.828125 -1.453125 1.25q1.296875 0.375 2.0 1.296875q0.703125 0.921875 0.703125 2.15625q0 0.984375 -0.453125 1.90625q-0.453125 0.921875 -1.234375 1.484375q-0.78125 0.546875 -1.9375 0.671875q-0.71875 0.078125 -3.484375 0.09375l-4.875 0l0 -14.3125zm2.890625 2.375l0 3.3125l1.890625 0q1.6875 0 2.09375 -0.046875q0.75 -0.09375 1.171875 -0.515625q0.421875 -0.421875 0.421875 -1.109375q0 -0.671875 -0.375 -1.078125q-0.359375 -0.421875 -1.078125 -0.515625q-0.421875 -0.046875 -2.46875 -0.046875l-1.65625 0zm0 5.703125l0 3.828125l2.671875 0q1.5625 0 1.984375 -0.09375q0.640625 -0.125 1.046875 -0.578125q0.40625 -0.453125 0.40625 -1.203125q0 -0.65625 -0.3125 -1.09375q-0.3125 -0.453125 -0.90625 -0.65625q-0.59375 -0.203125 -2.5625 -0.203125l-2.328125 0zm11.615234 6.234375l0 -14.203125l2.890625 0l0 11.796875l7.1875 0l0 2.40625l-10.078125 0zm12.138672 0l0 -14.3125l10.625 0l0 2.421875l-7.734375 0l0 3.171875l7.1875 0l0 2.40625l-7.1875 0l0 3.90625l8.0 0l0 2.40625l-10.890625 0zm13.308594 0l0 -14.3125l4.328125 0l2.59375 9.765625l2.5625 -9.765625l4.34375 0l0 14.3125l-2.6875 0l0 -11.265625l-2.84375 11.265625l-2.78125 0l-2.828125 -11.265625l0 11.265625l-2.6875 0zm21.669922 -7.078125q0 -2.1875 0.65625 -3.671875q0.484375 -1.09375 1.328125 -1.953125q0.84375 -0.875 1.84375 -1.296875q1.34375 -0.5625 3.09375 -0.5625q3.15625 0 5.046875 1.96875q1.90625 1.953125 1.90625 5.453125q0 3.46875 -1.890625 5.4375q-1.875 1.953125 -5.03125 1.953125q-3.1875 0 -5.078125 -1.953125q-1.875 -1.953125 -1.875 -5.375zm2.96875 -0.09375q0 2.4375 1.125 3.6875q1.125 1.25 2.859375 1.25q1.71875 0 2.828125 -1.234375q1.109375 -1.25 1.109375 -3.734375q0 -2.46875 -1.078125 -3.671875q-1.078125 -1.21875 -2.859375 -1.21875q-1.796875 0 -2.890625 1.234375q-1.09375 1.21875 -1.09375 3.6875zm13.181641 7.171875l0 -14.3125l9.828125 0l0 2.421875l-6.9375 0l0 3.390625l5.984375 0l0 2.421875l-5.984375 0l0 6.078125l-2.890625 0z" fill-rule="nonzero"/><path fill="#000000" fill-opacity="0.0" d="m17.403435 79.20722l311.65353 0l0 59.338585l-311.65353 0z" fill-rule="evenodd"/><path fill="#000000" d="m23.32531 123.16722l0 -30.53125l6.15625 0l0 30.53125l-6.15625 0zm11.945023 0l0 -30.53125l9.234375 0l5.53125 20.828125l5.484375 -20.828125l9.25 0l0 30.53125l-5.734375 0l0 -24.03125l-6.0625 24.03125l-5.9375 0l-6.03125 -24.03125l0 24.03125l-5.734375 0z" fill-rule="nonzero"/><path fill="#cc0000" d="m98.42832 123.16722l-6.703125 0l-2.671875 -6.9375l-12.203125 0l-2.515625 6.9375l-6.546875 0l11.890625 -30.53125l6.515625 0l12.234375 30.53125zm-11.359375 -12.078125l-4.203125 -11.328125l-4.125 11.328125l8.328125 0zm28.836227 0.859375l0 -5.15625l13.281258 0l0 12.171875q-1.9375076 1.875 -5.6093826 3.296875q-3.671875 1.421875 -7.453125 1.421875q-4.78125 0 -8.34375 -2.0q-3.5625 -2.015625 -5.359375 -5.75q-1.78125 -3.734375 -1.78125 -8.140625q0 -4.765625 2.0 -8.46875q2.0 -3.71875 5.84375 -5.6875q2.9375 -1.53125 7.3125 -1.53125q5.6875 0 8.875 2.390625q3.203125 2.390625 4.1250076 6.59375l-6.1250076 1.140625q-0.640625 -2.25 -2.421875 -3.546875q-1.78125 -1.296875 -4.453125 -1.296875q-4.046875 0 -6.4375 2.5625q-2.375 2.5625 -2.375 7.59375q0 5.4375 2.40625 8.15625q2.421875 2.71875 6.34375 2.71875q1.9375 0 3.875 -0.75q1.953125 -0.765625 3.359375 -1.859375l0 -3.859375l-7.0625 0zm18.78878 11.21875l0 -30.53125l6.15625 0l0 30.53125l-6.15625 0z" fill-rule="nonzero"/><path fill="#000000" d="m146.79523 123.16722l0 -30.53125l6.0 0l12.484375 20.390625l0 -20.390625l5.734375 0l0 30.53125l-6.1875 0l-12.3125 -19.90625l0 19.90625l-5.71875 0zm58.273727 0l-6.703125 0l-2.671875 -6.9375l-12.203125 0l-2.515625 6.9375l-6.546875 0l11.890625 -30.53125l6.515625 0l12.234375 30.53125zm-11.359375 -12.078125l-4.203125 -11.328125l-4.125 11.328125l8.328125 0zm18.34143 12.078125l0 -25.375l-9.0625 0l0 -5.15625l24.265625 0l0 5.15625l-9.046875 0l0 25.375l-6.15625 0zm18.993637 0l0 -30.53125l6.15625 0l0 30.53125l-6.15625 0zm10.788773 -15.078125q0 -4.671875 1.390625 -7.828125q1.046875 -2.34375 2.84375 -4.1875q1.796875 -1.859375 3.953125 -2.75q2.84375 -1.21875 6.5781097 -1.21875q6.75 0 10.796875 4.1875q4.046875 4.1875 4.046875 11.65625q0 7.390625 -4.015625 11.5625q-4.015625 4.171875 -10.75 4.171875q-6.8124847 0 -10.82811 -4.15625q-4.015625 -4.15625 -4.015625 -11.4375zm6.34375 -0.203125q0 5.171875 2.390625 7.859375q2.40625 2.671875 6.0937347 2.671875q3.6875 0 6.046875 -2.65625q2.359375 -2.65625 2.359375 -7.96875q0 -5.25 -2.296875 -7.828125q-2.296875 -2.578125 -6.109375 -2.578125q-3.8124847 0 -6.1562347 2.609375q-2.328125 2.609375 -2.328125 7.890625zm28.148148 15.28125l0 -30.53125l6.0 0l12.484375 20.390625l0 -20.390625l5.734375 0l0 30.53125l-6.1875 0l-12.3125 -19.90625l0 19.90625l-5.71875 0z" fill-rule="nonzero"/><path fill="#000000" fill-opacity="0.0" d="m42.798687 218.12367l228.37794 -0.3779602" fill-rule="evenodd"/><path stroke="#999999" stroke-width="1.0" stroke-linejoin="round" stroke-linecap="butt" d="m42.798687 218.12367l228.37794 -0.3779602" fill-rule="evenodd"/><path fill="#000000" fill-opacity="0.0" d="m42.012318 222.37068l245.16536 0l0 57.637802l-245.16536 0z" fill-rule="evenodd"/><path fill="#990000" d="m49.856068 243.29068l0 -11.78125l-4.40625 0l0 -1.578125l10.578125 0l0 1.578125l-4.40625 0l0 11.78125l-1.765625 0zm7.786606 0l0 -13.359375l1.640625 0l0 4.796875q1.140625 -1.328125 2.890625 -1.328125q1.078125 0 1.8593712 0.421875q0.796875 0.421875 1.140625 1.171875q0.34375 0.75 0.34375 2.171875l0 6.125l-1.6406212 0l0 -6.125q0 -1.234375 -0.53125 -1.796875q-0.53125 -0.5625 -1.515625 -0.5625q-0.71875 0 -1.359375 0.390625q-0.640625 0.375 -0.921875 1.015625q-0.265625 0.640625 -0.265625 1.78125l0 5.296875l-1.640625 0zm17.000713 -3.109375l1.6875 0.203125q-0.40625 1.484375 -1.484375 2.3125q-1.078125 0.8125 -2.765625 0.8125q-2.125 0 -3.375 -1.296875q-1.234375 -1.3125 -1.234375 -3.671875q0 -2.453125 1.25 -3.796875q1.265625 -1.34375 3.265625 -1.34375q1.9375 0 3.15625 1.328125q1.234375 1.3125 1.234375 3.703125q0 0.15625 0 0.4375l-7.21875 0q0.09375 1.59375 0.90625 2.453125q0.8125 0.84375 2.015625 0.84375q0.90625 0 1.546875 -0.46875q0.640625 -0.484375 1.015625 -1.515625zm-5.390625 -2.65625l5.40625 0q-0.109375 -1.21875 -0.625 -1.828125q-0.78125 -0.953125 -2.03125 -0.953125q-1.125 0 -1.90625 0.765625q-0.765625 0.75 -0.84375 2.015625zm12.029068 5.765625l5.125 -13.359375l1.90625 0l5.46875 13.359375l-2.015625 0l-1.546875 -4.046875l-5.59375 0l-1.46875 4.046875l-1.875 0zm3.859375 -5.484375l4.53125 0l-1.40625 -3.703125q-0.625 -1.6875 -0.9375 -2.765625q-0.265625 1.28125 -0.71875 2.546875l-1.46875 3.921875zm10.349823 5.484375l0 -13.359375l1.765625 0l0 13.359375l-1.765625 0zm9.554108 0.796875l1.59375 0.234375q0.109375 0.75 0.5625 1.078125q0.609375 0.453125 1.671875 0.453125q1.140625 0 1.75 -0.453125q0.625 -0.453125 0.84375 -1.265625q0.125 -0.5 0.109375 -2.109375q-1.0625 1.265625 -2.671875 1.265625q-2.0 0 -3.09375 -1.4375q-1.09375 -1.4375 -1.09375 -3.453125q0 -1.390625 0.5 -2.5625q0.515625 -1.171875 1.453125 -1.796875q0.953125 -0.640625 2.25 -0.640625q1.703125 0 2.8125 1.375l0 -1.15625l1.515625 0l0 8.359375q0 2.265625 -0.46875 3.203125q-0.453125 0.9375 -1.453125 1.484375q-0.984375 0.546875 -2.453125 0.546875q-1.71875 0 -2.796875 -0.78125q-1.0625 -0.765625 -1.03125 -2.34375zm1.359375 -5.8125q0 1.90625 0.75 2.78125q0.765625 0.875 1.90625 0.875q1.125 0 1.890625 -0.859375q0.765625 -0.875 0.765625 -2.734375q0 -1.78125 -0.796875 -2.671875q-0.78125 -0.90625 -1.890625 -0.90625q-1.09375 0 -1.859375 0.890625q-0.765625 0.875 -0.765625 2.625zm15.656967 5.015625l0 -1.421875q-1.125 1.640625 -3.0625 1.640625q-0.859375 0 -1.609375 -0.328125q-0.734375 -0.328125 -1.09375 -0.828125q-0.359375 -0.5 -0.5 -1.21875q-0.109375 -0.46875 -0.109375 -1.53125l0 -5.984375l1.640625 0l0 5.359375q0 1.28125 0.109375 1.734375q0.15625 0.640625 0.65625 1.015625q0.5 0.375 1.234375 0.375q0.734375 0 1.375 -0.375q0.65625 -0.390625 0.921875 -1.03125q0.265625 -0.65625 0.265625 -1.890625l0 -5.1875l1.640625 0l0 9.671875l-1.46875 0zm4.047592 -11.46875l0 -1.890625l1.640625 0l0 1.890625l-1.640625 0zm0 11.46875l0 -9.671875l1.640625 0l0 9.671875l-1.640625 0zm10.410446 0l0 -1.21875q-0.90625 1.4375 -2.703125 1.4375q-1.15625 0 -2.125 -0.640625q-0.96875 -0.640625 -1.5 -1.78125q-0.53125 -1.140625 -0.53125 -2.625q0 -1.453125 0.484375 -2.625q0.484375 -1.1875 1.4375 -1.8125q0.96875 -0.625 2.171875 -0.625q0.875 0 1.546875 0.375q0.6875 0.359375 1.109375 0.953125l0 -4.796875l1.640625 0l0 13.359375l-1.53125 0zm-5.171875 -4.828125q0 1.859375 0.78125 2.78125q0.78125 0.921875 1.84375 0.921875q1.078125 0 1.828125 -0.875q0.75 -0.890625 0.75 -2.6875q0 -1.984375 -0.765625 -2.90625q-0.765625 -0.9375 -1.890625 -0.9375q-1.078125 0 -1.8125 0.890625q-0.734375 0.890625 -0.734375 2.8125zm15.906967 1.71875l1.6875 0.203125q-0.40625 1.484375 -1.484375 2.3125q-1.078125 0.8125 -2.765625 0.8125q-2.125 0 -3.375 -1.296875q-1.234375 -1.3125 -1.234375 -3.671875q0 -2.453125 1.25 -3.796875q1.265625 -1.34375 3.265625 -1.34375q1.9375 0 3.15625 1.328125q1.234375 1.3125 1.234375 3.703125q0 0.15625 0 0.4375l-7.21875 0q0.09375 1.59375 0.90625 2.453125q0.8125 0.84375 2.015625 0.84375q0.90625 0 1.546875 -0.46875q0.640625 -0.484375 1.015625 -1.515625zm-5.390625 -2.65625l5.40625 0q-0.109375 -1.21875 -0.625 -1.828125q-0.78125 -0.953125 -2.03125 -0.953125q-1.125 0 -1.90625 0.765625q-0.765625 0.75 -0.84375 2.015625zm15.824646 5.765625l-1.515625 0l0 -13.359375l1.640625 0l0 4.765625q1.046875 -1.296875 2.65625 -1.296875q0.890625 0 1.6875 0.359375q0.796875 0.359375 1.3125 1.015625q0.515625 0.640625 0.796875 1.5625q0.296875 0.921875 0.296875 1.96875q0 2.484375 -1.234375 3.84375q-1.21875 1.359375 -2.953125 1.359375q-1.703125 0 -2.6875 -1.4375l0 1.21875zm-0.015625 -4.90625q0 1.734375 0.484375 2.515625q0.765625 1.265625 2.09375 1.265625q1.078125 0 1.859375 -0.9375q0.78125 -0.9375 0.78125 -2.78125q0 -1.890625 -0.75 -2.796875q-0.75 -0.90625 -1.828125 -0.90625q-1.0625 0 -1.859375 0.9375q-0.78125 0.9375 -0.78125 2.703125zm8.813217 8.625l-0.1875 -1.53125q0.546875 0.140625 0.9375 0.140625q0.546875 0 0.875 -0.1875q0.328125 -0.171875 0.546875 -0.5q0.15625 -0.25 0.5 -1.21875q0.046875 -0.140625 0.140625 -0.40625l-3.671875 -9.6875l1.765625 0l2.015625 5.59375q0.390625 1.078125 0.703125 2.25q0.28125 -1.125 0.671875 -2.203125l2.078125 -5.640625l1.640625 0l-3.6875 9.828125q-0.59375 1.609375 -0.921875 2.203125q-0.4375 0.8125 -1.0 1.1875q-0.5625 0.375 -1.34375 0.375q-0.484375 0 -1.0625 -0.203125z" fill-rule="nonzero"/><path fill="#990000" d="m52.559193 266.83713l1.609375 0.21875q-0.265625 1.65625 -1.359375 2.609375q-1.078125 0.9375 -2.671875 0.9375q-1.984375 0 -3.1875 -1.296875q-1.203125 -1.296875 -1.203125 -3.71875q0 -1.578125 0.515625 -2.75q0.515625 -1.171875 1.578125 -1.75q1.0625 -0.59375 2.3125 -0.59375q1.578125 0 2.578125 0.796875q1.0 0.796875 1.28125 2.265625l-1.59375 0.234375q-0.234375 -0.96875 -0.8125 -1.453125q-0.578125 -0.5 -1.390625 -0.5q-1.234375 0 -2.015625 0.890625q-0.78125 0.890625 -0.78125 2.8125q0 1.953125 0.75 2.84375q0.75 0.875 1.953125 0.875q0.96875 0 1.609375 -0.59375q0.65625 -0.59375 0.828125 -1.828125zm3.0 3.546875l0 -9.671875l1.46875 0l0 1.46875q0.5625 -1.03125 1.03125 -1.359375q0.484375 -0.328125 1.0625 -0.328125q0.828125 0 1.6875 0.53125l-0.5625 1.515625q-0.609375 -0.359375 -1.203125 -0.359375q-0.546875 0 -0.96875 0.328125q-0.421875 0.328125 -0.609375 0.890625q-0.28125 0.875 -0.28125 1.921875l0 5.0625l-1.625 0zm12.853298 -3.109375l1.6875 0.203125q-0.40625 1.484375 -1.484375 2.3125q-1.078125 0.8125 -2.765625 0.8125q-2.1249962 0 -3.3749962 -1.296875q-1.234375 -1.3125 -1.234375 -3.671875q0 -2.453125 1.25 -3.796875q1.265625 -1.34375 3.2656212 -1.34375q1.9375 0 3.15625 1.328125q1.234375 1.3125 1.234375 3.703125q0 0.15625 0 0.4375l-7.218746 0q0.09375 1.59375 0.90625 2.453125q0.8124962 0.84375 2.0156212 0.84375q0.90625 0 1.546875 -0.46875q0.640625 -0.484375 1.015625 -1.515625zm-5.390621 -2.65625l5.406246 0q-0.109375 -1.21875 -0.625 -1.828125q-0.78125 -0.953125 -2.03125 -0.953125q-1.125 0 -1.9062462 0.765625q-0.765625 0.75 -0.84375 2.015625zm15.453838 4.578125q-0.921875 0.765625 -1.765625 1.09375q-0.828125 0.3125 -1.796875 0.3125q-1.59375 0 -2.453125 -0.78125q-0.859375 -0.78125 -0.859375 -1.984375q0 -0.71875 0.328125 -1.296875q0.328125 -0.59375 0.84375 -0.9375q0.53125 -0.359375 1.1875 -0.546875q0.46875 -0.125 1.453125 -0.25q1.984375 -0.234375 2.921875 -0.5625q0.015625 -0.34375 0.015625 -0.421875q0 -1.0 -0.46875 -1.421875q-0.625 -0.546875 -1.875 -0.546875q-1.15625 0 -1.703125 0.40625q-0.546875 0.40625 -0.8125 1.421875l-1.609375 -0.21875q0.21875 -1.015625 0.71875 -1.640625q0.5 -0.640625 1.453125 -0.984375q0.953125 -0.34375 2.1875 -0.34375q1.25 0 2.015625 0.296875q0.78125 0.28125 1.140625 0.734375q0.375 0.4375 0.515625 1.109375q0.078125 0.421875 0.078125 1.515625l0 2.1875q0 2.28125 0.109375 2.890625q0.109375 0.59375 0.40625 1.15625l-1.703125 0q-0.265625 -0.515625 -0.328125 -1.1875zm-0.140625 -3.671875q-0.890625 0.375 -2.671875 0.625q-1.015625 0.140625 -1.4375 0.328125q-0.421875 0.1875 -0.65625 0.53125q-0.21875 0.34375 -0.21875 0.78125q0 0.65625 0.5 1.09375q0.5 0.4375 1.453125 0.4375q0.9375 0 1.671875 -0.40625q0.75 -0.421875 1.09375 -1.140625q0.265625 -0.5625 0.265625 -1.640625l0 -0.609375zm7.781967 3.390625l0.234375 1.453125q-0.6875 0.140625 -1.234375 0.140625q-0.890625 0 -1.390625 -0.28125q-0.484375 -0.28125 -0.6875 -0.734375q-0.203125 -0.46875 -0.203125 -1.9375l0 -5.578125l-1.203125 0l0 -1.265625l1.203125 0l0 -2.390625l1.625 -0.984375l0 3.375l1.65625 0l0 1.265625l-1.65625 0l0 5.671875q0 0.6875 0.078125 0.890625q0.09375 0.203125 0.28125 0.328125q0.203125 0.109375 0.578125 0.109375q0.265625 0 0.71875 -0.0625zm1.6051788 -10.0l0 -1.890625l1.640625 0l0 1.890625l-1.640625 0zm0 11.46875l0 -9.671875l1.640625 0l0 9.671875l-1.640625 0zm6.832321 0l-3.6875 -9.671875l1.734375 0l2.078125 5.796875q0.328125 0.9375 0.625 1.9375q0.203125 -0.765625 0.609375 -1.828125l2.140625 -5.90625l1.6875 0l-3.65625 9.671875l-1.53125 0zm13.265625 -3.109375l1.6875 0.203125q-0.40625 1.484375 -1.484375 2.3125q-1.078125 0.8125 -2.765625 0.8125q-2.125 0 -3.375 -1.296875q-1.234375 -1.3125 -1.234375 -3.671875q0 -2.453125 1.25 -3.796875q1.265625 -1.34375 3.265625 -1.34375q1.9375 0 3.15625 1.328125q1.234375 1.3125 1.234375 3.703125q0 0.15625 0 0.4375l-7.21875 0q0.09375 1.59375 0.90625 2.453125q0.8125 0.84375 2.015625 0.84375q0.90625 0 1.546875 -0.46875q0.640625 -0.484375 1.015625 -1.515625zm-5.390625 -2.65625l5.40625 0q-0.109375 -1.21875 -0.625 -1.828125q-0.78125 -0.953125 -2.03125 -0.953125q-1.125 0 -1.90625 0.765625q-0.765625 0.75 -0.84375 2.015625zm8.485092 2.875l1.625 -0.25q0.125 0.96875 0.75 1.5q0.625 0.515625 1.75 0.515625q1.125 0 1.671875 -0.453125q0.546875 -0.46875 0.546875 -1.09375q0 -0.546875 -0.484375 -0.875q-0.328125 -0.21875 -1.671875 -0.546875q-1.8125 -0.46875 -2.515625 -0.796875q-0.6875 -0.328125 -1.046875 -0.90625q-0.359375 -0.59375 -0.359375 -1.3125q0 -0.640625 0.296875 -1.1875q0.296875 -0.5625 0.8125 -0.921875q0.375 -0.28125 1.03125 -0.46875q0.671875 -0.203125 1.421875 -0.203125q1.140625 0 2.0 0.328125q0.859375 0.328125 1.265625 0.890625q0.421875 0.5625 0.578125 1.5l-1.609375 0.21875q-0.109375 -0.75 -0.640625 -1.171875q-0.515625 -0.421875 -1.46875 -0.421875q-1.140625 0 -1.625 0.375q-0.46875 0.375 -0.46875 0.875q0 0.3125 0.1875 0.578125q0.203125 0.265625 0.640625 0.4375q0.234375 0.09375 1.4375 0.421875q1.75 0.453125 2.4375 0.75q0.6875 0.296875 1.078125 0.859375q0.390625 0.5625 0.390625 1.40625q0 0.828125 -0.484375 1.546875q-0.46875 0.71875 -1.375 1.125q-0.90625 0.390625 -2.046875 0.390625q-1.875 0 -2.875 -0.78125q-0.984375 -0.78125 -1.25 -2.328125zm22.792679 1.3125q-0.8125 0.90625 -1.765625 1.359375q-0.953125 0.453125 -2.0625 0.453125q-2.046875 0 -3.25 -1.390625q-0.984375 -1.125 -0.984375 -2.53125q0 -1.234375 0.796875 -2.234375q0.796875 -1.0 2.390625 -1.75q-0.90625 -1.03125 -1.203125 -1.671875q-0.296875 -0.65625 -0.296875 -1.265625q0 -1.203125 0.9375 -2.078125q0.9375 -0.890625 2.375 -0.890625q1.359375 0 2.234375 0.84375q0.875 0.828125 0.875 2.0q0 1.90625 -2.53125 3.25l2.390625 3.0625q0.421875 -0.8125 0.640625 -1.859375l1.703125 0.359375q-0.4375 1.75 -1.1875 2.875q0.921875 1.21875 2.09375 2.046875l-1.109375 1.3125q-0.984375 -0.640625 -2.046875 -1.890625zm-3.328125 -6.953125q1.0625 -0.640625 1.375 -1.109375q0.3125 -0.46875 0.3125 -1.046875q0 -0.6875 -0.4375 -1.109375q-0.421875 -0.4375 -1.0625 -0.4375q-0.671875 0 -1.125 0.4375q-0.4375 0.421875 -0.4375 1.03125q0 0.3125 0.15625 0.65625q0.171875 0.34375 0.484375 0.734375l0.734375 0.84375zm2.296875 5.65625l-3.0 -3.71875q-1.328125 0.796875 -1.796875 1.46875q-0.46875 0.671875 -0.46875 1.34375q0 0.8125 0.640625 1.6875q0.65625 0.875 1.84375 0.875q0.734375 0 1.515625 -0.453125q0.796875 -0.46875 1.265625 -1.203125zm17.345627 -0.671875l1.609375 0.21875q-0.265625 1.65625 -1.359375 2.609375q-1.078125 0.9375 -2.671875 0.9375q-1.984375 0 -3.1875 -1.296875q-1.203125 -1.296875 -1.203125 -3.71875q0 -1.578125 0.515625 -2.75q0.515625 -1.171875 1.578125 -1.75q1.0625 -0.59375 2.3125 -0.59375q1.578125 0 2.578125 0.796875q1.0 0.796875 1.28125 2.265625l-1.59375 0.234375q-0.234375 -0.96875 -0.8125 -1.453125q-0.578125 -0.5 -1.390625 -0.5q-1.234375 0 -2.015625 0.890625q-0.78125 0.890625 -0.78125 2.8125q0 1.953125 0.75 2.84375q0.75 0.875 1.953125 0.875q0.96875 0 1.609375 -0.59375q0.65625 -0.59375 0.828125 -1.828125zm3.0 3.546875l0 -9.671875l1.46875 0l0 1.46875q0.5625 -1.03125 1.03125 -1.359375q0.484375 -0.328125 1.0625 -0.328125q0.828125 0 1.6875 0.53125l-0.5625 1.515625q-0.609375 -0.359375 -1.203125 -0.359375q-0.546875 0 -0.96875 0.328125q-0.421875 0.328125 -0.609375 0.890625q-0.28125 0.875 -0.28125 1.921875l0 5.0625l-1.625 0zm6.228302 -11.46875l0 -1.890625l1.640625 0l0 1.890625l-1.640625 0zm0 11.46875l0 -9.671875l1.640625 0l0 9.671875l-1.640625 0zm7.722946 -1.46875l0.234375 1.453125q-0.6875 0.140625 -1.234375 0.140625q-0.890625 0 -1.390625 -0.28125q-0.484375 -0.28125 -0.6875 -0.734375q-0.203125 -0.46875 -0.203125 -1.9375l0 -5.578125l-1.203125 0l0 -1.265625l1.203125 0l0 -2.390625l1.625 -0.984375l0 3.375l1.65625 0l0 1.265625l-1.65625 0l0 5.671875q0 0.6875 0.078125 0.890625q0.09375 0.203125 0.28125 0.328125q0.203125 0.109375 0.578125 0.109375q0.265625 0 0.71875 -0.0625zm1.6051788 -10.0l0 -1.890625l1.640625 0l0 1.890625l-1.640625 0zm0 11.46875l0 -9.671875l1.640625 0l0 9.671875l-1.640625 0zm10.457321 -3.546875l1.609375 0.21875q-0.265625 1.65625 -1.359375 2.609375q-1.078125 0.9375 -2.671875 0.9375q-1.984375 0 -3.1875 -1.296875q-1.203125 -1.296875 -1.203125 -3.71875q0 -1.578125 0.515625 -2.75q0.515625 -1.171875 1.578125 -1.75q1.0625 -0.59375 2.3125 -0.59375q1.578125 0 2.578125 0.796875q1.0 0.796875 1.28125 2.265625l-1.59375 0.234375q-0.234375 -0.96875 -0.8125 -1.453125q-0.578125 -0.5 -1.390625 -0.5q-1.234375 0 -2.015625 0.890625q-0.78125 0.890625 -0.78125 2.8125q0 1.953125 0.75 2.84375q0.75 0.875 1.953125 0.875q0.96875 0 1.609375 -0.59375q0.65625 -0.59375 0.828125 -1.828125zm9.328125 2.359375q-0.921875 0.765625 -1.765625 1.09375q-0.828125 0.3125 -1.796875 0.3125q-1.59375 0 -2.453125 -0.78125q-0.859375 -0.78125 -0.859375 -1.984375q0 -0.71875 0.328125 -1.296875q0.328125 -0.59375 0.84375 -0.9375q0.53125 -0.359375 1.1875 -0.546875q0.46875 -0.125 1.453125 -0.25q1.984375 -0.234375 2.921875 -0.5625q0.015625 -0.34375 0.015625 -0.421875q0 -1.0 -0.46875 -1.421875q-0.625 -0.546875 -1.875 -0.546875q-1.15625 0 -1.703125 0.40625q-0.546875 0.40625 -0.8125 1.421875l-1.609375 -0.21875q0.21875 -1.015625 0.71875 -1.640625q0.5 -0.640625 1.453125 -0.984375q0.953125 -0.34375 2.1875 -0.34375q1.25 0 2.015625 0.296875q0.78125 0.28125 1.140625 0.734375q0.375 0.4375 0.515625 1.109375q0.078125 0.421875 0.078125 1.515625l0 2.1875q0 2.28125 0.109375 2.890625q0.109375 0.59375 0.40625 1.15625l-1.703125 0q-0.265625 -0.515625 -0.328125 -1.1875zm-0.140625 -3.671875q-0.890625 0.375 -2.671875 0.625q-1.015625 0.140625 -1.4375 0.328125q-0.421875 0.1875 -0.65625 0.53125q-0.21875 0.34375 -0.21875 0.78125q0 0.65625 0.5 1.09375q0.5 0.4375 1.453125 0.4375q0.9375 0 1.671875 -0.40625q0.75 -0.421875 1.09375 -1.140625q0.265625 -0.5625 0.265625 -1.640625l0 -0.609375zm4.156967 4.859375l0 -13.359375l1.640625 0l0 13.359375l-1.640625 0zm12.953125 -1.46875l0.234375 1.453125q-0.6875 0.140625 -1.234375 0.140625q-0.890625 0 -1.390625 -0.28125q-0.484375 -0.28125 -0.6875 -0.734375q-0.203125 -0.46875 -0.203125 -1.9375l0 -5.578125l-1.203125 0l0 -1.265625l1.203125 0l0 -2.390625l1.625 -0.984375l0 3.375l1.65625 0l0 1.265625l-1.65625 0l0 5.671875q0 0.6875 0.078125 0.890625q0.09375 0.203125 0.28125 0.328125q0.203125 0.109375 0.578125 0.109375q0.265625 0 0.71875 -0.0625zm1.6051788 1.46875l0 -13.359375l1.640625 0l0 4.796875q1.140625 -1.328125 2.890625 -1.328125q1.078125 0 1.859375 0.421875q0.796875 0.421875 1.140625 1.171875q0.34375 0.75 0.34375 2.171875l0 6.125l-1.640625 0l0 -6.125q0 -1.234375 -0.53125 -1.796875q-0.53125 -0.5625 -1.515625 -0.5625q-0.71875 0 -1.359375 0.390625q-0.640625 0.375 -0.921875 1.015625q-0.265625 0.640625 -0.265625 1.78125l0 5.296875l-1.640625 0zm10.375717 -11.46875l0 -1.890625l1.640625 0l0 1.890625l-1.640625 0zm0 11.46875l0 -9.671875l1.640625 0l0 9.671875l-1.640625 0zm4.144821 0l0 -9.671875l1.46875 0l0 1.375q1.0625 -1.59375 3.078125 -1.59375q0.875 0 1.609375 0.3125q0.734375 0.3125 1.09375 0.828125q0.375 0.5 0.515625 1.203125q0.09375 0.453125 0.09375 1.59375l0 5.953125l-1.640625 0l0 -5.890625q0 -1.0 -0.203125 -1.484375q-0.1875 -0.5 -0.671875 -0.796875q-0.484375 -0.296875 -1.140625 -0.296875q-1.046875 0 -1.8125 0.671875q-0.75 0.65625 -0.75 2.515625l0 5.28125l-1.640625 0zm10.375717 0l0 -13.359375l1.640625 0l0 7.625l3.890625 -3.9375l2.109375 0l-3.6875 3.59375l4.0625 6.078125l-2.015625 0l-3.203125 -4.953125l-1.15625 1.125l0 3.828125l-1.640625 0zm15.953125 -3.109375l1.6875 0.203125q-0.40625 1.484375 -1.484375 2.3125q-1.078125 0.8125 -2.765625 0.8125q-2.125 0 -3.375 -1.296875q-1.234375 -1.3125 -1.234375 -3.671875q0 -2.453125 1.25 -3.796875q1.265625 -1.34375 3.265625 -1.34375q1.9375 0 3.15625 1.328125q1.234375 1.3125 1.234375 3.703125q0 0.15625 0 0.4375l-7.21875 0q0.09375 1.59375 0.90625 2.453125q0.8125 0.84375 2.015625 0.84375q0.90625 0 1.546875 -0.46875q0.640625 -0.484375 1.015625 -1.515625zm-5.390625 -2.65625l5.40625 0q-0.109375 -1.21875 -0.625 -1.828125q-0.78125 -0.953125 -2.03125 -0.953125q-1.125 0 -1.90625 0.765625q-0.765625 0.75 -0.84375 2.015625zm9.125717 5.765625l0 -9.671875l1.46875 0l0 1.46875q0.5625 -1.03125 1.03125 -1.359375q0.484375 -0.328125 1.0625 -0.328125q0.828125 0 1.6875153 0.53125l-0.5625 1.515625q-0.60939026 -0.359375 -1.2031403 -0.359375q-0.546875 0 -0.96875 0.328125q-0.421875 0.328125 -0.609375 0.890625q-0.28125 0.875 -0.28125 1.921875l0 5.0625l-1.625 0zm5.5720673 -2.890625l1.625 -0.25q0.125 0.96875 0.75 1.5q0.625 0.515625 1.75 0.515625q1.125 0 1.671875 -0.453125q0.546875 -0.46875 0.546875 -1.09375q0 -0.546875 -0.484375 -0.875q-0.328125 -0.21875 -1.671875 -0.546875q-1.8125 -0.46875 -2.515625 -0.796875q-0.6875 -0.328125 -1.046875 -0.90625q-0.359375 -0.59375 -0.359375 -1.3125q0 -0.640625 0.296875 -1.1875q0.296875 -0.5625 0.8125 -0.921875q0.375 -0.28125 1.03125 -0.46875q0.671875 -0.203125 1.421875 -0.203125q1.140625 0 2.0 0.328125q0.859375 0.328125 1.265625 0.890625q0.421875 0.5625 0.578125 1.5l-1.609375 0.21875q-0.109375 -0.75 -0.640625 -1.171875q-0.515625 -0.421875 -1.46875 -0.421875q-1.140625 0 -1.625 0.375q-0.46875 0.375 -0.46875 0.875q0 0.3125 0.1875 0.578125q0.203125 0.265625 0.640625 0.4375q0.234375 0.09375 1.4375 0.421875q1.75 0.453125 2.4375 0.75q0.6875 0.296875 1.078125 0.859375q0.390625 0.5625 0.390625 1.40625q0 0.828125 -0.484375 1.546875q-0.46875 0.71875 -1.375 1.125q-0.90625 0.390625 -2.046875 0.390625q-1.875 0 -2.875 -0.78125q-0.984375 -0.78125 -1.25 -2.328125z" fill-rule="nonzero"/><path fill="#000000" fill-opacity="0.0" d="m42.798687 172.00177l267.14963 0l0 40.25197l-267.14963 0z" fill-rule="evenodd"/><path fill="#434343" d="m45.783062 186.52177l3.296875 -8.59375l1.21875 0l3.515625 8.59375l-1.28125 0l-1.015625 -2.609375l-3.578125 0l-0.953125 2.609375l-1.203125 0zm2.484375 -3.53125l2.90625 0l-0.890625 -2.375q-0.421875 -1.078125 -0.609375 -1.78125q-0.171875 0.828125 -0.46875 1.640625l-0.9375 2.515625zm6.6601562 3.53125l0 -8.59375l1.125 0l0 8.59375l-1.125 0zm10.58984 -2.0l1.09375 0.125q-0.25 0.953125 -0.953125 1.484375q-0.703125 0.53125 -1.7812462 0.53125q-1.359375 0 -2.171875 -0.84375q-0.796875 -0.84375 -0.796875 -2.359375q0 -1.5625 0.8125 -2.421875q0.8125 -0.875 2.09375 -0.875q1.2499962 0 2.0312462 0.84375q0.796875 0.84375 0.796875 2.390625q0 0.09375 0 0.28125l-4.640621 0q0.0625 1.03125 0.578125 1.578125q0.515625 0.53125 1.296875 0.53125q0.5781212 0 0.9843712 -0.296875q0.421875 -0.3125 0.65625 -0.96875zm-3.4531212 -1.703125l3.4687462 0q-0.0625 -0.796875 -0.390625 -1.1875q-0.515625 -0.609375 -1.3124962 -0.609375q-0.734375 0 -1.234375 0.484375q-0.484375 0.484375 -0.53125 1.3125zm5.8769493 3.703125l0 -6.21875l0.9375 0l0 0.875q0.6875 -1.015625 1.984375 -1.015625q0.5625 0 1.03125 0.203125q0.484375 0.203125 0.71875 0.53125q0.234375 0.328125 0.328125 0.765625q0.046875 0.296875 0.046875 1.03125l0 3.828125l-1.046875 0l0 -3.78125q0 -0.65625 -0.125 -0.96875q-0.125 -0.3125 -0.4375 -0.5q-0.3125 -0.203125 -0.734375 -0.203125q-0.671875 0 -1.171875 0.4375q-0.484375 0.421875 -0.484375 1.609375l0 3.40625l-1.046875 0zm6.470703 0.515625l1.03125 0.15625q0.0625 0.46875 0.359375 0.6875q0.390625 0.296875 1.0625 0.296875q0.734375 0 1.125 -0.296875q0.40625 -0.296875 0.546875 -0.8125q0.09375 -0.328125 0.078125 -1.359375q-0.6875 0.8125 -1.71875 0.8125q-1.28125 0 -1.984375 -0.921875q-0.703125 -0.9375 -0.703125 -2.21875q0 -0.890625 0.3125 -1.640625q0.328125 -0.765625 0.9375 -1.171875q0.609375 -0.40625 1.4375 -0.40625q1.109375 0 1.828125 0.890625l0 -0.75l0.96875 0l0 5.375q0 1.453125 -0.296875 2.0625q-0.296875 0.609375 -0.9375 0.953125q-0.640625 0.359375 -1.578125 0.359375q-1.109375 0 -1.796875 -0.5q-0.6875 -0.5 -0.671875 -1.515625zm0.875 -3.734375q0 1.21875 0.484375 1.78125q0.484375 0.5625 1.21875 0.5625q0.734375 0 1.21875 -0.5625q0.5 -0.5625 0.5 -1.75q0 -1.140625 -0.515625 -1.71875q-0.5 -0.578125 -1.21875 -0.578125q-0.703125 0 -1.203125 0.578125q-0.484375 0.5625 -0.484375 1.6875zm6.001953 -4.15625l0 -1.21875l1.0625 0l0 1.21875l-1.0625 0zm0 7.375l0 -6.21875l1.0625 0l0 6.21875l-1.0625 0zm2.6660156 0l0 -6.21875l0.9375 0l0 0.875q0.6875 -1.015625 1.984375 -1.015625q0.5625 0 1.03125 0.203125q0.484375 0.203125 0.71875 0.53125q0.234375 0.328125 0.328125 0.765625q0.046875 0.296875 0.046875 1.03125l0 3.828125l-1.046875 0l0 -3.78125q0 -0.65625 -0.125 -0.96875q-0.125 -0.3125 -0.4375 -0.5q-0.3125 -0.203125 -0.734375 -0.203125q-0.671875 0 -1.171875 0.4375q-0.484375 0.421875 -0.484375 1.609375l0 3.40625l-1.046875 0zm10.923828 -2.0l1.09375 0.125q-0.25 0.953125 -0.953125 1.484375q-0.703125 0.53125 -1.78125 0.53125q-1.359375 0 -2.171875 -0.84375q-0.796875 -0.84375 -0.796875 -2.359375q0 -1.5625 0.8125 -2.421875q0.8125 -0.875 2.09375 -0.875q1.25 0 2.03125 0.84375q0.796875 0.84375 0.796875 2.390625q0 0.09375 0 0.28125l-4.640625 0q0.0625 1.03125 0.578125 1.578125q0.515625 0.53125 1.296875 0.53125q0.578125 0 0.984375 -0.296875q0.421875 -0.3125 0.65625 -0.96875zm-3.453125 -1.703125l3.46875 0q-0.0625 -0.796875 -0.390625 -1.1875q-0.515625 -0.609375 -1.3125 -0.609375q-0.734375 0 -1.234375 0.484375q-0.484375 0.484375 -0.53125 1.3125zm10.126953 1.703125l1.09375 0.125q-0.25 0.953125 -0.953125 1.484375q-0.703125 0.53125 -1.78125 0.53125q-1.359375 0 -2.171875 -0.84375q-0.796875 -0.84375 -0.796875 -2.359375q0 -1.5625 0.8125 -2.421875q0.8125 -0.875 2.09375 -0.875q1.25 0 2.03125 0.84375q0.796875 0.84375 0.796875 2.390625q0 0.09375 0 0.28125l-4.640625 0q0.0625 1.03125 0.578125 1.578125q0.515625 0.53125 1.296875 0.53125q0.578125 0 0.984375 -0.296875q0.421875 -0.3125 0.65625 -0.96875zm-3.453125 -1.703125l3.46875 0q-0.0625 -0.796875 -0.390625 -1.1875q-0.515625 -0.609375 -1.3125 -0.609375q-0.734375 0 -1.234375 0.484375q-0.484375 0.484375 -0.53125 1.3125zm5.861328 3.703125l0 -6.21875l0.953125 0l0 0.9375q0.359375 -0.65625 0.65625 -0.859375q0.3125 -0.21875 0.6875 -0.21875q0.53125 0 1.078125 0.328125l-0.359375 0.984375q-0.390625 -0.234375 -0.765625 -0.234375q-0.359375 0 -0.640625 0.21875q-0.265625 0.203125 -0.375 0.578125q-0.1875 0.5625 -0.1875 1.21875l0 3.265625l-1.046875 0zm3.5898438 -1.859375l1.03125 -0.15625q0.09375 0.625 0.484375 0.953125q0.40625 0.328125 1.140625 0.328125q0.71875 0 1.0625 -0.28125q0.359375 -0.296875 0.359375 -0.703125q0 -0.359375 -0.3125 -0.5625q-0.21875 -0.140625 -1.078125 -0.359375q-1.15625 -0.296875 -1.609375 -0.5q-0.4375 -0.21875 -0.671875 -0.59375q-0.234375 -0.375 -0.234375 -0.84375q0 -0.40625 0.1875 -0.765625q0.1875 -0.359375 0.515625 -0.59375q0.25 -0.171875 0.671875 -0.296875q0.421875 -0.125 0.921875 -0.125q0.71875 0 1.265625 0.21875q0.5625 0.203125 0.828125 0.5625q0.265625 0.359375 0.359375 0.953125l-1.03125 0.140625q-0.0625 -0.46875 -0.40625 -0.734375q-0.328125 -0.28125 -0.953125 -0.28125q-0.71875 0 -1.03125 0.25q-0.3125 0.234375 -0.3125 0.5625q0 0.203125 0.125 0.359375q0.140625 0.171875 0.40625 0.28125q0.15625 0.0625 0.9375 0.265625q1.125 0.3125 1.5625 0.5q0.4375 0.1875 0.6875 0.546875q0.25 0.359375 0.25 0.90625q0 0.53125 -0.3125 1.0q-0.296875 0.453125 -0.875 0.71875q-0.578125 0.25 -1.3125 0.25q-1.21875 0 -1.859375 -0.5q-0.625 -0.515625 -0.796875 -1.5zm13.818359 -0.421875l1.03125 0.140625q-0.171875 1.0625 -0.875 1.671875q-0.703125 0.609375 -1.71875 0.609375q-1.28125 0 -2.0625 -0.828125q-0.765625 -0.84375 -0.765625 -2.40625q0 -1.0 0.328125 -1.75q0.34375 -0.765625 1.015625 -1.140625q0.6875 -0.375 1.5 -0.375q1.0 0 1.640625 0.515625q0.65625 0.5 0.84375 1.453125l-1.03125 0.15625q-0.140625 -0.625 -0.515625 -0.9375q-0.375 -0.328125 -0.90625 -0.328125q-0.796875 0 -1.296875 0.578125q-0.5 0.5625 -0.5 1.796875q0 1.265625 0.484375 1.828125q0.484375 0.5625 1.25 0.5625q0.625 0 1.03125 -0.375q0.421875 -0.375 0.546875 -1.171875zm6.0 1.515625q-0.59375 0.5 -1.140625 0.703125q-0.53125 0.203125 -1.15625 0.203125q-1.03125 0 -1.578125 -0.5q-0.546875 -0.5 -0.546875 -1.28125q0 -0.453125 0.203125 -0.828125q0.203125 -0.390625 0.546875 -0.609375q0.34375 -0.234375 0.765625 -0.34375q0.296875 -0.09375 0.9375 -0.171875q1.265625 -0.140625 1.875 -0.359375q0 -0.21875 0 -0.265625q0 -0.65625 -0.296875 -0.921875q-0.40625 -0.34375 -1.203125 -0.34375q-0.734375 0 -1.09375 0.265625q-0.359375 0.25 -0.53125 0.90625l-1.03125 -0.140625q0.140625 -0.65625 0.46875 -1.0625q0.328125 -0.40625 0.9375 -0.625q0.609375 -0.21875 1.40625 -0.21875q0.796875 0 1.296875 0.1875q0.5 0.1875 0.734375 0.46875q0.23438263 0.28125 0.32813263 0.71875q0.046875 0.265625 0.046875 0.96875l0 1.40625q0 1.46875 0.0625 1.859375q0.078125 0.390625 0.28125 0.75l-1.1093826 0q-0.15625 -0.328125 -0.203125 -0.765625zm-0.09375 -2.359375q-0.578125 0.234375 -1.71875 0.40625q-0.65625 0.09375 -0.921875 0.21875q-0.265625 0.109375 -0.421875 0.328125q-0.140625 0.21875 -0.140625 0.5q0 0.421875 0.3125 0.703125q0.328125 0.28125 0.9375 0.28125q0.609375 0 1.078125 -0.265625q0.484375 -0.265625 0.703125 -0.734375q0.171875 -0.359375 0.171875 -1.046875l0 -0.390625zm2.7050858 3.125l0 -6.21875l0.9375 0l0 0.875q0.6875 -1.015625 1.984375 -1.015625q0.5625 0 1.03125 0.203125q0.484375 0.203125 0.71875 0.53125q0.234375 0.328125 0.328125 0.765625q0.046875 0.296875 0.046875 1.03125l0 3.828125l-1.046875 0l0 -3.78125q0 -0.65625 -0.125 -0.96875q-0.125 -0.3125 -0.4375 -0.5q-0.3125 -0.203125 -0.734375 -0.203125q-0.671875 0 -1.171875 0.4375q-0.484375 0.421875 -0.484375 1.609375l0 3.40625l-1.046875 0zm6.673828 0l0 -6.21875l0.9375 0l0 0.875q0.6875 -1.015625 1.984375 -1.015625q0.5625 0 1.03125 0.203125q0.484375 0.203125 0.71875 0.53125q0.234375 0.328125 0.328125 0.765625q0.046875 0.296875 0.046875 1.03125l0 3.828125l-1.046875 0l0 -3.78125q0 -0.65625 -0.125 -0.96875q-0.125 -0.3125 -0.4375 -0.5q-0.3125 -0.203125 -0.734375 -0.203125q-0.671875 0 -1.171875 0.4375q-0.484375 0.421875 -0.484375 1.609375l0 3.40625l-1.046875 0zm6.283203 -3.109375q0 -1.734375 0.953125 -2.5625q0.796875 -0.6875 1.953125 -0.6875q1.28125 0 2.09375 0.84375q0.828125 0.828125 0.828125 2.3125q0 1.203125 -0.359375 1.890625q-0.359375 0.6875 -1.0625 1.078125q-0.6875 0.375 -1.5 0.375q-1.296875 0 -2.109375 -0.828125q-0.796875 -0.84375 -0.796875 -2.421875zm1.078125 0q0 1.1875 0.515625 1.78125q0.53125 0.59375 1.3125 0.59375q0.796875 0 1.3125 -0.59375q0.515625 -0.59375 0.515625 -1.8125q0 -1.15625 -0.53125 -1.75q-0.515625 -0.59375 -1.296875 -0.59375q-0.78125 0 -1.3125 0.59375q-0.515625 0.578125 -0.515625 1.78125zm8.283203 2.171875l0.15625 0.921875q-0.453125 0.09375 -0.796875 0.09375q-0.578125 0 -0.890625 -0.171875q-0.3125 -0.1875 -0.453125 -0.484375q-0.125 -0.296875 -0.125 -1.25l0 -3.578125l-0.765625 0l0 -0.8125l0.765625 0l0 -1.546875l1.046875 -0.625l0 2.171875l1.0625 0l0 0.8125l-1.0625 0l0 3.640625q0 0.453125 0.046875 0.578125q0.0625 0.125 0.1875 0.203125q0.125 0.078125 0.359375 0.078125q0.1875 0 0.46875 -0.03125zm4.3710938 -6.4375l0 -1.21875l1.0625 0l0 1.21875l-1.0625 0zm0 7.375l0 -6.21875l1.0625 0l0 6.21875l-1.0625 0zm2.6660156 0l0 -6.21875l0.9375 0l0 0.875q0.296875 -0.46875 0.78125 -0.734375q0.484375 -0.28125 1.109375 -0.28125q0.6875 0 1.125 0.28125q0.453125 0.28125 0.625 0.796875q0.75 -1.078125 1.921875 -1.078125q0.9375 0 1.421875 0.515625q0.5 0.5 0.5 1.578125l0 4.265625l-1.046875 0l0 -3.921875q0 -0.625 -0.109375 -0.90625q-0.09375 -0.28125 -0.359375 -0.453125q-0.265625 -0.171875 -0.640625 -0.171875q-0.65625 0 -1.09375 0.4375q-0.421875 0.4375 -0.421875 1.40625l0 3.609375l-1.0625 0l0 -4.046875q0 -0.703125 -0.265625 -1.046875q-0.25 -0.359375 -0.828125 -0.359375q-0.453125 0 -0.828125 0.234375q-0.375 0.234375 -0.546875 0.6875q-0.171875 0.453125 -0.171875 1.296875l0 3.234375l-1.046875 0zm14.058594 -0.765625q-0.59375 0.5 -1.140625 0.703125q-0.53125 0.203125 -1.15625 0.203125q-1.03125 0 -1.578125 -0.5q-0.546875 -0.5 -0.546875 -1.28125q0 -0.453125 0.203125 -0.828125q0.203125 -0.390625 0.546875 -0.609375q0.34375 -0.234375 0.765625 -0.34375q0.296875 -0.09375 0.9375 -0.171875q1.265625 -0.140625 1.875 -0.359375q0 -0.21875 0 -0.265625q0 -0.65625 -0.296875 -0.921875q-0.40625 -0.34375 -1.203125 -0.34375q-0.734375 0 -1.09375 0.265625q-0.359375 0.25 -0.53125 0.90625l-1.03125 -0.140625q0.140625 -0.65625 0.46875 -1.0625q0.328125 -0.40625 0.9375 -0.625q0.609375 -0.21875 1.40625 -0.21875q0.796875 0 1.296875 0.1875q0.5 0.1875 0.734375 0.46875q0.234375 0.28125 0.328125 0.71875q0.046875 0.265625 0.046875 0.96875l0 1.40625q0 1.46875 0.0625 1.859375q0.078125 0.390625 0.28125 0.75l-1.109375 0q-0.15625 -0.328125 -0.203125 -0.765625zm-0.09375 -2.359375q-0.578125 0.234375 -1.71875 0.40625q-0.65625 0.09375 -0.921875 0.21875q-0.265625 0.109375 -0.421875 0.328125q-0.140625 0.21875 -0.140625 0.5q0 0.421875 0.3125 0.703125q0.328125 0.28125 0.9375 0.28125q0.609375 0 1.078125 -0.265625q0.484375 -0.265625 0.703125 -0.734375q0.171875 -0.359375 0.171875 -1.046875l0 -0.390625zm2.5019531 3.640625l1.03125 0.15625q0.0625 0.46875 0.359375 0.6875q0.390625 0.296875 1.0625 0.296875q0.734375 0 1.125 -0.296875q0.40625 -0.296875 0.546875 -0.8125q0.09375 -0.328125 0.078125 -1.359375q-0.6875 0.8125 -1.71875 0.8125q-1.28125 0 -1.984375 -0.921875q-0.703125 -0.9375 -0.703125 -2.21875q0 -0.890625 0.3125 -1.640625q0.328125 -0.765625 0.9375 -1.171875q0.609375 -0.40625 1.4375 -0.40625q1.109375 0 1.828125 0.890625l0 -0.75l0.96875 0l0 5.375q0 1.453125 -0.296875 2.0625q-0.296875 0.609375 -0.9375 0.953125q-0.640625 0.359375 -1.578125 0.359375q-1.109375 0 -1.796875 -0.5q-0.6875 -0.5 -0.671875 -1.515625zm0.875 -3.734375q0 1.21875 0.484375 1.78125q0.484375 0.5625 1.21875 0.5625q0.734375 0 1.21875 -0.5625q0.5 -0.5625 0.5 -1.75q0 -1.140625 -0.515625 -1.71875q-0.5 -0.578125 -1.21875 -0.578125q-0.703125 0 -1.203125 0.578125q-0.484375 0.5625 -0.484375 1.6875zm6.001953 -4.15625l0 -1.21875l1.0625 0l0 1.21875l-1.0625 0zm0 7.375l0 -6.21875l1.0625 0l0 6.21875l-1.0625 0zm2.6660156 0l0 -6.21875l0.9375 0l0 0.875q0.6875 -1.015625 1.984375 -1.015625q0.5625 0 1.03125 0.203125q0.484375 0.203125 0.71875 0.53125q0.234375 0.328125 0.328125 0.765625q0.046875 0.296875 0.046875 1.03125l0 3.828125l-1.046875 0l0 -3.78125q0 -0.65625 -0.125 -0.96875q-0.125 -0.3125 -0.4375 -0.5q-0.3125 -0.203125 -0.734375 -0.203125q-0.671875 0 -1.171875 0.4375q-0.484375 0.421875 -0.484375 1.609375l0 3.40625l-1.046875 0zm10.923828 -2.0l1.09375 0.125q-0.25 0.953125 -0.953125 1.484375q-0.703125 0.53125 -1.78125 0.53125q-1.359375 0 -2.171875 -0.84375q-0.796875 -0.84375 -0.796875 -2.359375q0 -1.5625 0.8125 -2.421875q0.8125 -0.875 2.09375 -0.875q1.25 0 2.03125 0.84375q0.796875 0.84375 0.796875 2.390625q0 0.09375 0 0.28125l-4.640625 0q0.0625 1.03125 0.578125 1.578125q0.515625 0.53125 1.296875 0.53125q0.578125 0 0.984375 -0.296875q0.421875 -0.3125 0.65625 -0.96875zm-3.453125 -1.703125l3.46875 0q-0.0625 -0.796875 -0.390625 -1.1875q-0.515625 -0.609375 -1.3125 -0.609375q-0.734375 0 -1.234375 0.484375q-0.484375 0.484375 -0.53125 1.3125zm11.5078125 2.765625l0.15625 0.921875q-0.453125 0.09375 -0.796875 0.09375q-0.578125 0 -0.890625 -0.171875q-0.3125 -0.1875 -0.453125 -0.484375q-0.125 -0.296875 -0.125 -1.25l0 -3.578125l-0.765625 0l0 -0.8125l0.765625 0l0 -1.546875l1.046875 -0.625l0 2.171875l1.0625 0l0 0.8125l-1.0625 0l0 3.640625q0 0.453125 0.046875 0.578125q0.0625 0.125 0.1875 0.203125q0.125 0.078125 0.359375 0.078125q0.1875 0 0.46875 -0.03125zm1.0371094 0.9375l0 -8.59375l1.046875 0l0 3.078125q0.734375 -0.84375 1.859375 -0.84375q0.703125 0 1.203125 0.28125q0.515625 0.265625 0.734375 0.75q0.21875 0.46875 0.21875 1.390625l0 3.9375l-1.046875 0l0 -3.9375q0 -0.796875 -0.34375 -1.15625q-0.34375 -0.359375 -0.96875 -0.359375q-0.46875 0 -0.890625 0.25q-0.40625 0.234375 -0.59375 0.65625q-0.171875 0.40625 -0.171875 1.140625l0 3.40625l-1.046875 0zm10.923828 -2.0l1.09375 0.125q-0.25 0.953125 -0.953125 1.484375q-0.703125 0.53125 -1.78125 0.53125q-1.359375 0 -2.171875 -0.84375q-0.796875 -0.84375 -0.796875 -2.359375q0 -1.5625 0.8125 -2.421875q0.8125 -0.875 2.09375 -0.875q1.25 0 2.03125 0.84375q0.796875 0.84375 0.796875 2.390625q0 0.09375 0 0.28125l-4.640625 0q0.0625 1.03125 0.578125 1.578125q0.515625 0.53125 1.296875 0.53125q0.578125 0 0.984375 -0.296875q0.421875 -0.3125 0.65625 -0.96875zm-3.453125 -1.703125l3.46875 0q-0.0625 -0.796875 -0.390625 -1.1875q-0.515625 -0.609375 -1.3125 -0.609375q-0.734375 0 -1.234375 0.484375q-0.484375 0.484375 -0.53125 1.3125zm8.7890625 1.84375l1.03125 -0.15625q0.09375 0.625 0.484375 0.953125q0.40625 0.328125 1.140625 0.328125q0.71875 0 1.0625 -0.28125q0.359375 -0.296875 0.359375 -0.703125q0 -0.359375 -0.3125 -0.5625q-0.21875 -0.140625 -1.078125 -0.359375q-1.15625 -0.296875 -1.609375 -0.5q-0.4375 -0.21875 -0.671875 -0.59375q-0.234375 -0.375 -0.234375 -0.84375q0 -0.40625 0.1875 -0.765625q0.1875 -0.359375 0.515625 -0.59375q0.25 -0.171875 0.671875 -0.296875q0.421875 -0.125 0.921875 -0.125q0.71875 0 1.265625 0.21875q0.5625 0.203125 0.828125 0.5625q0.265625 0.359375 0.359375 0.953125l-1.03125 0.140625q-0.0625 -0.46875 -0.40625 -0.734375q-0.328125 -0.28125 -0.953125 -0.28125q-0.71875 0 -1.03125 0.25q-0.3125 0.234375 -0.3125 0.5625q0 0.203125 0.125 0.359375q0.140625 0.171875 0.40625 0.28125q0.15625 0.0625 0.9375 0.265625q1.125 0.3125 1.5625 0.5q0.4375 0.1875 0.6875 0.546875q0.25 0.359375 0.25 0.90625q0 0.53125 -0.3125 1.0q-0.296875 0.453125 -0.875 0.71875q-0.578125 0.25 -1.3125 0.25q-1.21875 0 -1.859375 -0.5q-0.625 -0.515625 -0.796875 -1.5zm6.03125 -1.25q0 -1.734375 0.953125 -2.5625q0.796875 -0.6875 1.953125 -0.6875q1.28125 0 2.09375 0.84375q0.828125 0.828125 0.828125 2.3125q0 1.203125 -0.359375 1.890625q-0.359375 0.6875 -1.0625 1.078125q-0.6875 0.375 -1.5 0.375q-1.296875 0 -2.109375 -0.828125q-0.796875 -0.84375 -0.796875 -2.421875zm1.078125 0q0 1.1875 0.515625 1.78125q0.53125 0.59375 1.3125 0.59375q0.796875 0 1.3125 -0.59375q0.515625 -0.59375 0.515625 -1.8125q0 -1.15625 -0.53125 -1.75q-0.515625 -0.59375 -1.296875 -0.59375q-0.78125 0 -1.3125 0.59375q-0.515625 0.578125 -0.515625 1.78125zm10.048828 0.828125l1.03125 0.140625q-0.171875 1.0625 -0.875 1.671875q-0.703125 0.609375 -1.71875 0.609375q-1.28125 0 -2.0625 -0.828125q-0.765625 -0.84375 -0.765625 -2.40625q0 -1.0 0.328125 -1.75q0.34375 -0.765625 1.015625 -1.140625q0.6875 -0.375 1.5 -0.375q1.0 0 1.640625 0.515625q0.65625 0.5 0.84375 1.453125l-1.03125 0.15625q-0.140625 -0.625 -0.515625 -0.9375q-0.375 -0.328125 -0.90625 -0.328125q-0.796875 0 -1.296875 0.578125q-0.5 0.5625 -0.5 1.796875q0 1.265625 0.484375 1.828125q0.484375 0.5625 1.25 0.5625q0.625 0 1.03125 -0.375q0.421875 -0.375 0.546875 -1.171875zm1.9375 -5.09375l0 -1.21875l1.0625 0l0 1.21875l-1.0625 0zm0 7.375l0 -6.21875l1.0625 0l0 6.21875l-1.0625 0zm6.9160156 -2.0l1.09375 0.125q-0.25 0.953125 -0.953125 1.484375q-0.703125 0.53125 -1.78125 0.53125q-1.359375 0 -2.171875 -0.84375q-0.796875 -0.84375 -0.796875 -2.359375q0 -1.5625 0.8125 -2.421875q0.8125 -0.875 2.09375 -0.875q1.25 0 2.03125 0.84375q0.796875 0.84375 0.796875 2.390625q0 0.09375 0 0.28125l-4.640625 0q0.0625 1.03125 0.578125 1.578125q0.515625 0.53125 1.296875 0.53125q0.578125 0 0.984375 -0.296875q0.421875 -0.3125 0.65625 -0.96875zm-3.453125 -1.703125l3.46875 0q-0.0625 -0.796875 -0.390625 -1.1875q-0.515625 -0.609375 -1.3125 -0.609375q-0.734375 0 -1.234375 0.484375q-0.484375 0.484375 -0.53125 1.3125zm8.173828 2.765625l0.15625 0.921875q-0.453125 0.09375 -0.796875 0.09375q-0.578125 0 -0.890625 -0.171875q-0.3125 -0.1875 -0.453125 -0.484375q-0.125 -0.296875 -0.125 -1.25l0 -3.578125l-0.765625 0l0 -0.8125l0.765625 0l0 -1.546875l1.046875 -0.625l0 2.171875l1.0625 0l0 0.8125l-1.0625 0l0 3.640625q0 0.453125 0.046875 0.578125q0.0625 0.125 0.1875 0.203125q0.125 0.078125 0.359375 0.078125q0.1875 0 0.46875 -0.03125zm5.099594 0.171875q-0.59375 0.5 -1.140625 0.703125q-0.53123474 0.203125 -1.1562347 0.203125q-1.03125 0 -1.578125 -0.5q-0.546875 -0.5 -0.546875 -1.28125q0 -0.453125 0.203125 -0.828125q0.203125 -0.390625 0.546875 -0.609375q0.34375 -0.234375 0.765625 -0.34375q0.296875 -0.09375 0.9375 -0.171875q1.2656097 -0.140625 1.8749847 -0.359375q0 -0.21875 0 -0.265625q0 -0.65625 -0.296875 -0.921875q-0.40625 -0.34375 -1.2031097 -0.34375q-0.734375 0 -1.09375 0.265625q-0.359375 0.25 -0.53125 0.90625l-1.03125 -0.140625q0.140625 -0.65625 0.46875 -1.0625q0.328125 -0.40625 0.9375 -0.625q0.609375 -0.21875 1.4062347 -0.21875q0.796875 0 1.296875 0.1875q0.5 0.1875 0.734375 0.46875q0.234375 0.28125 0.328125 0.71875q0.046875 0.265625 0.046875 0.96875l0 1.40625q0 1.46875 0.0625 1.859375q0.078125 0.390625 0.28125 0.75l-1.109375 0q-0.15625 -0.328125 -0.203125 -0.765625zm-0.09375 -2.359375q-0.578125 0.234375 -1.7187347 0.40625q-0.65625 0.09375 -0.921875 0.21875q-0.265625 0.109375 -0.421875 0.328125q-0.140625 0.21875 -0.140625 0.5q0 0.421875 0.3125 0.703125q0.328125 0.28125 0.9375 0.28125q0.60935974 0 1.0781097 -0.265625q0.484375 -0.265625 0.703125 -0.734375q0.171875 -0.359375 0.171875 -1.046875l0 -0.390625zm2.6738281 3.125l0 -8.59375l1.0625 0l0 8.59375l-1.0625 0z" fill-rule="nonzero"/><path fill="#434343" d="m46.595562 197.04012l0 -1.21875l1.0625 0l0 1.21875l-1.0625 0zm0 7.375l0 -6.21875l1.0625 0l0 6.21875l-1.0625 0zm2.6660156 0l0 -6.21875l0.9375 0l0 0.875q0.296875 -0.46875 0.78125 -0.734375q0.484375 -0.28125 1.109375 -0.28125q0.6875 0 1.125 0.28125q0.453125 0.28125 0.625 0.796875q0.75 -1.078125 1.921875 -1.078125q0.9375 0 1.421875 0.515625q0.5 0.5 0.5 1.578125l0 4.265625l-1.046875 0l0 -3.921875q0 -0.625 -0.109375 -0.90625q-0.09375 -0.28125 -0.359375 -0.453125q-0.265625 -0.171875 -0.640625 -0.171875q-0.65625 0 -1.09375 0.4375q-0.421875 0.4375 -0.421875 1.40625l0 3.609375l-1.0625 0l0 -4.046875q0 -0.703125 -0.265625 -1.046875q-0.25 -0.359375 -0.828125 -0.359375q-0.453125 0 -0.828125 0.234375q-0.375 0.234375 -0.546875 0.6875q-0.171875 0.453125 -0.171875 1.296875l0 3.234375l-1.046875 0zm9.996094 2.390625l0 -8.609375l0.953125 0l0 0.796875q0.34375 -0.46875 0.765625 -0.703125q0.4375 -0.234375 1.046875 -0.234375q0.796875 0 1.40625 0.40625q0.6093712 0.40625 0.9062462 1.15625q0.3125 0.75 0.3125 1.640625q0 0.953125 -0.34375 1.71875q-0.3281212 0.765625 -0.9843712 1.171875q-0.65625 0.40625 -1.375 0.40625q-0.53125 0 -0.953125 -0.21875q-0.421875 -0.234375 -0.6875 -0.5625l0 3.03125l-1.046875 0zm0.953125 -5.46875q0 1.203125 0.484375 1.78125q0.484375 0.5625 1.171875 0.5625q0.703125 0 1.203125 -0.59375q0.5 -0.59375 0.5 -1.84375q0 -1.1875 -0.484375 -1.765625q-0.484375 -0.59375 -1.171875 -0.59375q-0.671875 0 -1.1875 0.625q-0.515625 0.625 -0.515625 1.828125zm9.783199 2.3125q-0.59375 0.5 -1.140625 0.703125q-0.53125 0.203125 -1.15625 0.203125q-1.03125 0 -1.578125 -0.5q-0.546875 -0.5 -0.546875 -1.28125q0 -0.453125 0.203125 -0.828125q0.203125 -0.390625 0.546875 -0.609375q0.34375 -0.234375 0.765625 -0.34375q0.296875 -0.09375 0.9375 -0.171875q1.265625 -0.140625 1.875 -0.359375q0 -0.21875 0 -0.265625q0 -0.65625 -0.296875 -0.921875q-0.40625 -0.34375 -1.203125 -0.34375q-0.734375 0 -1.09375 0.265625q-0.359375 0.25 -0.53125 0.90625l-1.03125 -0.140625q0.140625 -0.65625 0.46875 -1.0625q0.328125 -0.40625 0.9375 -0.625q0.609375 -0.21875 1.40625 -0.21875q0.796875 0 1.296875 0.1875q0.5 0.1875 0.734375 0.46875q0.234375 0.28125 0.328125 0.71875q0.046875 0.265625 0.046875 0.96875l0 1.40625q0 1.46875 0.0625 1.859375q0.078125 0.390625 0.28125 0.75l-1.109375 0q-0.15625 -0.328125 -0.203125 -0.765625zm-0.09375 -2.359375q-0.578125 0.234375 -1.71875 0.40625q-0.65625 0.09375 -0.921875 0.21875q-0.265625 0.109375 -0.421875 0.328125q-0.140625 0.21875 -0.140625 0.5q0 0.421875 0.3125 0.703125q0.328125 0.28125 0.9375 0.28125q0.609375 0 1.078125 -0.265625q0.484375 -0.265625 0.703125 -0.734375q0.171875 -0.359375 0.171875 -1.046875l0 -0.390625zm6.767578 0.84375l1.03125 0.140625q-0.171875 1.0625 -0.875 1.671875q-0.703125 0.609375 -1.71875 0.609375q-1.28125 0 -2.0625 -0.828125q-0.765625 -0.84375 -0.765625 -2.40625q0 -1.0 0.328125 -1.75q0.34375 -0.765625 1.015625 -1.140625q0.6875 -0.375 1.5 -0.375q1.0 0 1.640625 0.515625q0.65625 0.5 0.84375 1.453125l-1.03125 0.15625q-0.140625 -0.625 -0.515625 -0.9375q-0.375 -0.328125 -0.90625 -0.328125q-0.796875 0 -1.296875 0.578125q-0.5 0.5625 -0.5 1.796875q0 1.265625 0.484375 1.828125q0.484375 0.5625 1.25 0.5625q0.625 0 1.03125 -0.375q0.421875 -0.375 0.546875 -1.171875zm4.234375 1.34375l0.15625 0.921875q-0.453125 0.09375 -0.796875 0.09375q-0.578125 0 -0.890625 -0.171875q-0.3125 -0.1875 -0.453125 -0.484375q-0.125 -0.296875 -0.125 -1.25l0 -3.578125l-0.765625 0l0 -0.8125l0.765625 0l0 -1.546875l1.046875 -0.625l0 2.171875l1.0625 0l0 0.8125l-1.0625 0l0 3.640625q0 0.453125 0.046875 0.578125q0.0625 0.125 0.1875 0.203125q0.125 0.078125 0.359375 0.078125q0.1875 0 0.46875 -0.03125zm3.9804688 -2.171875q0 -1.734375 0.953125 -2.5625q0.796875 -0.6875 1.953125 -0.6875q1.28125 0 2.09375 0.84375q0.828125 0.828125 0.828125 2.3125q0 1.203125 -0.359375 1.890625q-0.359375 0.6875 -1.0625 1.078125q-0.6875 0.375 -1.5 0.375q-1.296875 0 -2.109375 -0.828125q-0.796875 -0.84375 -0.796875 -2.421875zm1.078125 0q0 1.1875 0.515625 1.78125q0.53125 0.59375 1.3125 0.59375q0.796875 0 1.3125 -0.59375q0.515625 -0.59375 0.515625 -1.8125q0 -1.15625 -0.53125 -1.75q-0.515625 -0.59375 -1.296875 -0.59375q-0.78125 0 -1.3125 0.59375q-0.515625 0.578125 -0.515625 1.78125zm6.236328 3.109375l0 -5.40625l-0.9375 0l0 -0.8125l0.9375 0l0 -0.671875q0 -0.625 0.109375 -0.921875q0.15625 -0.421875 0.53125 -0.671875q0.390625 -0.25 1.078125 -0.25q0.453125 0 0.984375 0.109375l-0.15625 0.90625q-0.328125 -0.046875 -0.625 -0.046875q-0.484375 0 -0.6875 0.203125q-0.1875 0.203125 -0.1875 0.765625l0 0.578125l1.21875 0l0 0.8125l-1.21875 0l0 5.40625l-1.046875 0z" fill-rule="nonzero"/><path fill="#434343" d="m106.443214 204.41512l-1.890625 0l-0.75 -1.953125l-3.4375 0l-0.703125 1.953125l-1.84375 0l3.34375 -8.59375l1.84375 0l3.4375 8.59375zm-3.203125 -3.40625l-1.171875 -3.1875l-1.171875 3.1875l2.34375 0zm5.6816406 3.40625l-1.640625 0l0 -6.21875l1.53125 0l0 0.875q0.390625 -0.625 0.703125 -0.8125q0.3125 -0.203125 0.703125 -0.203125q0.5625 0 1.09375 0.3125l-0.515625 1.421875q-0.421875 -0.265625 -0.765625 -0.265625q-0.359375 0 -0.59375 0.203125q-0.234375 0.1875 -0.375 0.6875q-0.140625 0.484375 -0.140625 2.078125l0 1.921875zm5.951172 -6.21875l0 1.3125l-1.125 0l0 2.5q0 0.765625 0.03125 0.890625q0.03125 0.125 0.140625 0.21875q0.125 0.078125 0.28125 0.078125q0.234375 0 0.65625 -0.171875l0.140625 1.28125q-0.5625 0.25 -1.296875 0.25q-0.4375 0 -0.796875 -0.140625q-0.359375 -0.15625 -0.53125 -0.390625q-0.15625 -0.25 -0.234375 -0.640625q-0.046875 -0.296875 -0.046875 -1.171875l0 -2.703125l-0.75 0l0 -1.3125l0.75 0l0 -1.234375l1.65625 -0.96875l0 2.203125l1.125 0zm1.1367188 -0.84375l0 -1.53125l1.65625 0l0 1.53125l-1.65625 0zm0 7.0625l0 -6.21875l1.65625 0l0 6.21875l-1.65625 0zm2.6152344 -6.21875l0.921875 0l0 -0.46875q0 -0.796875 0.15625 -1.171875q0.171875 -0.390625 0.609375 -0.625q0.453125 -0.25 1.140625 -0.25q0.703125 0 1.375 0.203125l-0.21875 1.15625q-0.390625 -0.09375 -0.75 -0.09375q-0.359375 0 -0.515625 0.171875q-0.15625 0.15625 -0.15625 0.640625l0 0.4375l1.234375 0l0 1.296875l-1.234375 0l0 4.921875l-1.640625 0l0 -4.921875l-0.921875 0l0 -1.296875zm4.7148438 -0.84375l0 -1.53125l1.65625 0l0 1.53125l-1.65625 0zm0 7.0625l0 -6.21875l1.65625 0l0 6.21875l-1.65625 0zm8.755867 -4.390625l-1.609375 0.296875q-0.09375 -0.484375 -0.390625 -0.71875q-0.28125 -0.25 -0.734375 -0.25q-0.625 0 -1.0 0.421875q-0.359375 0.421875 -0.359375 1.421875q0 1.109375 0.375 1.5625q0.375 0.453125 1.0 0.453125q0.46875 0 0.765625 -0.265625q0.296875 -0.265625 0.421875 -0.921875l1.625 0.28125q-0.25 1.109375 -0.96875 1.6875q-0.71875 0.5625 -1.921875 0.5625q-1.3593826 0 -2.1718826 -0.859375q-0.8125 -0.859375 -0.8125 -2.390625q0 -1.53125 0.8125 -2.390625q0.8125 -0.859375 2.2031326 -0.859375q1.140625 0 1.8125 0.484375q0.671875 0.484375 0.953125 1.484375zm1.2519531 -2.671875l0 -1.53125l1.65625 0l0 1.53125l-1.65625 0zm0 7.0625l0 -6.21875l1.65625 0l0 6.21875l-1.65625 0zm4.5683594 -4.328125l-1.5 -0.265625q0.25 -0.90625 0.859375 -1.328125q0.625 -0.4375 1.84375 -0.4375q1.09375 0 1.625 0.265625q0.546875 0.25 0.765625 0.65625q0.21875 0.390625 0.21875 1.46875l-0.015625 1.921875q0 0.828125 0.078125 1.21875q0.078125 0.375 0.296875 0.828125l-1.625 0q-0.0625 -0.171875 -0.15625 -0.484375q-0.046875 -0.15625 -0.0625 -0.203125q-0.421875 0.421875 -0.90625 0.625q-0.46875 0.203125 -1.015625 0.203125q-0.96875 0 -1.53125 -0.515625q-0.546875 -0.53125 -0.546875 -1.328125q0 -0.53125 0.25 -0.9375q0.265625 -0.40625 0.71875 -0.625q0.453125 -0.234375 1.3125 -0.390625q1.140625 -0.21875 1.59375 -0.40625l0 -0.15625q0 -0.484375 -0.234375 -0.6875q-0.234375 -0.203125 -0.890625 -0.203125q-0.4375 0 -0.6875 0.171875q-0.234375 0.171875 -0.390625 0.609375zm2.203125 1.34375q-0.3125 0.09375 -1.0 0.25q-0.6875 0.140625 -0.90625 0.28125q-0.3125 0.234375 -0.3125 0.578125q0 0.34375 0.25 0.609375q0.265625 0.25 0.65625 0.25q0.453125 0 0.859375 -0.296875q0.296875 -0.21875 0.390625 -0.546875q0.0625 -0.203125 0.0625 -0.796875l0 -0.328125zm3.2363281 2.984375l0 -8.59375l1.65625 0l0 8.59375l-1.65625 0zm10.683594 -3.15625l0 -1.453125l3.734375 0l0 3.421875q-0.546875 0.53125 -1.578125 0.9375q-1.03125 0.390625 -2.09375 0.390625q-1.34375 0 -2.359375 -0.5625q-1.0 -0.5625 -1.5 -1.609375q-0.5 -1.0625 -0.5 -2.296875q0 -1.34375 0.5625 -2.375q0.5625 -1.046875 1.640625 -1.609375q0.828125 -0.421875 2.0625 -0.421875q1.59375 0 2.484375 0.671875q0.90625 0.671875 1.171875 1.84375l-1.71875 0.328125q-0.1875 -0.625 -0.6875 -0.984375q-0.5 -0.375 -1.25 -0.375q-1.140625 0 -1.8125 0.71875q-0.671875 0.71875 -0.671875 2.140625q0 1.53125 0.671875 2.296875q0.6875 0.75 1.796875 0.75q0.546875 0 1.09375 -0.203125q0.546875 -0.21875 0.9375 -0.515625l0 -1.09375l-1.984375 0zm8.927734 1.171875l1.640625 0.28125q-0.3125 0.90625 -1.0 1.375q-0.6875 0.46875 -1.703125 0.46875q-1.625 0 -2.40625 -1.0625q-0.625 -0.84375 -0.625 -2.140625q0 -1.546875 0.8125 -2.421875q0.8125 -0.875 2.046875 -0.875q1.390625 0 2.1875 0.921875q0.8125 0.90625 0.765625 2.796875l-4.125 0q0.03125 0.734375 0.40625 1.140625q0.375 0.40625 0.953125 0.40625q0.375 0 0.640625 -0.203125q0.265625 -0.21875 0.40625 -0.6875zm0.09375 -1.65625q-0.015625 -0.71875 -0.375 -1.09375q-0.34375 -0.375 -0.859375 -0.375q-0.53125 0 -0.890625 0.390625q-0.34375 0.40625 -0.34375 1.078125l2.46875 0zm8.626953 3.640625l-1.640625 0l0 -3.171875q0 -1.015625 -0.109375 -1.3125q-0.09375 -0.296875 -0.34375 -0.453125q-0.234375 -0.171875 -0.5625 -0.171875q-0.4375 0 -0.78125 0.234375q-0.328125 0.234375 -0.453125 0.625q-0.125 0.390625 -0.125 1.4375l0 2.8125l-1.65625 0l0 -6.21875l1.53125 0l0 0.90625q0.8125 -1.046875 2.0625 -1.046875q0.53125 0 0.984375 0.203125q0.453125 0.1875 0.6875 0.5q0.234375 0.296875 0.3125 0.6875q0.09375 0.375 0.09375 1.09375l0 3.875zm5.283203 -1.984375l1.640625 0.28125q-0.3125 0.90625 -1.0 1.375q-0.6875 0.46875 -1.703125 0.46875q-1.625 0 -2.40625 -1.0625q-0.625 -0.84375 -0.625 -2.140625q0 -1.546875 0.8125 -2.421875q0.8125 -0.875 2.046875 -0.875q1.390625 0 2.1875 0.921875q0.8125 0.90625 0.765625 2.796875l-4.125 0q0.03125 0.734375 0.40625 1.140625q0.375 0.40625 0.953125 0.40625q0.375 0 0.640625 -0.203125q0.265625 -0.21875 0.40625 -0.6875zm0.09375 -1.65625q-0.015625 -0.71875 -0.375 -1.09375q-0.34375 -0.375 -0.859375 -0.375q-0.53125 0 -0.890625 0.390625q-0.34375 0.40625 -0.34375 1.078125l2.46875 0zm4.548828 3.640625l-1.640625 0l0 -6.21875l1.53125 0l0 0.875q0.390625 -0.625 0.703125 -0.8125q0.3125 -0.203125 0.703125 -0.203125q0.5625 0 1.09375 0.3125l-0.515625 1.421875q-0.421875 -0.265625 -0.765625 -0.265625q-0.359375 0 -0.59375 0.203125q-0.234375 0.1875 -0.375 0.6875q-0.140625 0.484375 -0.140625 2.078125l0 1.921875zm4.326172 -4.328125l-1.5 -0.265625q0.25 -0.90625 0.859375 -1.328125q0.625 -0.4375 1.84375 -0.4375q1.09375 0 1.625 0.265625q0.546875 0.25 0.765625 0.65625q0.21875 0.390625 0.21875 1.46875l-0.015625 1.921875q0 0.828125 0.078125 1.21875q0.078125 0.375 0.296875 0.828125l-1.625 0q-0.0625 -0.171875 -0.15625 -0.484375q-0.046875 -0.15625 -0.0625 -0.203125q-0.421875 0.421875 -0.90625 0.625q-0.46875 0.203125 -1.015625 0.203125q-0.96875 0 -1.53125 -0.515625q-0.546875 -0.53125 -0.546875 -1.328125q0 -0.53125 0.25 -0.9375q0.265625 -0.40625 0.71875 -0.625q0.453125 -0.234375 1.3125 -0.390625q1.140625 -0.21875 1.59375 -0.40625l0 -0.15625q0 -0.484375 -0.234375 -0.6875q-0.234375 -0.203125 -0.890625 -0.203125q-0.4375 0 -0.6875 0.171875q-0.234375 0.171875 -0.390625 0.609375zm2.203125 1.34375q-0.3125 0.09375 -1.0 0.25q-0.6875 0.140625 -0.90625 0.28125q-0.3125 0.234375 -0.3125 0.578125q0 0.34375 0.25 0.609375q0.265625 0.25 0.65625 0.25q0.453125 0 0.859375 -0.296875q0.296875 -0.21875 0.390625 -0.546875q0.0625 -0.203125 0.0625 -0.796875l0 -0.328125zm3.2363281 2.984375l0 -8.59375l1.65625 0l0 8.59375l-1.65625 0zm6.6367188 0l0 -8.59375l1.734375 0l0 8.59375l-1.734375 0zm9.021484 0l-1.640625 0l0 -3.171875q0 -1.015625 -0.109375 -1.3125q-0.09375 -0.296875 -0.34375 -0.453125q-0.234375 -0.171875 -0.5625 -0.171875q-0.4375 0 -0.78125 0.234375q-0.328125 0.234375 -0.453125 0.625q-0.125 0.390625 -0.125 1.4375l0 2.8125l-1.65625 0l0 -6.21875l1.53125 0l0 0.90625q0.8125 -1.046875 2.0625 -1.046875q0.53125 0 0.984375 0.203125q0.453125 0.1875 0.6875 0.5q0.234375 0.296875 0.3125 0.6875q0.09375 0.375 0.09375 1.09375l0 3.875zm4.533203 -6.21875l0 1.3125l-1.125 0l0 2.5q0 0.765625 0.03125 0.890625q0.03125 0.125 0.140625 0.21875q0.125 0.078125 0.28125 0.078125q0.234375 0 0.65625 -0.171875l0.140625 1.28125q-0.5625 0.25 -1.296875 0.25q-0.4375 0 -0.796875 -0.140625q-0.359375 -0.15625 -0.53125 -0.390625q-0.15625 -0.25 -0.234375 -0.640625q-0.046875 -0.296875 -0.046875 -1.171875l0 -2.703125l-0.75 0l0 -1.3125l0.75 0l0 -1.234375l1.65625 -0.96875l0 2.203125l1.125 0zm4.7460938 4.234375l1.640625 0.28125q-0.3125 0.90625 -1.0 1.375q-0.6875 0.46875 -1.703125 0.46875q-1.625 0 -2.40625 -1.0625q-0.625 -0.84375 -0.625 -2.140625q0 -1.546875 0.8125 -2.421875q0.8125 -0.875 2.046875 -0.875q1.390625 0 2.1875 0.921875q0.8125 0.90625 0.765625 2.796875l-4.125 0q0.03125 0.734375 0.40625 1.140625q0.375 0.40625 0.953125 0.40625q0.375 0 0.640625 -0.203125q0.265625 -0.21875 0.40625 -0.6875zm0.09375 -1.65625q-0.015625 -0.71875 -0.375 -1.09375q-0.34375 -0.375 -0.859375 -0.375q-0.53125 0 -0.890625 0.390625q-0.34375 0.40625 -0.34375 1.078125l2.46875 0zm2.9707031 3.640625l0 -8.59375l1.65625 0l0 8.59375l-1.65625 0zm3.3339844 0l0 -8.59375l1.65625 0l0 8.59375l-1.65625 0zm3.3339844 -7.0625l0 -1.53125l1.65625 0l0 1.53125l-1.65625 0zm0 7.0625l0 -6.21875l1.65625 0l0 6.21875l-1.65625 0zm3.1777344 0.40625l1.890625 0.234375q0.046875 0.328125 0.21875 0.453125q0.234375 0.171875 0.734375 0.171875q0.640625 0 0.96875 -0.1875q0.21875 -0.140625 0.328125 -0.421875q0.078125 -0.203125 0.078125 -0.75l0 -0.921875q-0.75 1.015625 -1.875 1.015625q-1.25 0 -1.984375 -1.0625q-0.5625 -0.84375 -0.5625 -2.078125q0 -1.578125 0.75 -2.390625q0.75 -0.828125 1.875 -0.828125q1.140625 0 1.890625 1.015625l0 -0.875l1.546875 0l0 5.578125q0 1.109375 -0.1875 1.640625q-0.171875 0.546875 -0.5 0.859375q-0.328125 0.3125 -0.875 0.484375q-0.546875 0.1875 -1.390625 0.1875q-1.578125 0 -2.25 -0.546875q-0.65625 -0.546875 -0.65625 -1.375q0 -0.078125 0 -0.203125zm1.484375 -3.640625q0 0.984375 0.375 1.453125q0.390625 0.453125 0.953125 0.453125q0.59375 0 1.015625 -0.46875q0.421875 -0.484375 0.421875 -1.40625q0 -0.96875 -0.40625 -1.4375q-0.390625 -0.46875 -1.0 -0.46875q-0.59375 0 -0.984375 0.46875q-0.375 0.453125 -0.375 1.40625zm9.611328 1.25l1.640625 0.28125q-0.3125 0.90625 -1.0 1.375q-0.6875 0.46875 -1.703125 0.46875q-1.625 0 -2.40625 -1.0625q-0.625 -0.84375 -0.625 -2.140625q0 -1.546875 0.8125 -2.421875q0.8125 -0.875 2.046875 -0.875q1.390625 0 2.1875 0.921875q0.8125 0.90625 0.765625 2.796875l-4.125 0q0.03125 0.734375 0.40625 1.140625q0.375 0.40625 0.953125 0.40625q0.375 0 0.640625 -0.203125q0.265625 -0.21875 0.40625 -0.6875zm0.09375 -1.65625q-0.015625 -0.71875 -0.375 -1.09375q-0.34375 -0.375 -0.859375 -0.375q-0.53125 0 -0.890625 0.390625q-0.34375 0.40625 -0.34375 1.078125l2.46875 0zm8.626953 3.640625l-1.640625 0l0 -3.171875q0 -1.015625 -0.109375 -1.3125q-0.09375 -0.296875 -0.34375 -0.453125q-0.234375 -0.171875 -0.5625 -0.171875q-0.4375 0 -0.78125 0.234375q-0.328125 0.234375 -0.453125 0.625q-0.125 0.390625 -0.125 1.4375l0 2.8125l-1.65625 0l0 -6.21875l1.53125 0l0 0.90625q0.8125 -1.046875 2.0625 -1.046875q0.53125 0 0.984375 0.203125q0.453125 0.1875 0.6875 0.5q0.234375 0.296875 0.3125 0.6875q0.09375 0.375 0.09375 1.09375l0 3.875zm7.095688 -4.390625l-1.6093597 0.296875q-0.09375 -0.484375 -0.390625 -0.71875q-0.28125 -0.25 -0.734375 -0.25q-0.625 0 -1.0 0.421875q-0.359375 0.421875 -0.359375 1.421875q0 1.109375 0.375 1.5625q0.375 0.453125 1.0 0.453125q0.46875 0 0.765625 -0.265625q0.296875 -0.265625 0.421875 -0.921875l1.6249847 0.28125q-0.24998474 1.109375 -0.96873474 1.6875q-0.71875 0.5625 -1.921875 0.5625q-1.359375 0 -2.171875 -0.859375q-0.8125 -0.859375 -0.8125 -2.390625q0 -1.53125 0.8125 -2.390625q0.8125 -0.859375 2.203125 -0.859375q1.140625 0 1.8125 0.484375q0.671875 0.484375 0.95310974 1.484375zm4.861328 2.40625l1.640625 0.28125q-0.3125 0.90625 -1.0 1.375q-0.6875 0.46875 -1.703125 0.46875q-1.625 0 -2.40625 -1.0625q-0.625 -0.84375 -0.625 -2.140625q0 -1.546875 0.8125 -2.421875q0.8125 -0.875 2.046875 -0.875q1.390625 0 2.1875 0.921875q0.8125 0.90625 0.765625 2.796875l-4.125 0q0.03125 0.734375 0.40625 1.140625q0.375 0.40625 0.953125 0.40625q0.375 0 0.640625 -0.203125q0.265625 -0.21875 0.40625 -0.6875zm0.09375 -1.65625q-0.015625 -0.71875 -0.375 -1.09375q-0.34375 -0.375 -0.859375 -0.375q-0.53125 0 -0.890625 0.390625q-0.34375 0.40625 -0.34375 1.078125l2.46875 0z" fill-rule="nonzero"/></g></svg>