<svg version="1.1" viewBox="0.0 0.0 480.0 192.0" fill="none" stroke="none" stroke-linecap="square" stroke-miterlimit="10" xmlns:xlink="http://www.w3.org/1999/xlink" xmlns="http://www.w3.org/2000/svg"><clipPath id="g2c0f758c5d1_0_63.0"><path d="m0 0l480.0 0l0 192.0l-480.0 0l0 -192.0z" clip-rule="nonzero"/></clipPath><g clip-path="url(#g2c0f758c5d1_0_63.0)"><path fill="#ffffff" d="m0 0l480.0 0l0 192.0l-480.0 0z" fill-rule="evenodd"/><path fill="#000000" fill-opacity="0.0" d="m141.78046 135.54164l196.44095 0l0 26.236221l-196.44095 0z" fill-rule="evenodd"/><path fill="#202122" d="m187.99486 149.85725l1.5 -0.140625q0.125 0.75 0.53125 1.109375q0.421875 0.34375 1.125 0.34375q0.75 0 1.125 -0.3125q0.375 -0.3125 0.375 -0.734375q0 -0.265625 -0.15625 -0.453125q-0.15625 -0.1875 -0.5625 -0.328125q-0.265625 -0.09375 -1.234375 -0.34375q-1.234375 -0.296875 -1.734375 -0.75q-0.703125 -0.625 -0.703125 -1.53125q0 -0.59375 0.328125 -1.09375q0.34375 -0.515625 0.953125 -0.78125q0.625 -0.265625 1.5 -0.265625q1.4375 0 2.15625 0.640625q0.734375 0.625 0.78125 1.671875l-1.546875 0.078125q-0.09375 -0.59375 -0.421875 -0.84375q-0.328125 -0.265625 -0.984375 -0.265625q-0.671875 0 -1.046875 0.28125q-0.234375 0.171875 -0.234375 0.46875q0 0.265625 0.21875 0.46875q0.296875 0.234375 1.421875 0.5q1.125 0.265625 1.65625 0.5625q0.546875 0.28125 0.84375 0.78125q0.3125 0.484375 0.3125 1.203125q0 0.65625 -0.375 1.234375q-0.359375 0.5625 -1.03125 0.84375q-0.65625 0.28125 -1.65625 0.28125q-1.4375 0 -2.21875 -0.671875q-0.78125 -0.671875 -0.921875 -1.953125zm7.4982605 2.484375l0 -7.625l5.65625 0l0 1.28125l-4.125 0l0 1.703125l3.828125 0l0 1.28125l-3.828125 0l0 2.078125l4.265625 0l0 1.28125l-5.796875 0zm7.1076355 -7.625l3.046875 0q0.90625 0 1.34375 0.078125q0.453125 0.0625 0.796875 0.3125q0.359375 0.234375 0.59375 0.640625q0.234375 0.390625 0.234375 0.890625q0 0.53125 -0.296875 0.984375q-0.28125 0.4375 -0.78125 0.671875q0.703125 0.203125 1.078125 0.6875q0.375 0.484375 0.375 1.140625q0 0.53125 -0.25 1.03125q-0.234375 0.484375 -0.65625 0.78125q-0.421875 0.28125 -1.03125 0.359375q-0.390625 0.03125 -1.859375 0.046875l-2.59375 0l0 -7.625zm1.546875 1.265625l0 1.765625l1.0 0q0.90625 0 1.125 -0.03125q0.390625 -0.046875 0.609375 -0.265625q0.234375 -0.234375 0.234375 -0.59375q0 -0.359375 -0.203125 -0.578125q-0.1875 -0.21875 -0.578125 -0.265625q-0.21875 -0.03125 -1.3125 -0.03125l-0.875 0zm0 3.03125l0 2.046875l1.421875 0q0.828125 0 1.046875 -0.046875q0.34375 -0.0625 0.5625 -0.296875q0.21875 -0.25 0.21875 -0.65625q0 -0.34375 -0.171875 -0.578125q-0.15625 -0.25 -0.484375 -0.359375q-0.3125 -0.109375 -1.359375 -0.109375l-1.234375 0zm13.023727 3.328125l-1.671875 0l-0.671875 -1.734375l-3.046875 0l-0.625 1.734375l-1.640625 0l2.96875 -7.625l1.625 0l3.0625 7.625zm-2.84375 -3.015625l-1.046875 -2.828125l-1.03125 2.828125l2.078125 0zm3.2737274 0.53125l1.5 -0.140625q0.125 0.75 0.53125 1.109375q0.421875 0.34375 1.125 0.34375q0.75 0 1.125 -0.3125q0.375 -0.3125 0.375 -0.734375q0 -0.265625 -0.15625 -0.453125q-0.15625 -0.1875 -0.5625 -0.328125q-0.265625 -0.09375 -1.234375 -0.34375q-1.234375 -0.296875 -1.734375 -0.75q-0.703125 -0.625 -0.703125 -1.53125q0 -0.59375 0.328125 -1.09375q0.34375 -0.515625 0.953125 -0.78125q0.625 -0.265625 1.5 -0.265625q1.4375 0 2.15625 0.640625q0.734375 0.625 0.78125 1.671875l-1.546875 0.078125q-0.09375 -0.59375 -0.421875 -0.84375q-0.328125 -0.265625 -0.984375 -0.265625q-0.671875 0 -1.046875 0.28125q-0.234375 0.171875 -0.234375 0.46875q0 0.265625 0.21875 0.46875q0.296875 0.234375 1.421875 0.5q1.125 0.265625 1.65625 0.5625q0.546875 0.28125 0.84375 0.78125q0.3125 0.484375 0.3125 1.203125q0 0.65625 -0.375 1.234375q-0.359375 0.5625 -1.03125 0.84375q-0.65625 0.28125 -1.65625 0.28125q-1.4375 0 -2.21875 -0.671875q-0.78125 -0.671875 -0.921875 -1.953125zm9.2170105 2.484375l0 -6.34375l-2.265625 0l0 -1.28125l6.0625 0l0 1.28125l-2.265625 0l0 6.34375l-1.53125 0zm4.743637 0l0 -7.625l1.53125 0l0 7.625l-1.53125 0zm9.882523 0l-1.671875 0l-0.671875 -1.734375l-3.046875 0l-0.625 1.734375l-1.640625 0l2.96875 -7.625l1.625 0l3.0625 7.625zm-2.84375 -3.015625l-1.046875 -2.828125l-1.03125 2.828125l2.078125 0zm3.6799774 3.015625l0 -7.625l1.5 0l3.109375 5.09375l0 -5.09375l1.4375 0l0 7.625l-1.546875 0l-3.078125 -4.96875l0 4.96875l-1.421875 0zm10.25 -2.484375l1.5 -0.140625q0.125 0.75 0.53125 1.109375q0.421875 0.34375 1.125 0.34375q0.75 0 1.125 -0.3125q0.375 -0.3125 0.375 -0.734375q0 -0.265625 -0.15625 -0.453125q-0.15625 -0.1875 -0.5625 -0.328125q-0.265625 -0.09375 -1.234375 -0.34375q-1.234375 -0.296875 -1.734375 -0.75q-0.703125 -0.625 -0.703125 -1.53125q0 -0.59375 0.328125 -1.09375q0.34375 -0.515625 0.953125 -0.78125q0.625 -0.265625 1.5 -0.265625q1.4375 0 2.15625 0.640625q0.734375 0.625 0.78125 1.671875l-1.546875 0.078125q-0.09375 -0.59375 -0.421875 -0.84375q-0.328125 -0.265625 -0.984375 -0.265625q-0.671875 0 -1.046875 0.28125q-0.234375 0.171875 -0.234375 0.46875q0 0.265625 0.21875 0.46875q0.296875 0.234375 1.421875 0.5q1.125 0.265625 1.65625 0.5625q0.546875 0.28125 0.84375 0.78125q0.3125 0.484375 0.3125 1.203125q0 0.65625 -0.375 1.234375q-0.359375 0.5625 -1.03125 0.84375q-0.65625 0.28125 -1.65625 0.28125q-1.4375 0 -2.21875 -0.671875q-0.78125 -0.671875 -0.921875 -1.953125zm9.2170105 2.484375l0 -6.34375l-2.265625 0l0 -1.28125l6.0625 0l0 1.28125l-2.265625 0l0 6.34375l-1.53125 0zm4.774872 -7.625l1.546875 0l0 4.125q0 0.984375 0.046875 1.28125q0.109375 0.46875 0.46875 0.75q0.375 0.28125 1.015625 0.28125q0.65625 0 0.984375 -0.265625q0.34375 -0.265625 0.40625 -0.65625q0.078125 -0.390625 0.078125 -1.296875l0 -4.21875l1.53125 0l0 4.0q0 1.375 -0.125 1.953125q-0.125 0.5625 -0.46875 0.953125q-0.328125 0.390625 -0.890625 0.625q-0.5625 0.21875 -1.46875 0.21875q-1.09375 0 -1.65625 -0.25q-0.5625 -0.25 -0.890625 -0.65625q-0.328125 -0.40625 -0.421875 -0.84375q-0.15625 -0.65625 -0.15625 -1.9375l0 -4.0625zm7.6956177 0l2.8125 0q0.953125 0 1.453125 0.140625q0.671875 0.203125 1.15625 0.703125q0.484375 0.5 0.734375 1.234375q0.25 0.734375 0.25 1.8125q0 0.9375 -0.234375 1.609375q-0.296875 0.84375 -0.828125 1.359375q-0.390625 0.390625 -1.078125 0.609375q-0.515625 0.15625 -1.359375 0.15625l-2.90625 0l0 -7.625zm1.546875 1.28125l0 5.0625l1.140625 0q0.65625 0 0.9375 -0.078125q0.375 -0.09375 0.625 -0.3125q0.25 -0.234375 0.40625 -0.734375q0.15625 -0.515625 0.15625 -1.40625q0 -0.875 -0.15625 -1.34375q-0.15625 -0.484375 -0.4375 -0.75q-0.28125 -0.265625 -0.71875 -0.359375q-0.328125 -0.078125 -1.265625 -0.078125l-0.6875 0zm6.117462 6.34375l0 -7.625l1.53125 0l0 7.625l-1.53125 0zm2.6950378 -3.765625q0 -1.171875 0.34375 -1.953125q0.265625 -0.59375 0.703125 -1.046875q0.453125 -0.46875 1.0 -0.6875q0.703125 -0.3125 1.640625 -0.3125q1.6875 0 2.6875 1.046875q1.015625 1.046875 1.015625 2.921875q0 1.84375 -1.0 2.890625q-1.0 1.03125 -2.6875 1.03125q-1.703125 0 -2.703125 -1.03125q-1.0 -1.046875 -1.0 -2.859375zm1.578125 -0.046875q0 1.28125 0.59375 1.953125q0.609375 0.671875 1.53125 0.671875q0.921875 0 1.5 -0.65625q0.59375 -0.671875 0.59375 -2.0q0 -1.3125 -0.578125 -1.953125q-0.5625 -0.640625 -1.515625 -0.640625q-0.953125 0 -1.546875 0.65625q-0.578125 0.640625 -0.578125 1.96875z" fill-rule="nonzero"/><path fill="#000000" fill-opacity="0.0" d="m148.5836 114.700356l182.83464 0l0 34.33071l-182.83464 0z" fill-rule="evenodd"/><path fill="#4d5156" d="m191.16618 137.90036l0 -8.9375q-0.015625 0.015625 -0.3125 0.09375q-0.28125 0.0625 -0.640625 0.125q-0.359375 0.0625 -0.640625 0.125q-0.28125 0.046875 -0.28125 0.046875l0 -1.078125q0.21875 -0.046875 0.515625 -0.140625q0.296875 -0.09375 0.609375 -0.21875q0.328125 -0.140625 0.609375 -0.34375q0.28125 -0.203125 0.484375 -0.46875l1.078125 0l0 10.796875l-1.421875 0zm6.2098846 0.125q-0.921875 0 -1.515625 -0.40625q-0.59375 -0.421875 -0.890625 -1.140625q-0.28125 -0.71875 -0.28125 -1.640625l0 -4.65625q0 -0.9375 0.28125 -1.65625q0.28125 -0.71875 0.875 -1.109375q0.59375 -0.40625 1.53125 -0.40625q0.9375 0 1.515625 0.40625q0.59375 0.390625 0.875 1.109375q0.28125 0.71875 0.28125 1.65625l0 4.65625q0 0.9375 -0.296875 1.65625q-0.28125 0.71875 -0.875 1.125q-0.578125 0.40625 -1.5 0.40625zm0 -1.171875q0.5 0 0.765625 -0.296875q0.265625 -0.296875 0.359375 -0.75q0.09375 -0.46875 0.09375 -0.953125l0 -4.6875q0 -0.515625 -0.09375 -0.96875q-0.09375 -0.46875 -0.359375 -0.75q-0.25 -0.28125 -0.765625 -0.28125q-0.515625 0 -0.78125 0.28125q-0.265625 0.28125 -0.359375 0.75q-0.09375 0.453125 -0.09375 0.96875l0 4.6875q0 0.484375 0.09375 0.953125q0.09375 0.453125 0.359375 0.75q0.28125 0.296875 0.78125 0.296875zm6.8906097 1.171875q-0.921875 0 -1.515625 -0.40625q-0.59375 -0.421875 -0.890625 -1.140625q-0.28125 -0.71875 -0.28125 -1.640625l0 -4.65625q0 -0.9375 0.28125 -1.65625q0.28125 -0.71875 0.875 -1.109375q0.59375 -0.40625 1.53125 -0.40625q0.9375 0 1.515625 0.40625q0.59375 0.390625 0.875 1.109375q0.28125 0.71875 0.28125 1.65625l0 4.65625q0 0.9375 -0.296875 1.65625q-0.28125 0.71875 -0.875 1.125q-0.578125 0.40625 -1.5 0.40625zm0 -1.171875q0.5 0 0.765625 -0.296875q0.265625 -0.296875 0.359375 -0.75q0.09375 -0.46875 0.09375 -0.953125l0 -4.6875q0 -0.515625 -0.09375 -0.96875q-0.09375 -0.46875 -0.359375 -0.75q-0.25 -0.28125 -0.765625 -0.28125q-0.515625 0 -0.78125 0.28125q-0.265625 0.28125 -0.359375 0.75q-0.09375 0.453125 -0.09375 0.96875l0 4.6875q0 0.484375 0.09375 0.953125q0.09375 0.453125 0.359375 0.75q0.28125 0.296875 0.78125 0.296875zm7.2968597 1.046875l2.96875 -10.8125l1.21875 0l-2.953125 10.8125l-1.234375 0zm-1.28125 -5.0625q-1.109375 0 -1.609375 -0.671875q-0.484375 -0.6875 -0.484375 -1.84375l0 -0.828125q0 -1.1875 0.46875 -1.828125q0.484375 -0.640625 1.625 -0.640625q1.125 0 1.609375 0.609375q0.484375 0.609375 0.484375 1.78125l0 0.953125q0 1.15625 -0.5 1.8125q-0.484375 0.65625 -1.59375 0.65625zm0 -1.078125q0.34375 0 0.5 -0.1875q0.171875 -0.203125 0.234375 -0.515625q0.0625 -0.328125 0.0625 -0.6875l0 -0.953125q0 -0.53125 -0.140625 -0.921875q-0.140625 -0.390625 -0.65625 -0.390625q-0.53125 0 -0.671875 0.390625q-0.125 0.390625 -0.125 0.9375l0 0.953125q0 0.359375 0.0625 0.671875q0.0625 0.3125 0.21875 0.515625q0.171875 0.1875 0.515625 0.1875zm6.71875 6.203125q-1.09375 0 -1.59375 -0.671875q-0.484375 -0.671875 -0.484375 -1.828125l0 -0.84375q0 -1.171875 0.46875 -1.8125q0.484375 -0.65625 1.609375 -0.65625q1.15625 0 1.625 0.625q0.46875 0.625 0.46875 1.796875l0 0.921875q0 1.1875 -0.484375 1.828125q-0.484375 0.640625 -1.609375 0.640625zm0 -1.078125q0.359375 0 0.53125 -0.1875q0.171875 -0.203125 0.21875 -0.515625q0.0625 -0.328125 0.0625 -0.671875l0 -0.953125q0 -0.546875 -0.140625 -0.9375q-0.140625 -0.390625 -0.671875 -0.390625q-0.515625 0 -0.65625 0.40625q-0.125 0.390625 -0.125 0.9375l0 0.9375q0 0.359375 0.0625 0.671875q0.0625 0.3125 0.21875 0.515625q0.171875 0.1875 0.5 0.1875z" fill-rule="nonzero"/><path fill="#4d5156" d="m223.85765 137.90036l0 -11.875l1.65625 0l0 5.140625l3.046875 0l0 -5.140625l1.65625 0l0 11.875l-1.65625 0l0 -5.5625l-3.046875 0l0 5.5625l-1.65625 0zm9.315933 0.125q-0.5 0 -0.78125 -0.265625q-0.28125 -0.265625 -0.390625 -0.65625q-0.109375 -0.40625 -0.109375 -0.8125l0 -6.859375l1.5625 0l0 6.390625q0 0.453125 0.125 0.71875q0.140625 0.25 0.546875 0.25q0.265625 0 0.546875 -0.15625q0.296875 -0.15625 0.5625 -0.375l0 -6.828125l1.5625 0l0 8.46875l-1.5625 0l0 -0.828125q-0.40625 0.390625 -0.9375 0.671875q-0.515625 0.28125 -1.125 0.28125zm5.2300262 -0.125l0 -8.46875l1.453125 0l0 0.796875q0.421875 -0.484375 0.921875 -0.71875q0.515625 -0.234375 1.0625 -0.234375q0.46875 0 0.84375 0.234375q0.375 0.234375 0.53125 0.84375q0.453125 -0.5625 0.984375 -0.8125q0.546875 -0.265625 1.125 -0.265625q0.421875 0 0.75 0.203125q0.34375 0.203125 0.546875 0.640625q0.203125 0.421875 0.203125 1.125l0 6.65625l-1.4375 0l0 -6.546875q0 -0.625 -0.203125 -0.828125q-0.1875 -0.21875 -0.53125 -0.21875q-0.3125 0 -0.671875 0.1875q-0.34375 0.1875 -0.640625 0.5q0 0.0625 0 0.125q0 0.046875 0 0.125l0 6.65625l-1.4375 0l0 -6.546875q0 -0.625 -0.203125 -0.828125q-0.1875 -0.21875 -0.53125 -0.21875q-0.328125 0 -0.671875 0.1875q-0.34375 0.1875 -0.640625 0.5l0 6.90625l-1.453125 0zm11.231918 0.125q-0.5 0 -0.875 -0.28125q-0.375 -0.296875 -0.609375 -0.734375q-0.21875 -0.453125 -0.21875 -0.953125q0 -0.796875 0.265625 -1.328125q0.265625 -0.546875 0.71875 -0.921875q0.46875 -0.375 1.078125 -0.65625q0.609375 -0.28125 1.28125 -0.546875l0 -0.59375q0 -0.515625 -0.0625 -0.84375q-0.046875 -0.34375 -0.234375 -0.515625q-0.1875 -0.171875 -0.546875 -0.171875q-0.328125 0 -0.53125 0.15625q-0.1875 0.140625 -0.28125 0.421875q-0.078125 0.265625 -0.078125 0.625l0 0.421875l-1.5625 -0.046875q0.03125 -1.40625 0.640625 -2.078125q0.625 -0.671875 1.90625 -0.671875q1.265625 0 1.796875 0.703125q0.53125 0.6875 0.53125 1.984375l0 3.875q0 0.390625 0.015625 0.765625q0.015625 0.359375 0.046875 0.671875q0.046875 0.3125 0.078125 0.59375l-1.4375 0q-0.046875 -0.234375 -0.109375 -0.59375q-0.0625 -0.359375 -0.09375 -0.65625q-0.140625 0.5 -0.5625 0.9375q-0.421875 0.4375 -1.15625 0.4375zm0.625 -1.359375q0.234375 0 0.4375 -0.125q0.203125 -0.140625 0.359375 -0.296875q0.171875 -0.171875 0.21875 -0.28125l0 -2.40625q-0.359375 0.203125 -0.6875 0.421875q-0.3125 0.203125 -0.5625 0.4375q-0.234375 0.21875 -0.375 0.5q-0.140625 0.28125 -0.140625 0.65625q0 0.515625 0.1875 0.8125q0.1875 0.28125 0.5625 0.28125zm4.1038055 1.234375l0 -8.46875l1.5625 0l0 0.828125q0.42189026 -0.390625 0.93751526 -0.671875q0.515625 -0.28125 1.125 -0.28125q0.515625 0 0.78125 0.265625q0.28125 0.265625 0.390625 0.671875q0.109375 0.390625 0.109375 0.796875l0 6.859375l-1.5625 0l0 -6.40625q0 -0.453125 -0.140625 -0.703125q-0.125 -0.25 -0.546875 -0.25q-0.265625 0 -0.546875 0.15625q-0.28125 0.15625 -0.54689026 0.375l0 6.828125l-1.5625 0zm10.009171 0l0 -11.875l1.625 0l0 11.875l-1.625 0zm5.3691406 0.125q-1.0625 0 -1.59375 -0.78125q-0.53125 -0.796875 -0.53125 -2.671875l0 -1.640625q0 -0.96875 0.15625 -1.796875q0.171875 -0.828125 0.609375 -1.328125q0.453125 -0.5 1.328125 -0.5q0.421875 0 0.765625 0.203125q0.359375 0.1875 0.640625 0.46875l0 -3.953125l1.5625 0l0 11.875l-1.5625 0l0 -0.546875q-0.28125 0.296875 -0.609375 0.484375q-0.328125 0.1875 -0.765625 0.1875zm0.40625 -1.234375q0.21875 0 0.46875 -0.078125q0.25 -0.09375 0.5 -0.25l0 -5.546875q-0.21875 -0.15625 -0.46875 -0.265625q-0.234375 -0.109375 -0.53125 -0.109375q-0.546875 0 -0.734375 0.53125q-0.1875 0.515625 -0.1875 1.25l0 2.390625q0 0.578125 0.0625 1.0625q0.0625 0.46875 0.265625 0.75q0.203125 0.265625 0.625 0.265625zm6.4624634 1.234375q-1.0 0 -1.546875 -0.390625q-0.53125 -0.390625 -0.75 -1.140625q-0.21875 -0.765625 -0.21875 -1.859375l0 -1.9375q0 -1.125 0.21875 -1.875q0.21875 -0.75 0.765625 -1.125q0.5625 -0.390625 1.53125 -0.390625q1.0625 0 1.5625 0.453125q0.515625 0.4375 0.671875 1.265625q0.171875 0.828125 0.171875 1.984375l0 0.6875l-3.34375 0l0 1.703125q0 0.5 0.09375 0.828125q0.09375 0.328125 0.296875 0.484375q0.21875 0.140625 0.5625 0.140625q0.34375 0 0.53125 -0.15625q0.1875 -0.171875 0.25 -0.484375q0.0625 -0.328125 0.0625 -0.75l0 -0.515625l1.53125 0l0 0.328125q0 1.28125 -0.546875 2.015625q-0.546875 0.734375 -1.84375 0.734375zm-0.9375 -5.1875l1.796875 0l0 -0.75q0 -0.53125 -0.0625 -0.890625q-0.046875 -0.359375 -0.234375 -0.546875q-0.1875 -0.1875 -0.578125 -0.1875q-0.390625 0 -0.59375 0.1875q-0.1875 0.171875 -0.265625 0.59375q-0.0625 0.40625 -0.0625 1.140625l0 0.453125zm6.029663 5.1875q-0.5 0 -0.875 -0.28125q-0.375 -0.296875 -0.609375 -0.734375q-0.21875 -0.453125 -0.21875 -0.953125q0 -0.796875 0.265625 -1.328125q0.265625 -0.546875 0.71875 -0.921875q0.46875 -0.375 1.078125 -0.65625q0.609375 -0.28125 1.28125 -0.546875l0 -0.59375q0 -0.515625 -0.0625 -0.84375q-0.046875 -0.34375 -0.234375 -0.515625q-0.1875 -0.171875 -0.546875 -0.171875q-0.328125 0 -0.53125 0.15625q-0.1875 0.140625 -0.28125 0.421875q-0.078125 0.265625 -0.078125 0.625l0 0.421875l-1.5625 -0.046875q0.03125 -1.40625 0.640625 -2.078125q0.625 -0.671875 1.90625 -0.671875q1.265625 0 1.796875 0.703125q0.53125 0.6875 0.53125 1.984375l0 3.875q0 0.390625 0.015625 0.765625q0.015625 0.359375 0.046875 0.671875q0.046875 0.3125 0.078125 0.59375l-1.4375 0q-0.046875 -0.234375 -0.109375 -0.59375q-0.0625 -0.359375 -0.09375 -0.65625q-0.140625 0.5 -0.5625 0.9375q-0.421875 0.4375 -1.15625 0.4375zm0.625 -1.359375q0.234375 0 0.4375 -0.125q0.203125 -0.140625 0.359375 -0.296875q0.171875 -0.171875 0.21875 -0.28125l0 -2.40625q-0.359375 0.203125 -0.6875 0.421875q-0.3125 0.203125 -0.5625 0.4375q-0.234375 0.21875 -0.375 0.5q-0.140625 0.28125 -0.140625 0.65625q0 0.515625 0.1875 0.8125q0.1875 0.28125 0.5625 0.28125zm6.056946 1.359375q-1.03125 0 -1.671875 -0.65625q-0.625 -0.65625 -0.71875 -1.71875l1.3125 -0.40625q0.109375 0.8125 0.390625 1.21875q0.28125 0.390625 0.828125 0.390625q0.421875 0 0.640625 -0.234375q0.21875 -0.25 0.21875 -0.65625q0 -0.359375 -0.171875 -0.65625q-0.15625 -0.296875 -0.515625 -0.59375l-1.453125 -1.25q-0.4375 -0.390625 -0.734375 -0.859375q-0.296875 -0.46875 -0.296875 -1.203125q0 -0.6875 0.265625 -1.140625q0.265625 -0.46875 0.75 -0.703125q0.5 -0.25 1.15625 -0.25q1.0625 0 1.609375 0.65625q0.5625 0.65625 0.65625 1.578125l-1.109375 0.390625q-0.0625 -0.4375 -0.1875 -0.765625q-0.109375 -0.328125 -0.328125 -0.515625q-0.21875 -0.1875 -0.578125 -0.1875q-0.375 0 -0.609375 0.265625q-0.21875 0.25 -0.21875 0.609375q0 0.21875 0.09375 0.4375q0.09375 0.203125 0.328125 0.40625l1.5 1.375q0.296875 0.28125 0.5625 0.609375q0.28125 0.3125 0.453125 0.734375q0.171875 0.40625 0.171875 0.953125q0 0.71875 -0.296875 1.203125q-0.28125 0.484375 -0.8125 0.734375q-0.53125 0.234375 -1.234375 0.234375z" fill-rule="nonzero"/><path fill="#000000" fill-opacity="0.0" d="m189.03937 141.98163l101.921265 0.22047424" fill-rule="evenodd"/><path stroke="#44546a" stroke-width="1.0" stroke-linejoin="round" stroke-linecap="butt" d="m189.03937 141.98163l101.921265 0.22047424" fill-rule="evenodd"/><path fill="#000000" fill-opacity="0.0" d="m122.85156 46.06786l234.29922 0l0 36.12598l-234.29922 0z" fill-rule="evenodd"/><path fill="#000000" d="m138.03906 64.11161l2.96875 0.453125q-0.859375 2.40625 -2.609375 3.6875q-1.734375 1.265625 -4.0625 1.265625q-2.625 0 -4.109375 -1.578125q-1.484375 -1.578125 -1.484375 -4.593754q0 -2.4375 0.984375 -4.453125q1.0 -2.03125 2.75 -3.109375q1.765625 -1.078125 3.84375 -1.078125q2.3125 0 3.75 1.25q1.4375 1.234375 1.6875 3.390625l-2.8125 0.265625q-0.234375 -1.25 -0.90625 -1.796875q-0.671875 -0.5625 -1.78125 -0.5625q-1.21875 0 -2.28125 0.75q-1.0625 0.734375 -1.703125 2.3125q-0.625 1.5625 -0.625 3.140625q0 1.7187538 0.828125 2.6562538q0.828125 0.9375 2.046875 0.9375q1.140625 0 2.09375 -0.734375q0.953125 -0.75 1.421875 -2.203125zm6.0683594 -5.218754l2.625 0l-0.421875 2.015625q1.453125 -2.25 3.171875 -2.25q0.609375 0 1.296875 0.296875l-1.078125 2.296875q-0.375 -0.140625 -0.8125 -0.140625q-0.71875 0 -1.46875 0.546875q-0.75 0.546875 -1.171875 1.46875q-0.40625 0.9062538 -0.828125 2.8906288l-0.671875 3.25l-2.8125 0l2.171875 -10.375004zm6.189453 6.062504q0 -2.8750038 1.625 -4.578129q1.625 -1.71875 4.265625 -1.71875q2.296875 0 3.578125 1.265625q1.296875 1.25 1.296875 3.390625q0 2.5312538 -1.609375 4.375004q-1.609375 1.828125 -4.3125 1.828125q-1.46875 0 -2.609375 -0.578125q-1.125 -0.59375 -1.6875 -1.671875q-0.546875 -1.078125 -0.546875 -2.3125zm7.984375 -2.0000038q0 -1.0 -0.59375 -1.59375q-0.578125 -0.59375 -1.484375 -0.59375q-0.90625 0 -1.609375 0.5625q-0.703125 0.546875 -1.09375 1.625q-0.390625 1.0625038 -0.390625 1.9687538q0 1.109375 0.59375 1.765625q0.609375 0.65625 1.53125 0.65625q1.15625 0 1.9375 -0.984375q1.109375 -1.40625 1.109375 -3.4062538zm14.654297 6.312504l-2.640625 0l-0.5 -6.609379l-3.171875 6.609379l-2.59375 0l-1.296875 -10.375004l2.484375 0l0.734375 6.953129l3.21875 -6.953129l2.5625 0l0.34375 6.953129l3.21875 -6.953129l2.8125 0l-5.171875 10.375004zm14.291016 0l-2.65625 0l0.234375 -1.125q-0.75 0.734375 -1.5 1.0625q-0.734375 0.3125 -1.65625 0.3125q-1.609375 0 -2.609375 -1.09375q-1.0 -1.109375 -1.0 -3.265625q0 -2.4843788 1.40625 -4.484379q1.40625 -2.015625 3.71875 -2.015625q2.09375 0 3.125 1.65625l1.125 -5.359375l2.8125 0l-3.0 14.312504zm-6.46875 -4.21875q0 1.109375 0.5625 1.734375q0.5625 0.625 1.375 0.625q0.765625 0 1.421875 -0.515625q0.671875 -0.53125 1.0625 -1.59375q0.390625 -1.078125 0.390625 -2.0625038q0 -1.125 -0.609375 -1.8125q-0.59375 -0.703125 -1.390625 -0.703125q-1.234375 0 -2.03125 1.375q-0.78125 1.359375 -0.78125 2.9531288zm8.748047 1.3125l2.71875 -0.421875q0.359375 0.859375 0.890625 1.21875q0.546875 0.34375 1.46875 0.34375q0.953125 0 1.53125 -0.421875q0.40625 -0.296875 0.40625 -0.71875q0 -0.28125 -0.203125 -0.5q-0.21875 -0.21875 -1.171875 -0.53125q-2.53125 -0.84375 -3.140625 -1.328125q-0.9375 -0.7656288 -0.9375 -1.9843788q0 -1.234375 0.90625 -2.125q1.28125 -1.234375 3.796875 -1.234375q2.015625 0 3.03125 0.734375q1.03125 0.71875 1.296875 1.96875l-2.578125 0.453125q-0.203125 -0.5625 -0.671875 -0.84375q-0.625 -0.390625 -1.5 -0.390625q-0.875 0 -1.265625 0.296875q-0.390625 0.296875 -0.390625 0.671875q0 0.390625 0.390625 0.640625q0.25 0.15625 1.578125 0.546875q2.046875 0.609375 2.75 1.171875q0.96875 0.8125038 0.96875 1.9531288q0 1.484375 -1.25 2.578125q-1.234375 1.078125 -3.484375 1.078125q-2.25 0 -3.484375 -0.828125q-1.21875 -0.828125 -1.65625 -2.328125zm11.904297 -1.40625q0 -2.8750038 1.625 -4.578129q1.625 -1.71875 4.265625 -1.71875q2.296875 0 3.578125 1.265625q1.296875 1.25 1.296875 3.390625q0 2.5312538 -1.609375 4.375004q-1.609375 1.828125 -4.3125 1.828125q-1.46875 0 -2.609375 -0.578125q-1.125 -0.59375 -1.6875 -1.671875q-0.546875 -1.078125 -0.546875 -2.3125zm7.984375 -2.0000038q0 -1.0 -0.59375 -1.59375q-0.578125 -0.59375 -1.484375 -0.59375q-0.90625 0 -1.609375 0.5625q-0.703125 0.546875 -1.09375 1.625q-0.390625 1.0625038 -0.390625 1.9687538q0 1.109375 0.59375 1.765625q0.609375 0.65625 1.53125 0.65625q1.15625 0 1.9375 -0.984375q1.109375 -1.40625 1.109375 -3.4062538zm5.966797 -4.0625l2.796875 0l-1.28125 6.140629q-0.234375 1.109375 -0.234375 1.375q0 0.453125 0.328125 0.78125q0.34375 0.3125 0.859375 0.3125q0.375 0 0.734375 -0.140625q0.359375 -0.140625 0.734375 -0.421875q0.390625 -0.296875 0.6875 -0.65625q0.296875 -0.375 0.5625 -0.984375q0.1875 -0.453125 0.40625 -1.4687538l1.03125 -4.9375l2.8125 0l-2.171875 10.375004l-2.625 0l0.296875 -1.40625q-1.71875 1.65625 -3.734375 1.65625q-1.28125 0 -2.015625 -0.734375q-0.734375 -0.734375 -0.734375 -1.96875q0 -0.53125 0.328125 -2.140625l1.21875 -5.781254zm12.076172 0l2.625 0l-0.421875 2.015625q1.453125 -2.25 3.171875 -2.25q0.609375 0 1.296875 0.296875l-1.078125 2.296875q-0.375 -0.140625 -0.8125 -0.140625q-0.71875 0 -1.46875 0.546875q-0.75 0.546875 -1.171875 1.46875q-0.40625 0.9062538 -0.828125 2.8906288l-0.671875 3.25l-2.8125 0l2.171875 -10.375004zm12.798828 6.468754l2.734375 0.4375q-0.671875 1.8125 -2.0 2.765625q-1.3125 0.953125 -3.046875 0.953125q-1.984375 0 -3.15625 -1.1875q-1.15625 -1.1875 -1.15625 -3.25q0 -1.6875038 0.703125 -3.1875038q0.703125 -1.515625 2.109375 -2.375q1.421875 -0.859375 3.109375 -0.859375q1.84375 0 2.9375 0.953125q1.09375 0.953125 1.234375 2.515625l-2.671875 0.28125q-0.09375 -0.859375 -0.53125 -1.265625q-0.4375 -0.421875 -1.140625 -0.421875q-0.8125 0 -1.515625 0.609375q-0.703125 0.609375 -1.078125 1.8125q-0.375 1.2031288 -0.375 2.2500038q0 0.921875 0.453125 1.421875q0.453125 0.5 1.125 0.5q0.671875 0 1.296875 -0.484375q0.625 -0.5 0.96875 -1.46875zm7.091797 -10.406254l2.796875 0l-0.53125 2.53125l-2.796875 0l0.53125 -2.53125zm-0.828125 3.9375l2.796875 0l-2.15625 10.375004l-2.8125 0l2.171875 -10.375004zm5.6035156 0l2.65625 0l-0.28125 1.34375q1.0 -0.859375 1.859375 -1.21875q0.859375 -0.359375 1.828125 -0.359375q1.28125 0 2.015625 0.734375q0.734375 0.71875 0.734375 1.9375q0 0.546875 -0.328125 2.0625l-1.21875 5.875004l-2.796875 0l1.234375 -5.890629q0.265625 -1.3125 0.265625 -1.578125q0 -0.53125 -0.328125 -0.828125q-0.3125 -0.3125 -0.875 -0.3125q-0.609375 0 -1.359375 0.515625q-0.75 0.515625 -1.1875 1.359375q-0.3125 0.609375 -0.703125 2.4687538l-0.890625 4.265625l-2.796875 0l2.171875 -10.375004zm9.857422 10.921879l2.953125 0.4375q0 0.4375 0.140625 0.671875q0.15625 0.234375 0.484375 0.390625q0.328125 0.15625 0.890625 0.15625q0.890625 0 1.421875 -0.34375q0.40625 -0.28125 0.65625 -0.875q0.15625 -0.390625 0.40625 -1.671875l0.09375 -0.484375q-1.453125 1.21875 -3.0 1.21875q-1.53125 0 -2.515625 -1.078125q-0.96875 -1.078125 -0.96875 -3.15625q0 -1.8125038 0.65625 -3.3281288q0.671875 -1.53125 1.875 -2.3125q1.203125 -0.78125 2.453125 -0.78125q1.03125 0 1.890625 0.546875q0.859375 0.546875 1.34375 1.53125l0.390625 -1.84375l2.625 0l-1.796875 8.640629q-0.4375 2.09375 -0.75 2.96875q-0.296875 0.890625 -0.6875 1.421875q-0.390625 0.53125 -0.984375 0.875q-0.59375 0.359375 -1.40625 0.515625q-0.8125 0.15625 -1.765625 0.15625q-2.1875 0 -3.3125 -0.75q-1.125 -0.75 -1.125 -2.5q0 -0.1875 0.03125 -0.40625zm3.296875 -5.015625q0 1.1875 0.53125 1.8125q0.53125 0.609375 1.34375 0.609375q0.71875 0 1.40625 -0.546875q0.703125 -0.5625 1.0625 -1.578125q0.359375 -1.03125 0.359375 -1.9843788q0 -1.109375 -0.59375 -1.78125q-0.59375 -0.671875 -1.375 -0.671875q-0.75 0 -1.390625 0.59375q-0.625 0.59375 -1.03125 1.828125q-0.3125 0.9687538 -0.3125 1.7187538zm24.507812 -1.9218788l-5.53125 0l-1.34375 6.390629l-2.9375 0l3.0 -14.312504l2.9375 0l-1.15625 5.515625l5.53125 0l1.171875 -5.515625l2.9375 0l-2.984375 14.312504l-2.953125 0l1.328125 -6.390629zm6.7089844 -3.984375l2.796875 0l-1.28125 6.140629q-0.234375 1.109375 -0.234375 1.375q0 0.453125 0.328125 0.78125q0.34375 0.3125 0.859375 0.3125q0.375 0 0.734375 -0.140625q0.359375 -0.140625 0.734375 -0.421875q0.390625 -0.296875 0.6875 -0.65625q0.296875 -0.375 0.5625 -0.984375q0.1875 -0.453125 0.40625 -1.4687538l1.03125 -4.9375l2.8125 0l-2.171875 10.375004l-2.625 0l0.296875 -1.40625q-1.71875 1.65625 -3.734375 1.65625q-1.28125 0 -2.015625 -0.734375q-0.734375 -0.734375 -0.734375 -1.96875q0 -0.53125 0.328125 -2.140625l1.21875 -5.781254zm12.138672 0l2.640625 0l-0.265625 1.265625q1.546875 -1.5 3.25 -1.5q1.171875 0 1.796875 0.484375q0.640625 0.484375 0.8125 1.34375q0.546875 -0.78125 1.546875 -1.296875q1.0 -0.53125 2.09375 -0.53125q1.234375 0 1.921875 0.671875q0.703125 0.65625 0.703125 1.75q0 0.53125 -0.28125 1.84375l-1.328125 6.343754l-2.796875 0l1.328125 -6.343754q0.25 -1.1875 0.25 -1.34375q0 -0.421875 -0.265625 -0.671875q-0.25 -0.25 -0.78125 -0.25q-1.03125 0 -1.859375 1.09375q-0.59375 0.796875 -1.015625 2.8125038l-0.984375 4.703125l-2.796875 0l1.296875 -6.265629q0.234375 -1.09375 0.234375 -1.40625q0 -0.421875 -0.28125 -0.671875q-0.28125 -0.265625 -0.765625 -0.265625q-0.46875 0 -0.953125 0.28125q-0.484375 0.265625 -0.859375 0.75q-0.359375 0.46875 -0.625 1.21875q-0.109375 0.359375 -0.375 1.5937538l-1.0 4.765625l-2.796875 0l2.15625 -10.375004zm19.658203 2.9375l-2.734375 -0.234375q0.46875 -1.375 1.640625 -2.15625q1.171875 -0.78125 3.09375 -0.78125q2.0 0 2.953125 0.8125q0.96875 0.796875 0.96875 1.953125q0 0.46875 -0.09375 1.0q-0.078125 0.53125 -0.578125 2.7656288q-0.40625 1.859375 -0.40625 2.609375q0 0.65625 0.234375 1.46875l-2.734375 0q-0.15625 -0.5625 -0.203125 -1.171875q-0.609375 0.6875 -1.421875 1.0625q-0.796875 0.359375 -1.59375 0.359375q-1.296875 0 -2.140625 -0.84375q-0.828125 -0.859375 -0.828125 -2.1875q0 -1.484375 0.921875 -2.359375q0.921875 -0.8906288 3.296875 -1.0781288q2.0 -0.171875 2.671875 -0.40625q0.171875 -0.578125 0.171875 -0.9375q0 -0.453125 -0.359375 -0.75q-0.359375 -0.296875 -1.078125 -0.296875q-0.75 0 -1.1875 0.3125q-0.4375 0.296875 -0.59375 0.859375zm2.671875 2.6093788q-0.25 0.0625 -0.671875 0.125q-2.109375 0.25 -2.75 0.734375q-0.46875 0.359375 -0.46875 0.953125q0 0.484375 0.34375 0.828125q0.359375 0.328125 0.9375 0.328125q0.640625 0 1.203125 -0.296875q0.5625 -0.3125 0.828125 -0.796875q0.28125 -0.484375 0.5 -1.515625l0.078125 -0.359375zm6.716797 -5.546879l2.65625 0l-0.28125 1.34375q1.0 -0.859375 1.859375 -1.21875q0.859375 -0.359375 1.828125 -0.359375q1.28125 0 2.015625 0.734375q0.734375 0.71875 0.734375 1.9375q0 0.546875 -0.328125 2.0625l-1.21875 5.875004l-2.796875 0l1.234375 -5.890629q0.265625 -1.3125 0.265625 -1.578125q0 -0.53125 -0.328125 -0.828125q-0.3125 -0.3125 -0.875 -0.3125q-0.609375 0 -1.359375 0.515625q-0.75 0.515625 -1.1875 1.359375q-0.3125 0.609375 -0.703125 2.4687538l-0.890625 4.265625l-2.796875 0l2.171875 -10.375004z" fill-rule="nonzero"/><path fill="#000000" d="m127.53906 93.26785l3.0 -14.3125l2.9375 0l-2.984375 14.3125l-2.953125 0zm7.8847656 -10.375l2.65625 0l-0.28125 1.34375q1.0 -0.859375 1.859375 -1.21875q0.859375 -0.359375 1.828125 -0.359375q1.28125 0 2.015625 0.734375q0.734375 0.71875 0.734375 1.9375q0 0.546875 -0.328125 2.0625l-1.21875 5.875l-2.796875 0l1.234375 -5.890625q0.265625 -1.3125 0.265625 -1.578125q0 -0.53125 -0.328125 -0.828125q-0.3125 -0.3125 -0.875 -0.3125q-0.609375 0 -1.359375 0.515625q-0.75 0.515625 -1.1875 1.359375q-0.3125 0.609375 -0.703125 2.46875l-0.890625 4.265625l-2.796875 0l2.171875 -10.375zm10.701172 2.078125l0.4375 -2.078125l1.359375 0l0.34375 -1.65625l3.21875 -1.9375l-0.75 3.59375l1.703125 0l-0.421875 2.078125l-1.71875 0l-0.921875 4.34375q-0.234375 1.1875 -0.234375 1.359375q0 0.3125 0.203125 0.5q0.203125 0.171875 0.734375 0.171875q0.1875 0 0.9375 -0.0625l-0.4375 2.078125q-0.734375 0.15625 -1.484375 0.15625q-1.484375 0 -2.171875 -0.578125q-0.671875 -0.578125 -0.671875 -1.59375q0 -0.46875 0.375 -2.203125l0.859375 -4.171875l-1.359375 0zm16.066406 3.984375l-7.03125 0q-0.015625 0.15625 -0.015625 0.25q0 1.03125 0.59375 1.671875q0.59375 0.625 1.4375 0.625q1.390625 0 2.171875 -1.4375l2.515625 0.421875q-0.734375 1.515625 -1.96875 2.28125q-1.21875 0.75 -2.734375 0.75q-2.09375 0 -3.40625 -1.328125q-1.3125 -1.328125 -1.3125 -3.5q0 -2.125 1.1875 -3.796875q1.609375 -2.234375 4.59375 -2.234375q1.90625 0 3.03125 1.171875q1.125 1.171875 1.125 3.296875q0 1.015625 -0.1875 1.828125zm-2.375 -1.71875q0.015625 -0.1875 0.015625 -0.28125q0 -1.15625 -0.515625 -1.71875q-0.515625 -0.578125 -1.390625 -0.578125q-0.875 0 -1.5625 0.65625q-0.6875 0.640625 -0.921875 1.921875l4.375 0zm3.3730469 6.03125l3.0 -14.3125l2.796875 0l-3.0 14.3125l-2.796875 0zm5.5566406 0l3.0 -14.3125l2.796875 0l-3.0 14.3125l-2.796875 0zm8.572266 -14.3125l2.796875 0l-0.53125 2.53125l-2.796875 0l0.53125 -2.53125zm-0.828125 3.9375l2.796875 0l-2.15625 10.375l-2.8125 0l2.171875 -10.375zm3.2441406 10.921875l2.953125 0.4375q0 0.4375 0.140625 0.671875q0.15625 0.234375 0.484375 0.390625q0.328125 0.15625 0.890625 0.15625q0.890625 0 1.421875 -0.34375q0.40625 -0.28125 0.65625 -0.875q0.15625 -0.390625 0.40625 -1.671875l0.09375 -0.484375q-1.453125 1.21875 -3.0 1.21875q-1.53125 0 -2.515625 -1.078125q-0.96875 -1.078125 -0.96875 -3.15625q0 -1.8125 0.65625 -3.328125q0.671875 -1.53125 1.875 -2.3125q1.203125 -0.78125 2.453125 -0.78125q1.03125 0 1.890625 0.546875q0.859375 0.546875 1.34375 1.53125l0.390625 -1.84375l2.625 0l-1.796875 8.640625q-0.4375 2.09375 -0.75 2.96875q-0.296875 0.890625 -0.6875 1.421875q-0.390625 0.53125 -0.984375 0.875q-0.59375 0.359375 -1.40625 0.515625q-0.8125 0.15625 -1.765625 0.15625q-2.1875 0 -3.3125 -0.75q-1.125 -0.75 -1.125 -2.5q0 -0.1875 0.03125 -0.40625zm3.296875 -5.015625q0 1.1875 0.53125 1.8125q0.53125 0.609375 1.34375 0.609375q0.71875 0 1.40625 -0.546875q0.703125 -0.5625 1.0625 -1.578125q0.359375 -1.03125 0.359375 -1.984375q0 -1.109375 -0.59375 -1.78125q-0.59375 -0.671875 -1.375 -0.671875q-0.75 0 -1.390625 0.59375q-0.625 0.59375 -1.03125 1.828125q-0.3125 0.96875 -0.3125 1.71875zm19.169922 0.15625l-7.03125 0q-0.015625 0.15625 -0.015625 0.25q0 1.03125 0.59375 1.671875q0.59375 0.625 1.4375 0.625q1.390625 0 2.171875 -1.4375l2.515625 0.421875q-0.734375 1.515625 -1.96875 2.28125q-1.21875 0.75 -2.734375 0.75q-2.09375 0 -3.40625 -1.328125q-1.3125 -1.328125 -1.3125 -3.5q0 -2.125 1.1875 -3.796875q1.609375 -2.234375 4.59375 -2.234375q1.90625 0 3.03125 1.171875q1.125 1.171875 1.125 3.296875q0 1.015625 -0.1875 1.828125zm-2.375 -1.71875q0.015625 -0.1875 0.015625 -0.28125q0 -1.15625 -0.515625 -1.71875q-0.515625 -0.578125 -1.390625 -0.578125q-0.875 0 -1.5625 0.65625q-0.6875 0.640625 -0.921875 1.921875l4.375 0zm5.607422 -4.34375l2.65625 0l-0.28125 1.34375q1.0 -0.859375 1.859375 -1.21875q0.859375 -0.359375 1.828125 -0.359375q1.28125 0 2.015625 0.734375q0.734375 0.71875 0.734375 1.9375q0 0.546875 -0.328125 2.0625l-1.21875 5.875l-2.796875 0l1.234375 -5.890625q0.265625 -1.3125 0.265625 -1.578125q0 -0.53125 -0.328125 -0.828125q-0.3125 -0.3125 -0.875 -0.3125q-0.609375 0 -1.359375 0.515625q-0.75 0.515625 -1.1875 1.359375q-0.3125 0.609375 -0.703125 2.46875l-0.890625 4.265625l-2.796875 0l2.171875 -10.375zm17.029297 6.46875l2.734375 0.4375q-0.671875 1.8125 -2.0 2.765625q-1.3125 0.953125 -3.046875 0.953125q-1.984375 0 -3.15625 -1.1875q-1.15625 -1.1875 -1.15625 -3.25q0 -1.6875 0.703125 -3.1875q0.703125 -1.515625 2.109375 -2.375q1.421875 -0.859375 3.109375 -0.859375q1.84375 0 2.9375 0.953125q1.09375 0.953125 1.234375 2.515625l-2.671875 0.28125q-0.09375 -0.859375 -0.53125 -1.265625q-0.4375 -0.421875 -1.140625 -0.421875q-0.8125 0 -1.515625 0.609375q-0.703125 0.609375 -1.078125 1.8125q-0.375 1.203125 -0.375 2.25q0 0.921875 0.453125 1.421875q0.453125 0.5 1.125 0.5q0.671875 0 1.296875 -0.484375q0.625 -0.5 0.96875 -1.46875zm14.201172 -0.40625l-7.03125 0q-0.015625 0.15625 -0.015625 0.25q0 1.03125 0.59375 1.671875q0.59375 0.625 1.4375 0.625q1.390625 0 2.171875 -1.4375l2.515625 0.421875q-0.734375 1.515625 -1.96875 2.28125q-1.21875 0.75 -2.734375 0.75q-2.09375 0 -3.40625 -1.328125q-1.3125 -1.328125 -1.3125 -3.5q0 -2.125 1.1875 -3.796875q1.609375 -2.234375 4.59375 -2.234375q1.90625 0 3.03125 1.171875q1.125 1.171875 1.125 3.296875q0 1.015625 -0.1875 1.828125zm-2.375 -1.71875q0.015625 -0.1875 0.015625 -0.28125q0 -1.15625 -0.515625 -1.71875q-0.515625 -0.578125 -1.390625 -0.578125q-0.875 0 -1.5625 0.65625q-0.6875 0.640625 -0.921875 1.921875l4.375 0zm15.1953125 6.03125l-2.9375 0l2.5 -11.921875l-4.203125 0l0.5 -2.390625l11.28125 0l-0.5 2.390625l-4.140625 0l-2.5 11.921875zm5.6464844 -4.3125q0 -2.875 1.625 -4.578125q1.625 -1.71875 4.265625 -1.71875q2.296875 0 3.578125 1.265625q1.296875 1.25 1.296875 3.390625q0 2.53125 -1.609375 4.375q-1.609375 1.828125 -4.3125 1.828125q-1.46875 0 -2.609375 -0.578125q-1.125 -0.59375 -1.6875 -1.671875q-0.546875 -1.078125 -0.546875 -2.3125zm7.984375 -2.0q0 -1.0 -0.59375 -1.59375q-0.578125 -0.59375 -1.484375 -0.59375q-0.90625 0 -1.609375 0.5625q-0.703125 0.546875 -1.09375 1.625q-0.390625 1.0625 -0.390625 1.96875q0 1.109375 0.59375 1.765625q0.609375 0.65625 1.53125 0.65625q1.15625 0 1.9375 -0.984375q1.109375 -1.40625 1.109375 -3.40625zm9.3515625 6.3125l3.0 -14.3125l10.015625 0l-0.5 2.390625l-7.078125 0l-0.71875 3.4375l6.9375 0l-0.5 2.390625l-6.9375 0l-1.265625 6.09375l-2.953125 0zm16.185547 -7.4375l-2.734375 -0.234375q0.46875 -1.375 1.640625 -2.15625q1.171875 -0.78125 3.09375 -0.78125q2.0 0 2.953125 0.8125q0.96875 0.796875 0.96875 1.953125q0 0.46875 -0.09375 1.0q-0.078125 0.53125 -0.578125 2.765625q-0.40625 1.859375 -0.40625 2.609375q0 0.65625 0.234375 1.46875l-2.734375 0q-0.15625 -0.5625 -0.203125 -1.171875q-0.609375 0.6875 -1.421875 1.0625q-0.796875 0.359375 -1.59375 0.359375q-1.296875 0 -2.140625 -0.84375q-0.828125 -0.859375 -0.828125 -2.1875q0 -1.484375 0.921875 -2.359375q0.921875 -0.890625 3.296875 -1.078125q2.0 -0.171875 2.671875 -0.40625q0.171875 -0.578125 0.171875 -0.9375q0 -0.453125 -0.359375 -0.75q-0.359375 -0.296875 -1.078125 -0.296875q-0.75 0 -1.1875 0.3125q-0.4375 0.296875 -0.59375 0.859375zm2.671875 2.609375q-0.25 0.0625 -0.671875 0.125q-2.109375 0.25 -2.75 0.734375q-0.46875 0.359375 -0.46875 0.953125q0 0.484375 0.34375 0.828125q0.359375 0.328125 0.9375 0.328125q0.640625 0 1.203125 -0.296875q0.5625 -0.3125 0.828125 -0.796875q0.28125 -0.484375 0.5 -1.515625l0.078125 -0.359375zm11.529297 0.921875l2.734375 0.4375q-0.671875 1.8125 -2.0 2.765625q-1.3125 0.953125 -3.046875 0.953125q-1.984375 0 -3.15625 -1.1875q-1.15625 -1.1875 -1.15625 -3.25q0 -1.6875 0.703125 -3.1875q0.703125 -1.515625 2.109375 -2.375q1.421875 -0.859375 3.109375 -0.859375q1.84375 0 2.9375 0.953125q1.09375 0.953125 1.234375 2.515625l-2.671875 0.28125q-0.09375 -0.859375 -0.53125 -1.265625q-0.4375 -0.421875 -1.140625 -0.421875q-0.8125 0 -1.515625 0.609375q-0.703125 0.609375 -1.078125 1.8125q-0.375 1.203125 -0.375 2.25q0 0.921875 0.453125 1.421875q0.453125 0.5 1.125 0.5q0.671875 0 1.296875 -0.484375q0.625 -0.5 0.96875 -1.46875zm14.201172 -0.40625l-7.03125 0q-0.015625 0.15625 -0.015625 0.25q0 1.03125 0.59375 1.671875q0.59375 0.625 1.4375 0.625q1.390625 0 2.171875 -1.4375l2.515625 0.421875q-0.734375 1.515625 -1.96875 2.28125q-1.21875 0.75 -2.734375 0.75q-2.09375 0 -3.40625 -1.328125q-1.3125 -1.328125 -1.3125 -3.5q0 -2.125 1.1875 -3.796875q1.609375 -2.234375 4.59375 -2.234375q1.90625 0 3.03125 1.171875q1.125 1.171875 1.125 3.296875q0 1.015625 -0.1875 1.828125zm-2.375 -1.71875q0.015625 -0.1875 0.015625 -0.28125q0 -1.15625 -0.515625 -1.71875q-0.515625 -0.578125 -1.390625 -0.578125q-0.875 0 -1.5625 0.65625q-0.6875 0.640625 -0.921875 1.921875l4.375 0zm17.609375 2.859375l-5.6875 0l-1.71875 3.171875l-3.015625 0l8.09375 -14.3125l3.265625 0l2.328125 14.3125l-2.796875 0l-0.46875 -3.171875zm-0.375 -2.375l-0.828125 -5.765625l-3.453125 5.765625l4.28125 0zm5.3027344 5.546875l3.0 -14.3125l2.9375 0l-2.984375 14.3125l-2.953125 0z" fill-rule="nonzero"/></g></svg>