<svg version="1.1" viewBox="0.0 0.0 96.0 48.0" fill="none" stroke="none" stroke-linecap="square" stroke-miterlimit="10" xmlns:xlink="http://www.w3.org/1999/xlink" xmlns="http://www.w3.org/2000/svg"><clipPath id="g2c9ddb97744_1_6.0"><path d="m0 0l96.0 0l0 48.0l-96.0 0l0 -48.0z" clip-rule="nonzero"/></clipPath><g clip-path="url(#g2c9ddb97744_1_6.0)"><path fill="#000000" fill-opacity="0.0" d="m0 0l96.0 0l0 48.0l-96.0 0z" fill-rule="evenodd"/><path fill="#e4e7eb" d="m9.92126 6.4829397l76.157486 0l0 34.80315l-76.157486 0z" fill-rule="evenodd"/><path stroke="#141414" stroke-width="1.0" stroke-linejoin="round" stroke-linecap="butt" d="m9.92126 6.4829397l76.157486 0l0 34.80315l-76.157486 0z" fill-rule="evenodd"/><path fill="#141414" d="m16.659353 35.23809l0 -22.6875l3.109375 0l0 22.6875l-3.109375 0zm10.272156 0.21875q-2.046875 0 -3.0625 -1.484375q-1.0 -1.5 -1.0 -5.09375l0 -3.125q0 -1.859375 0.296875 -3.4375q0.3125 -1.578125 1.171875 -2.53125q0.859375 -0.953125 2.515625 -0.953125q0.796875 0 1.46875 0.359375q0.6875 0.359375 1.21875 0.90625l0 -7.546874l2.984377 0l0 22.6875l-2.984377 0l0 -1.03125q-0.53125 0.5625 -1.171875 0.90625q-0.625 0.34375 -1.4375 0.34375zm0.75 -2.34375q0.421875 0 0.890625 -0.15625q0.484375 -0.15625 0.96875 -0.46875l0 -10.609375q-0.40625 -0.28125 -0.875 -0.484375q-0.46875 -0.21875 -1.03125 -0.21875q-1.046875 0 -1.40625 1.0q-0.359375 1.0 -0.359375 2.390625l0 4.5625q0 1.125 0.125 2.046875q0.125 0.90625 0.515625 1.421875q0.390625 0.515625 1.171875 0.515625zm12.344805 2.34375q-1.890625 0 -2.9375 -0.734375q-1.03125 -0.75 -1.4375 -2.1875q-0.40625 -1.4375 -0.40625 -3.546875l0 -3.6875q0 -2.15625 0.421875 -3.578125q0.421875 -1.4375 1.46875 -2.15625q1.046875 -0.734375 2.890625 -0.734375q2.046875 0 3.015625 0.84375q0.96875 0.828125 1.265625 2.421875q0.3125 1.578125 0.3125 3.78125l0 1.328125l-6.375 0l0 3.25q0 0.96875 0.171875 1.59375q0.1875 0.609375 0.59375 0.90625q0.40625 0.296875 1.046875 0.296875q0.671875 0 1.015625 -0.3125q0.359375 -0.328125 0.484375 -0.9375q0.125 -0.609375 0.125 -1.40625l0 -0.984375l2.921875 0l0 0.609375q0 2.4375 -1.046875 3.84375q-1.03125 1.390625 -3.53125 1.390625zm-1.78125 -9.875l3.4375 0l0 -1.453125q0 -1.015625 -0.109375 -1.703125q-0.109375 -0.6875 -0.46875 -1.03125q-0.34375 -0.359375 -1.09375 -0.359375q-0.734375 0 -1.109375 0.34375q-0.375 0.328125 -0.515625 1.140625q-0.140625 0.796875 -0.140625 2.1875l0 0.875zm11.538055 9.875q-0.953125 0 -1.6875 -0.546875q-0.71875 -0.546875 -1.140625 -1.390625q-0.421875 -0.859375 -0.421875 -1.8125q0 -1.515625 0.5 -2.546875q0.5 -1.03125 1.375 -1.75q0.890625 -0.71875 2.046875 -1.25q1.171875 -0.53125 2.453125 -1.03125l0 -1.140625q0 -0.984375 -0.109375 -1.625q-0.109375 -0.65625 -0.46875 -0.96875q-0.34375 -0.328125 -1.046875 -0.328125q-0.609375 0 -0.984375 0.28125q-0.375 0.28125 -0.546875 0.796875q-0.171875 0.515625 -0.171875 1.21875l0 0.8125l-2.96875 -0.109375q0.0625 -2.6875 1.234375 -3.953125q1.171875 -1.28125 3.640625 -1.28125q2.40625 0 3.40625 1.3125q1.015625 1.3125 1.015625 3.8125l0 7.390625q0 0.75 0.03125 1.453125q0.046875 0.703125 0.109375 1.3125q0.078125 0.59375 0.140625 1.125l-2.75 0q-0.078125 -0.453125 -0.203125 -1.125q-0.125 -0.6875 -0.1875 -1.25q-0.28125 0.953125 -1.078125 1.78125q-0.796875 0.8125 -2.1875 0.8125zm1.171875 -2.578125q0.453125 0 0.84375 -0.25q0.390625 -0.25 0.6875 -0.5625q0.3125 -0.328125 0.421875 -0.53125l0 -4.578125q-0.6875 0.390625 -1.3125 0.78125q-0.609375 0.390625 -1.078125 0.828125q-0.453125 0.421875 -0.71875 0.96875q-0.265625 0.546875 -0.265625 1.25q0 0.984375 0.359375 1.546875q0.359375 0.546875 1.0625 0.546875zm11.592667 2.578125q-1.984375 0 -3.1875 -1.234375q-1.203125 -1.25 -1.375 -3.296875l2.484375 -0.75q0.234375 1.53125 0.765625 2.3125q0.53125 0.765625 1.5625 0.765625q0.8125 0 1.234375 -0.453125q0.421875 -0.46875 0.421875 -1.265625q0 -0.6875 -0.3125 -1.25q-0.3125 -0.5625 -1.0 -1.15625l-2.78125 -2.375q-0.84375 -0.734375 -1.421875 -1.625q-0.5625 -0.890625 -0.5625 -2.328125q0 -1.28125 0.515625 -2.15625q0.515625 -0.890625 1.453125 -1.34375q0.9375 -0.46875 2.203125 -0.46875q2.015625 0 3.078125 1.25q1.0625 1.234375 1.234375 3.0l-2.125 0.765625q-0.109375 -0.84375 -0.34375 -1.46875q-0.21875 -0.640625 -0.640625 -0.984375q-0.421875 -0.359375 -1.09375 -0.359375q-0.734375 0 -1.171875 0.5q-0.421875 0.484375 -0.421875 1.15625q0 0.421875 0.171875 0.828125q0.1875 0.40625 0.640625 0.796875l2.859375 2.640625q0.578125 0.53125 1.09375 1.140625q0.53125 0.609375 0.859375 1.40625q0.34375 0.78125 0.34375 1.8125q0 1.375 -0.5625 2.296875q-0.5625 0.921875 -1.578125 1.390625q-1.0 0.453125 -2.34375 0.453125zm9.628296 -5.90625l0 -3.46875q1.40625 -1.234375 2.53125 -2.46875q1.140625 -1.234375 1.8125 -2.59375q0.671875 -1.375 0.671875 -3.0q0 -1.3125 -0.6875 -2.171874q-0.6875 -0.875 -2.0 -0.875q-1.125 0 -1.78125 0.640625q-0.65625 0.64062405 -0.65625 1.656249q0 0.359375 0.046875 0.6875q0.0625 0.3125 0.15625 0.703125l-2.8125 0.53125q-0.140625 -0.421875 -0.21875 -0.875q-0.078125 -0.46875 -0.078125 -0.890625q0 -2.234374 1.390625 -3.640624q1.40625 -1.421875 3.953125 -1.421875q2.65625 0 4.140625 1.5q1.484375 1.5 1.484375 4.234374q0 1.875 -0.703125 3.390625q-0.703125 1.515625 -1.90625 2.8125q-1.203125 1.28125 -2.6875 2.53125l0 2.71875l-2.65625 0zm-0.140625 5.6875l0 -3.078125l3.0 0l0 3.078125l-3.0 0z" fill-rule="nonzero"/></g></svg>