<svg version="1.1" viewBox="0.0 0.0 816.0 1056.0" fill="none" stroke="none" stroke-linecap="square" stroke-miterlimit="10" xmlns:xlink="http://www.w3.org/1999/xlink" xmlns="http://www.w3.org/2000/svg"><clipPath id="g25b093e2c4b_1_4.0"><path d="m0 0l816.0 0l0 1056.0l-816.0 0l0 -1056.0z" clip-rule="nonzero"/></clipPath><g clip-path="url(#g25b093e2c4b_1_4.0)"><path fill="#ffffff" d="m0 0l816.0 0l0 1056.0l-816.0 0z" fill-rule="evenodd"/><path fill="#000000" fill-opacity="0.0" d="m98.01837 222.87665l636.62994 0l0 537.03937l-636.62994 0z" fill-rule="evenodd"/><path fill="#ffffff" d="m256.91147 231.87665l318.84378 0l0 76.79999l-318.84378 0l0 -76.79999z" fill-rule="nonzero"/><path fill="#000000" fill-opacity="0.0" d="m256.91147 235.37915l318.84378 0l0 73.59375l-318.84378 0l0 -73.59375z" fill-rule="nonzero"/><path fill="#222222" d="m290.88022 276.4729l8.96875 2.84375q-2.0625 7.5 -6.859375 11.140625q-4.796875 3.640625 -12.171875 3.640625q-9.125 0 -15.0 -6.234375q-5.875 -6.234375 -5.875 -17.046875q0 -11.4375 5.90625 -17.765625q5.90625 -6.328125 15.53125 -6.328125q8.40625 0 13.65625 4.96875q3.125 2.9375 4.6875 8.4375l-9.15625 2.1875q-0.8125 -3.5625 -3.390625 -5.625q-2.578125 -2.0625 -6.265625 -2.0625q-5.09375 0 -8.265625 3.65625q-3.171875 3.65625 -3.171875 11.84375q0 8.6875 3.125 12.375q3.125 3.6875 8.125 3.6875q3.6875 0 6.34375 -2.34375q2.65625 -2.34375 3.8125 -7.375zm16.9375 16.84375l0 -45.8125l19.46875 0q7.34375 0 10.671875 1.234375q3.328125 1.234375 5.328125 4.390625q2.0 3.15625 2.0 7.21875q0 5.15625 -3.03125 8.515625q-3.03125 3.359375 -9.0625 4.234375q3.0 1.75 4.953125 3.84375q1.953125 2.09375 5.265625 7.4375l5.59375 8.9375l-11.0625 0l-6.6875 -9.96875q-3.5625 -5.34375 -4.875 -6.734375q-1.3125 -1.390625 -2.78125 -1.90625q-1.46875 -0.515625 -4.65625 -0.515625l-1.875 0l0 19.125l-9.25 0zm9.25 -26.4375l6.84375 0q6.65625 0 8.3125 -0.5625q1.65625 -0.5625 2.59375 -1.9375q0.9375 -1.375 0.9375 -3.4375q0 -2.3125 -1.234375 -3.734375q-1.234375 -1.421875 -3.484375 -1.796875q-1.125 -0.15625 -6.75 -0.15625l-7.21875 0l0 11.625zm36.9375 26.4375l0 -45.8125l33.96875 0l0 7.75l-24.71875 0l0 10.15625l23.0 0l0 7.71875l-23.0 0l0 12.46875l25.59375 0l0 7.71875l-34.84375 0zm84.0 0l-10.0625 0l-4.0 -10.40625l-18.3125 0l-3.78125 10.40625l-9.8125 0l17.84375 -45.8125l9.78125 0l18.34375 45.8125zm-17.03125 -18.125l-6.3125 -17.0l-6.1875 17.0l12.5 0zm27.5 18.125l0 -38.0625l-13.59375 0l0 -7.75l36.40625 0l0 7.75l-13.5625 0l0 38.0625l-9.25 0zm28.5 0l0 -45.8125l9.25 0l0 45.8125l-9.25 0zm29.75 0l-16.375 -45.8125l10.03125 0l11.59375 33.90625l11.2187805 -33.90625l9.8125 0l-16.40625 45.8125l-9.8750305 0zm31.00003 0l0 -45.8125l33.96875 0l0 7.75l-24.71875 0l0 10.15625l23.0 0l0 7.71875l-23.0 0l0 12.46875l25.59375 0l0 7.71875l-34.84375 0z" fill-rule="nonzero"/><path fill="#000000" fill-opacity="0.0" d="m575.75525 235.37915l17.78125 0l0 73.59375l-17.78125 0l0 -73.59375z" fill-rule="nonzero"/><path fill="#000000" fill-opacity="0.0" d="m593.5365 235.37915l0 0l0 73.59375l0 0l0 -73.59375z" fill-rule="nonzero"/><path fill="#ffffff" d="m222.53647 322.86346l387.59378 0l0 76.79999l-387.59378 0l0 -76.79999z" fill-rule="nonzero"/><path fill="#000000" fill-opacity="0.0" d="m222.53647 326.36597l387.59372 0l0 73.59375l-387.59372 0l0 -73.59375z" fill-rule="nonzero"/><path fill="#222222" d="m226.91147 384.30347l0 -45.8125l9.25 0l0 45.8125l-9.25 0zm18.15625 0l0 -45.8125l9.0 0l18.75 30.59375l0 -30.59375l8.59375 0l0 45.8125l-9.28125 0l-18.46875 -29.875l0 29.875l-8.59375 0zm46.09375 -45.8125l16.90625 0q5.71875 0 8.71875 0.875q4.03125 1.1875 6.90625 4.21875q2.875 3.03125 4.375 7.421875q1.5 4.390625 1.5 10.828125q0 5.65625 -1.40625 9.75q-1.71875 5.0 -4.90625 8.09375q-2.40625 2.34375 -6.5 3.65625q-3.0625 0.96875 -8.1875 0.96875l-17.40625 0l0 -45.8125zm9.25 7.75l0 30.34375l6.90625 0q3.875 0 5.59375 -0.4375q2.25 -0.5625 3.734375 -1.90625q1.484375 -1.34375 2.421875 -4.421875q0.9375 -3.078125 0.9375 -8.390625q0 -5.3125 -0.9375 -8.15625q-0.9375 -2.84375 -2.625 -4.4375q-1.6875 -1.59375 -4.28125 -2.15625q-1.9375 -0.4375 -7.59375 -0.4375l-4.15625 0zm36.9375 -7.75l9.25 0l0 24.8125q0 5.90625 0.34375 7.65625q0.59375 2.8125 2.828125 4.515625q2.234375 1.703125 6.109375 1.703125q3.9375 0 5.9375 -1.609375q2.0 -1.609375 2.40625 -3.953125q0.40625 -2.34375 0.40625 -7.78125l0 -25.34375l9.25 0l0 24.0625q0 8.25 -0.75 11.65625q-0.75 3.40625 -2.765625 5.75q-2.015625 2.34375 -5.390625 3.734375q-3.375 1.390625 -8.8125 1.390625q-6.5625 0 -9.953125 -1.515625q-3.390625 -1.515625 -5.359375 -3.9375q-1.96875 -2.421875 -2.59375 -5.078125q-0.90625 -3.9375 -0.90625 -11.625l0 -24.4375zm43.9375 30.90625l9.0 -0.875q0.8125 4.53125 3.296875 6.65625q2.484375 2.125 6.703125 2.125q4.46875 0 6.734375 -1.890625q2.265625 -1.890625 2.265625 -4.421875q0 -1.625 -0.953125 -2.765625q-0.953125 -1.140625 -3.328125 -1.984375q-1.625 -0.5625 -7.40625 -2.0q-7.4375 -1.84375 -10.4375 -4.53125q-4.21875 -3.78125 -4.21875 -9.21875q0 -3.5 1.984375 -6.546875q1.984375 -3.046875 5.71875 -4.640625q3.734375 -1.59375 9.015625 -1.59375q8.625 0 12.984375 3.78125q4.359375 3.78125 4.578125 10.09375l-9.25 0.40625q-0.59375 -3.53125 -2.546875 -5.078125q-1.953125 -1.546875 -5.859375 -1.546875q-4.03125 0 -6.3125 1.65625q-1.46875 1.0625 -1.46875 2.84375q0 1.625 1.375 2.78125q1.75 1.46875 8.5 3.0625q6.75 1.59375 9.984375 3.296875q3.234375 1.703125 5.0625 4.65625q1.828125 2.953125 1.828125 7.296875q0 3.9375 -2.1875 7.375q-2.1875 3.4375 -6.1875 5.109375q-4.0 1.671875 -9.96875 1.671875q-8.6875 0 -13.34375 -4.015625q-4.65625 -4.015625 -5.5625 -11.703125zm55.34375 14.90625l0 -38.0625l-13.59375 0l0 -7.75l36.40625 0l0 7.75l-13.5625 0l0 38.0625l-9.25 0zm28.8125 0l0 -45.8125l19.46875 0q7.34375 0 10.671875 1.234375q3.328125 1.234375 5.328125 4.390625q2.0 3.15625 2.0 7.21875q0 5.15625 -3.03125 8.515625q-3.03125 3.359375 -9.0625 4.234375q3.0 1.75 4.953125 3.84375q1.953125 2.09375 5.265625 7.4375l5.59375 8.9375l-11.0625 0l-6.6875 -9.96875q-3.5625 -5.34375 -4.875 -6.734375q-1.3125 -1.390625 -2.78125 -1.90625q-1.46875 -0.515625 -4.65625 -0.515625l-1.875 0l0 19.125l-9.25 0zm9.25 -26.4375l6.84375 0q6.65625 0 8.3125 -0.5625q1.65625 -0.5625 2.59375 -1.9375q0.9375 -1.375 0.9375 -3.4375q0 -2.3125 -1.234375 -3.734375q-1.234375 -1.421875 -3.484375 -1.796875q-1.125 -0.15625 -6.75 -0.15625l-7.21875 0l0 11.625zm36.65625 26.4375l0 -45.8125l9.2500305 0l0 45.8125l-9.2500305 0zm18.06253 0l0 -45.8125l33.96875 0l0 7.75l-24.71875 0l0 10.15625l23.0 0l0 7.71875l-23.0 0l0 12.46875l25.59375 0l0 7.71875l-34.84375 0zm40.34375 -14.90625l9.0 -0.875q0.8125 4.53125 3.296875 6.65625q2.484375 2.125 6.703125 2.125q4.46875 0 6.734375 -1.890625q2.265625 -1.890625 2.265625 -4.421875q0 -1.625 -0.953125 -2.765625q-0.953125 -1.140625 -3.328125 -1.984375q-1.625 -0.5625 -7.40625 -2.0q-7.4375 -1.84375 -10.4375 -4.53125q-4.21875 -3.78125 -4.21875 -9.21875q0 -3.5 1.984375 -6.546875q1.984375 -3.046875 5.71875 -4.640625q3.734375 -1.59375 9.015625 -1.59375q8.625 0 12.984375 3.78125q4.359375 3.78125 4.578125 10.09375l-9.25 0.40625q-0.59375 -3.53125 -2.546875 -5.078125q-1.953125 -1.546875 -5.859375 -1.546875q-4.03125 0 -6.3125 1.65625q-1.46875 1.0625 -1.46875 2.84375q0 1.625 1.375 2.78125q1.75 1.46875 8.5 3.0625q6.75 1.59375 9.984375 3.296875q3.234375 1.703125 5.0625 4.65625q1.828125 2.953125 1.828125 7.296875q0 3.9375 -2.1875 7.375q-2.1875 3.4375 -6.1875 5.109375q-4.0 1.671875 -9.96875 1.671875q-8.6875 0 -13.34375 -4.015625q-4.65625 -4.015625 -5.5625 -11.703125z" fill-rule="nonzero"/><path fill="#000000" fill-opacity="0.0" d="m610.1302 326.36597l0 0l0 73.59375l0 0l0 -73.59375z" fill-rule="nonzero"/><path fill="#000000" fill-opacity="0.0" d="m416.33334 417.35278l0 0l0 73.59375l0 0l0 -73.59375z" fill-rule="nonzero"/><path fill="#ffffff" d="m208.33334 504.8371l416.00003 0l0 76.79999l-416.00003 0l0 -76.79999z" fill-rule="nonzero"/><path fill="#000000" fill-opacity="0.0" d="m208.33334 508.3396l415.99997 0l0 73.59375l-415.99997 0l0 -73.59375z" fill-rule="nonzero"/><path fill="#888888" d="m223.3021 566.2771l0 -38.0625l-13.59375 0l0 -7.75l36.40625 0l0 7.75l-13.5625 0l0 38.0625l-9.25 0zm28.8125 0l0 -45.8125l9.25 0l0 18.03125l18.125 0l0 -18.03125l9.25 0l0 45.8125l-9.25 0l0 -20.03125l-18.125 0l0 20.03125l-9.25 0zm46.1875 0l0 -45.8125l33.96875 0l0 7.75l-24.71875 0l0 10.15625l23.0 0l0 7.71875l-23.0 0l0 12.46875l25.59375 0l0 7.71875l-34.84375 0zm60.4375 -45.8125l16.90625 0q5.71875 0 8.71875 0.875q4.03125 1.1875 6.90625 4.21875q2.875 3.03125 4.375 7.421875q1.5 4.390625 1.5 10.828125q0 5.65625 -1.40625 9.75q-1.71875 5.0 -4.90625 8.09375q-2.40625 2.34375 -6.5 3.65625q-3.0625 0.96875 -8.1875 0.96875l-17.40625 0l0 -45.8125zm9.25 7.75l0 30.34375l6.90625 0q3.875 0 5.59375 -0.4375q2.25 -0.5625 3.734375 -1.90625q1.484375 -1.34375 2.421875 -4.421875q0.9375 -3.078125 0.9375 -8.390625q0 -5.3125 -0.9375 -8.15625q-0.9375 -2.84375 -2.625 -4.4375q-1.6875 -1.59375 -4.28125 -2.15625q-1.9375 -0.4375 -7.59375 -0.4375l-4.15625 0zm35.125 15.4375q0 -7.0 2.09375 -11.75q1.5625 -3.5 4.265625 -6.28125q2.703125 -2.78125 5.921875 -4.125q4.28125 -1.8125 9.875 -1.8125q10.125 0 16.203125 6.28125q6.078125 6.28125 6.078125 17.46875q0 11.09375 -6.03125 17.359375q-6.03125 6.265625 -16.125 6.265625q-10.21875 0 -16.25 -6.234375q-6.03125 -6.234375 -6.03125 -17.171875zm9.53125 -0.3125q0 7.78125 3.59375 11.796875q3.59375 4.015625 9.125 4.015625q5.53125 0 9.078125 -3.984375q3.546875 -3.984375 3.546875 -11.953125q0 -7.875 -3.453125 -11.75q-3.453125 -3.875 -9.171875 -3.875q-5.71875 0 -9.21875 3.921875q-3.5 3.921875 -3.5 11.828125zm42.0625 -22.875l9.25 0l0 24.8125q0 5.90625 0.34375 7.65625q0.59375 2.8125 2.828125 4.515625q2.234375 1.703125 6.109375 1.703125q3.9375 0 5.9375 -1.609375q2.0 -1.609375 2.40625 -3.953125q0.40625 -2.34375 0.40625 -7.78125l0 -25.34375l9.25 0l0 24.0625q0 8.25 -0.75 11.65625q-0.75 3.40625 -2.765625 5.75q-2.015625 2.34375 -5.390625 3.734375q-3.375 1.390625 -8.8125 1.390625q-6.5625 0 -9.953125 -1.515625q-3.390625 -1.515625 -5.359375 -3.9375q-1.96875 -2.421875 -2.59375 -5.078125q-0.90625 -3.9375 -0.90625 -11.625l0 -24.4375zm46.3125 0l18.31253 0q5.4375 0 8.109375 0.453125q2.671875 0.453125 4.78125 1.890625q2.109375 1.4375 3.515625 3.828125q1.40625 2.390625 1.40625 5.359375q0 3.21875 -1.734375 5.90625q-1.734375 2.6875 -4.703125 4.03125q4.1875 1.21875 6.4375 4.15625q2.25 2.9375 2.25 6.90625q0 3.125 -1.453125 6.078125q-1.453125 2.953125 -3.96875 4.71875q-2.515625 1.765625 -6.203125 2.171875q-2.3125 0.25 -11.15625 0.3125l-15.5937805 0l0 -45.8125zm9.25 7.625l0 10.59375l6.0625305 0q5.40625 0 6.71875 -0.15625q2.375 -0.28125 3.734375 -1.640625q1.359375 -1.359375 1.359375 -3.578125q0 -2.125 -1.171875 -3.453125q-1.171875 -1.328125 -3.484375 -1.609375q-1.375 -0.15625 -7.90625 -0.15625l-5.3125305 0zm0 18.21875l0 12.25l8.5625305 0q5.0 0 6.34375 -0.28125q2.0625 -0.375 3.359375 -1.828125q1.296875 -1.453125 1.296875 -3.890625q0 -2.0625 -1.0 -3.5q-1.0 -1.4375 -2.890625 -2.09375q-1.890625 -0.65625 -8.203125 -0.65625l-7.4687805 0zm37.18753 19.96875l0 -45.4375l9.25 0l0 37.71875l23.0 0l0 7.71875l-32.25 0zm38.84375 0l0 -45.8125l33.96869 0l0 7.75l-24.718689 0l0 10.15625l22.999939 0l0 7.71875l-22.999939 0l0 12.46875l25.593689 0l0 7.71875l-34.84369 0z" fill-rule="nonzero"/><path fill="#000000" fill-opacity="0.0" d="m624.3333 508.3396l0 0l0 73.59375l0 0l0 -73.59375z" fill-rule="nonzero"/><path fill="#ffffff" d="m186.9896 595.8239l458.68753 0l0 76.79999l-458.68753 0l0 -76.79999z" fill-rule="nonzero"/><path fill="#000000" fill-opacity="0.0" d="m186.9896 599.3264l458.68747 0l0 73.59375l-458.68747 0l0 -73.59375z" fill-rule="nonzero"/><path fill="#888888" d="m189.3021 642.35767l9.0 -0.875q0.8125 4.53125 3.296875 6.65625q2.484375 2.125 6.703125 2.125q4.46875 0 6.734375 -1.890625q2.265625 -1.890625 2.265625 -4.421875q0 -1.625 -0.953125 -2.765625q-0.953125 -1.140625 -3.328125 -1.984375q-1.625 -0.5625 -7.40625 -2.0q-7.4375 -1.84375 -10.4375 -4.53125q-4.21875 -3.78125 -4.21875 -9.21875q0 -3.5 1.984375 -6.546875q1.984375 -3.046875 5.71875 -4.640625q3.734375 -1.59375 9.015625 -1.59375q8.625 0 12.984375 3.78125q4.359375 3.78125 4.578125 10.09375l-9.25 0.40625q-0.59375 -3.53125 -2.546875 -5.078125q-1.953125 -1.546875 -5.859375 -1.546875q-4.03125 0 -6.3125 1.65625q-1.46875 1.0625 -1.46875 2.84375q0 1.625 1.375 2.78125q1.75 1.46875 8.5 3.0625q6.75 1.59375 9.984375 3.296875q3.234375 1.703125 5.0625 4.65625q1.828125 2.953125 1.828125 7.296875q0 3.9375 -2.1875 7.375q-2.1875 3.4375 -6.1875 5.109375q-4.0 1.671875 -9.96875 1.671875q-8.6875 0 -13.34375 -4.015625q-4.65625 -4.015625 -5.5625 -11.703125zm44.75 14.90625l0 -45.8125l9.25 0l0 45.8125l-9.25 0zm18.03125 -45.8125l16.90625 0q5.71875 0 8.71875 0.875q4.03125 1.1875 6.90625 4.21875q2.875 3.03125 4.375 7.421875q1.5 4.390625 1.5 10.828125q0 5.65625 -1.40625 9.75q-1.71875 5.0 -4.90625 8.09375q-2.40625 2.34375 -6.5 3.65625q-3.0625 0.96875 -8.1875 0.96875l-17.40625 0l0 -45.8125zm9.25 7.75l0 30.34375l6.90625 0q3.875 0 5.59375 -0.4375q2.25 -0.5625 3.734375 -1.90625q1.484375 -1.34375 2.421875 -4.421875q0.9375 -3.078125 0.9375 -8.390625q0 -5.3125 -0.9375 -8.15625q-0.9375 -2.84375 -2.625 -4.4375q-1.6875 -1.59375 -4.28125 -2.15625q-1.9375 -0.4375 -7.59375 -0.4375l-4.15625 0zm37.0 38.0625l0 -45.8125l33.96875 0l0 7.75l-24.71875 0l0 10.15625l23.0 0l0 7.71875l-23.0 0l0 12.46875l25.59375 0l0 7.71875l-34.84375 0zm42.65625 -45.8125l16.90625 0q5.71875 0 8.71875 0.875q4.03125 1.1875 6.90625 4.21875q2.875 3.03125 4.375 7.421875q1.5 4.390625 1.5 10.828125q0 5.65625 -1.40625 9.75q-1.71875 5.0 -4.90625 8.09375q-2.40625 2.34375 -6.5 3.65625q-3.0625 0.96875 -8.1875 0.96875l-17.40625 0l0 -45.8125zm9.25 7.75l0 30.34375l6.90625 0q3.875 0 5.59375 -0.4375q2.25 -0.5625 3.734375 -1.90625q1.484375 -1.34375 2.421875 -4.421875q0.9375 -3.078125 0.9375 -8.390625q0 -5.3125 -0.9375 -8.15625q-0.9375 -2.84375 -2.625 -4.4375q-1.6875 -1.59375 -4.28125 -2.15625q-1.9375 -0.4375 -7.59375 -0.4375l-4.15625 0zm52.4375 23.15625l9.0 -0.875q0.8125 4.53125 3.296875 6.65625q2.484375 2.125 6.703125 2.125q4.46875 0 6.734375 -1.890625q2.265625 -1.890625 2.265625 -4.421875q0 -1.625 -0.953125 -2.765625q-0.953125 -1.140625 -3.328125 -1.984375q-1.625 -0.5625 -7.40625 -2.0q-7.4375 -1.84375 -10.4375 -4.53125q-4.21875 -3.78125 -4.21875 -9.21875q0 -3.5 1.984375 -6.546875q1.984375 -3.046875 5.71875 -4.640625q3.734375 -1.59375 9.015625 -1.59375q8.625 0 12.984375 3.78125q4.359375 3.78125 4.578125 10.09375l-9.25 0.40625q-0.59375 -3.53125 -2.546875 -5.078125q-1.953125 -1.546875 -5.859375 -1.546875q-4.03125 0 -6.3125 1.65625q-1.46875 1.0625 -1.46875 2.84375q0 1.625 1.375 2.78125q1.75 1.46875 8.5 3.0625q6.75 1.59375 9.984375 3.296875q3.234375 1.703125 5.0625 4.65625q1.828125 2.953125 1.828125 7.296875q0 3.9375 -2.1875 7.375q-2.1875 3.4375 -6.1875 5.109375q-4.0 1.671875 -9.96875 1.671875q-8.6875 0 -13.34375 -4.015625q-4.65625 -4.015625 -5.5625 -11.703125zm51.53125 14.90625l-10.9375 -45.8125l9.46875 0l6.90625 31.46875l8.375 -31.46875l11.0 0l8.03125 32.0l7.03125 -32.0l9.3125 0l-11.125 45.8125l-9.8125 0l-9.125 -34.25l-9.09375 34.25l-10.03125 0zm52.03125 -22.625q0 -7.0 2.09375 -11.75q1.5625 -3.5 4.2656555 -6.28125q2.703125 -2.78125 5.921875 -4.125q4.28125 -1.8125 9.875 -1.8125q10.125 0 16.203125 6.28125q6.078125 6.28125 6.078125 17.46875q0 11.09375 -6.03125 17.359375q-6.03125 6.265625 -16.125 6.265625q-10.21875 0 -16.25 -6.234375q-6.0312805 -6.234375 -6.0312805 -17.171875zm9.5312805 -0.3125q0 7.78125 3.59375 11.796875q3.59375 4.015625 9.125 4.015625q5.53125 0 9.078125 -3.984375q3.546875 -3.984375 3.546875 -11.953125q0 -7.875 -3.453125 -11.75q-3.453125 -3.875 -9.171875 -3.875q-5.71875 0 -9.21875 3.921875q-3.5 3.921875 -3.5 11.828125zm42.15625 22.9375l0 -45.8125l19.46875 0q7.34375 0 10.671875 1.234375q3.328125 1.234375 5.328125 4.390625q2.0 3.15625 2.0 7.21875q0 5.15625 -3.03125 8.515625q-3.03125 3.359375 -9.0625 4.234375q3.0 1.75 4.953125 3.84375q1.953125 2.09375 5.265625 7.4375l5.59375 8.9375l-11.0625 0l-6.6875 -9.96875q-3.5625 -5.34375 -4.875 -6.734375q-1.3125 -1.390625 -2.78125 -1.90625q-1.46875 -0.515625 -4.65625 -0.515625l-1.875 0l0 19.125l-9.25 0zm9.25 -26.4375l6.84375 0q6.65625 0 8.3125 -0.5625q1.65625 -0.5625 2.59375 -1.9375q0.9375 -1.375 0.9375 -3.4375q0 -2.3125 -1.234375 -3.734375q-1.234375 -1.421875 -3.484375 -1.796875q-1.125 -0.15625 -6.75 -0.15625l-7.21875 0l0 11.625zm36.90625 -19.375l16.906189 0q5.71875 0 8.71875 0.875q4.03125 1.1875 6.90625 4.21875q2.875 3.03125 4.375 7.421875q1.5 4.390625 1.5 10.828125q0 5.65625 -1.40625 9.75q-1.71875 5.0 -4.90625 8.09375q-2.40625 2.34375 -6.5 3.65625q-3.0625 0.96875 -8.1875 0.96875l-17.406189 0l0 -45.8125zm9.249939 7.75l0 30.34375l6.90625 0q3.875 0 5.59375 -0.4375q2.25 -0.5625 3.734375 -1.90625q1.484375 -1.34375 2.421875 -4.421875q0.9375 -3.078125 0.9375 -8.390625q0 -5.3125 -0.9375 -8.15625q-0.9375 -2.84375 -2.625 -4.4375q-1.6875 -1.59375 -4.28125 -2.15625q-1.9375 -0.4375 -7.59375 -0.4375l-4.15625 0z" fill-rule="nonzero"/><path fill="#000000" fill-opacity="0.0" d="m645.67706 599.3264l0 0l0 73.59375l0 0l0 -73.59375z" fill-rule="nonzero"/><path fill="#000000" fill-opacity="0.0" d="m416.33334 689.43756l0 0l0 55.195312l0 0l0 -55.195312z" fill-rule="nonzero"/></g></svg>