<svg version="1.1" viewBox="0.0 0.0 816.0 1056.0" fill="none" stroke="none" stroke-linecap="square" stroke-miterlimit="10" xmlns:xlink="http://www.w3.org/1999/xlink" xmlns="http://www.w3.org/2000/svg"><clipPath id="g2bed7475345_1_18.0"><path d="m0 0l816.0 0l0 1056.0l-816.0 0l0 -1056.0z" clip-rule="nonzero"/></clipPath><g clip-path="url(#g2bed7475345_1_18.0)"><path fill="#ffffff" d="m0 0l816.0 0l0 1056.0l-816.0 0z" fill-rule="evenodd"/><path fill="#000000" fill-opacity="0.0" d="m51.73491 207.85826l747.1181 0l0 442.48816l-747.1181 0z" fill-rule="evenodd"/><path fill="#000000" fill-opacity="0.0" d="m60.73491 219.48514l0 0l0 55.195312l0 0l0 -55.195312z" fill-rule="nonzero"/><path fill="#000000" fill-opacity="0.0" d="m60.73491 289.78305l0 0l0 84.32019l0 0l0 -84.32019z" fill-rule="nonzero"/><path fill="#000000" fill-opacity="0.0" d="m60.73491 393.6499l0 0l0 84.32019l0 0l0 -84.32019z" fill-rule="nonzero"/><path fill="#000000" fill-opacity="0.0" d="m60.73491 497.51672l0 0l0 84.32019l0 0l0 -84.32019z" fill-rule="nonzero"/><path fill="#000000" fill-opacity="0.0" d="m60.73491 599.1168l0 0l0 36.796875l0 0l0 -36.796875z" fill-rule="nonzero"/><path fill="#000000" fill-opacity="0.0" d="m62.199474 220.0l724.25195 0l0 181.88977l-724.25195 0z" fill-rule="evenodd"/><path fill="#ffffff" d="m71.19948 229.0l562.1646 0l0 73.599976l-562.1646 0l0 -73.599976z" fill-rule="nonzero"/><path fill="#000000" fill-opacity="0.0" d="m71.19948 232.36127l476.99994 0l0 70.52136l-476.99994 0l0 -70.52136z" fill-rule="nonzero"/><path fill="#000000" d="m75.38698 287.88l0 -43.90625l8.875 0l0 43.90625l-8.875 0zm17.3983 0l0 -43.90625l8.625 0l17.96875 29.328125l0 -29.328125l8.234375 0l0 43.90625l-8.890625 0l-17.703125 -28.625l0 28.625l-8.234375 0zm54.08609 0l0 -36.46875l-13.03125 0l0 -7.4375l34.890625 0l0 7.4375l-13.0 0l0 36.46875l-8.859375 0zm27.58667 0l0 -43.90625l32.546875 0l0 7.4375l-23.6875 0l0 9.734375l22.03125 0l0 7.390625l-22.03125 0l0 11.953125l24.515625 0l0 7.390625l-33.375 0zm40.921005 0l0 -43.90625l18.65625 0q7.046875 0 10.234375 1.1875q3.1875 1.1875 5.09375 4.21875q1.921875 3.015625 1.921875 6.90625q0 4.9375 -2.90625 8.15625q-2.890625 3.21875 -8.671875 4.0625q2.875 1.671875 4.734375 3.6875q1.875 2.0 5.046875 7.125l5.359375 8.5625l-10.59375 0l-6.40625 -9.546875q-3.421875 -5.125 -4.6875 -6.453125q-1.25 -1.34375 -2.65625 -1.828125q-1.40625 -0.5 -4.453125 -0.5l-1.796875 0l0 18.328125l-8.875 0zm8.875 -25.328125l6.546875 0q6.390625 0 7.96875 -0.53125q1.59375 -0.546875 2.484375 -1.859375q0.90625 -1.328125 0.90625 -3.296875q0 -2.21875 -1.1875 -3.578125q-1.1875 -1.375 -3.34375 -1.734375q-1.078125 -0.140625 -6.46875 -0.140625l-6.90625 0l0 11.140625zm35.4142 25.328125l0 -43.90625l18.65625 0q7.046875 0 10.234375 1.1875q3.1875 1.1875 5.09375 4.21875q1.921875 3.015625 1.921875 6.90625q0 4.9375 -2.90625 8.15625q-2.890625 3.21875 -8.671875 4.0625q2.875 1.671875 4.734375 3.6875q1.875 2.0 5.046875 7.125l5.359375 8.5625l-10.59375 0l-6.40625 -9.546875q-3.421875 -5.125 -4.6875 -6.453125q-1.25 -1.34375 -2.65625 -1.828125q-1.40625 -0.5 -4.453125 -0.5l-1.796875 0l0 18.328125l-8.875 0zm8.875 -25.328125l6.546875 0q6.390625 0 7.96875 -0.53125q1.59375 -0.546875 2.484375 -1.859375q0.90625 -1.328125 0.90625 -3.296875q0 -2.21875 -1.1875 -3.578125q-1.1875 -1.375 -3.34375 -1.734375q-1.078125 -0.140625 -6.46875 -0.140625l-6.90625 0l0 11.140625zm35.33609 -18.578125l8.859375 0l0 23.78125q0 5.65625 0.328125 7.34375q0.578125 2.6875 2.71875 4.328125q2.140625 1.625 5.84375 1.625q3.78125 0 5.6875 -1.53125q1.921875 -1.546875 2.3125 -3.796875q0.390625 -2.25 0.390625 -7.453125l0 -24.296875l8.859375 0l0 23.0625q0 7.90625 -0.71875 11.171875q-0.71875 3.265625 -2.65625 5.515625q-1.921875 2.234375 -5.15625 3.578125q-3.234375 1.328125 -8.453125 1.328125q-6.28125 0 -9.53125 -1.453125q-3.25 -1.453125 -5.140625 -3.765625q-1.875 -2.328125 -2.484375 -4.875q-0.859375 -3.765625 -0.859375 -11.140625l0 -23.421875zm44.351715 43.90625l0 -43.90625l14.21875 0q8.078125 0 10.546875 0.671875q3.765625 0.984375 6.3125 4.296875q2.546875 3.296875 2.546875 8.546875q0 4.03125 -1.46875 6.796875q-1.46875 2.75 -3.734375 4.328125q-2.25 1.5625 -4.59375 2.078125q-3.171875 0.625 -9.1875 0.625l-5.78125 0l0 16.5625l-8.859375 0zm8.859375 -36.46875l0 12.453125l4.84375 0q5.25 0 7.015625 -0.6875q1.765625 -0.6875 2.765625 -2.15625q1.0 -1.46875 1.0 -3.421875q0 -2.390625 -1.40625 -3.9375q-1.40625 -1.5625 -3.5625 -1.953125q-1.578125 -0.296875 -6.375 -0.296875l-4.28125 0zm41.92099 36.46875l0 -36.46875l-13.03125 0l0 -7.4375l34.890625 0l0 7.4375l-13.0 0l0 36.46875l-8.859375 0zm27.30542 0l0 -43.90625l8.875 0l0 43.90625l-8.875 0zm15.523315 -21.6875q0 -6.703125 2.0 -11.25q1.5 -3.359375 4.078125 -6.015625q2.59375 -2.671875 5.6875 -3.953125q4.09375 -1.75 9.453125 -1.75q9.703125 0 15.53125 6.03125q5.828125 6.015625 5.828125 16.734375q0 10.625 -5.78125 16.640625q-5.78125 6.0 -15.453125 6.0q-9.796875 0 -15.578125 -5.96875q-5.765625 -5.984375 -5.765625 -16.46875zm9.125 -0.296875q0 7.453125 3.4375 11.3125q3.453125 3.84375 8.75 3.84375q5.296875 0 8.6875 -3.8125q3.40625 -3.828125 3.40625 -11.453125q0 -7.546875 -3.3125 -11.265625q-3.296875 -3.71875 -8.78125 -3.71875q-5.484375 0 -8.84375 3.765625q-3.34375 3.75 -3.34375 11.328125zm40.453003 21.984375l0 -43.90625l8.625 0l17.96875 29.328125l0 -29.328125l8.234375 0l0 43.90625l-8.890625 0l-17.703125 -28.625l0 28.625l-8.234375 0z" fill-rule="nonzero"/><path fill="#010000" fill-opacity="0.0" d="m548.1994 232.36127l85.16467 0l0 70.52136l-85.16467 0l0 -70.52136z" fill-rule="nonzero"/><path fill="#000000" d="m550.8713 266.1925q0 -6.703125 2.0 -11.25q1.5 -3.359375 4.078125 -6.015625q2.59375 -2.671875 5.6875 -3.953125q4.09375 -1.75 9.453125 -1.75q9.703125 0 15.53125 6.03125q5.828125 6.015625 5.828125 16.734375q0 10.625 -5.78125 16.640625q-5.78125 6.0 -15.453125 6.0q-9.796875 0 -15.578125 -5.96875q-5.765625 -5.984375 -5.765625 -16.46875zm9.125 -0.296875q0 7.453125 3.4375 11.3125q3.453125 3.84375 8.75 3.84375q5.296875 0 8.6875 -3.8125q3.40625 -3.828125 3.40625 -11.453125q0 -7.546875 -3.3125 -11.265625q-3.296875 -3.71875 -8.78125 -3.71875q-5.484375 0 -8.84375 3.765625q-3.34375 3.75 -3.34375 11.328125zm40.421753 21.984375l0 -43.90625l30.09375 0l0 7.4375l-21.21875 0l0 10.390625l18.328125 0l0 7.421875l-18.328125 0l0 18.65625l-8.875 0z" fill-rule="nonzero"/><path fill="#000000" fill-opacity="0.0" d="m633.3641 232.36127l17.03894 0l0 70.52136l-17.03894 0l0 -70.52136z" fill-rule="nonzero"/><path fill="#010000" fill-opacity="0.0" d="m650.403 232.36127l0 0l0 70.52136l0 0l0 -70.52136z" fill-rule="nonzero"/><path fill="#ffffff" d="m71.19948 316.3068l579.2332 0l0 73.600006l-579.2332 0l0 -73.600006z" fill-rule="nonzero"/><path fill="#000000" fill-opacity="0.0" d="m71.19948 319.6681l579.2332 0l0 70.52133l-579.2332 0l0 -70.52133z" fill-rule="nonzero"/><path fill="#888888" d="m115.24635 375.1868l-9.640625 0l-3.828125 -9.96875l-17.546875 0l-3.625 9.96875l-9.40625 0l17.09375 -43.90625l9.375 0l17.578125 43.90625zm-16.3125 -17.375l-6.046875 -16.28125l-5.9375 16.28125l11.984375 0zm21.101715 17.375l0 -43.90625l8.625 0l17.96875 29.328125l0 -29.328125l8.234375 0l0 43.90625l-8.890625 0l-17.703125 -28.625l0 28.625l-8.234375 0zm59.45314 -21.6875q0 -6.703125 2.0 -11.25q1.5 -3.359375 4.078125 -6.015625q2.59375 -2.671875 5.6875 -3.953125q4.09375 -1.75 9.453125 -1.75q9.703125 0 15.53125 6.03125q5.828125 6.015625 5.828125 16.734375q0 10.625 -5.78125 16.640625q-5.78125 6.0 -15.453125 6.0q-9.796875 0 -15.578125 -5.96875q-5.765625 -5.984375 -5.765625 -16.46875zm9.125 -0.296875q0 7.453125 3.4375 11.3125q3.453125 3.84375 8.75 3.84375q5.296875 0 8.6875 -3.8125q3.40625 -3.828125 3.40625 -11.453125q0 -7.546875 -3.3125 -11.265625q-3.296875 -3.71875 -8.78125 -3.71875q-5.484375 0 -8.84375 3.765625q-3.34375 3.75 -3.34375 11.328125zm40.390488 21.984375l0 -43.90625l18.65625 0q7.046875 0 10.23436 1.1875q3.1875 1.1875 5.09375 4.21875q1.921875 3.015625 1.921875 6.90625q0 4.9375 -2.90625 8.15625q-2.890625 3.21875 -8.67186 4.0625q2.8749847 1.671875 4.7343597 3.6875q1.875 2.0 5.046875 7.125l5.359375 8.5625l-10.59375 0l-6.4062347 -9.546875q-3.421875 -5.125 -4.6875 -6.453125q-1.25 -1.34375 -2.65625 -1.828125q-1.40625 -0.5 -4.453125 -0.5l-1.796875 0l0 18.328125l-8.875 0zm8.875 -25.328125l6.546875 0q6.390625 0 7.96875 -0.53125q1.59375 -0.546875 2.484375 -1.859375q0.90625 -1.328125 0.90625 -3.296875q0 -2.21875 -1.1875 -3.578125q-1.1875 -1.375 -3.34375 -1.734375q-1.078125 -0.140625 -6.46875 -0.140625l-6.90625 0l0 11.140625zm35.367325 -18.578125l16.1875 0q5.484375 0 8.359375 0.84375q3.859375 1.140625 6.609375 4.046875q2.765625 2.90625 4.203125 7.109375q1.4375 4.203125 1.4375 10.375q0 5.421875 -1.34375 9.34375q-1.65625 4.796875 -4.703125 7.75q-2.3125 2.25 -6.234375 3.515625q-2.9375 0.921875 -7.84375 0.921875l-16.671875 0l0 -43.90625zm8.859375 7.4375l0 29.078125l6.609375 0q3.71875 0 5.375 -0.421875q2.15625 -0.546875 3.578125 -1.828125q1.421875 -1.296875 2.3125 -4.234375q0.90625 -2.953125 0.90625 -8.046875q0 -5.09375 -0.90625 -7.8125q-0.890625 -2.71875 -2.515625 -4.25q-1.609375 -1.53125 -4.09375 -2.0625q-1.859375 -0.421875 -7.28125 -0.421875l-3.984375 0zm35.17984 36.46875l0 -43.90625l8.875 0l0 43.90625l-8.875 0zm17.398285 0l0 -43.90625l8.625 0l17.96875 29.328125l0 -29.328125l8.234375 0l0 43.90625l-8.890625 0l-17.703125 -28.625l0 28.625l-8.234375 0zm83.789215 0l-9.640625 0l-3.828125 -9.96875l-17.546875 0l-3.625 9.96875l-9.40625 0l17.09375 -43.90625l9.375 0l17.578125 43.90625zm-16.3125 -17.375l-6.046875 -16.28125l-5.9375 16.28125l11.984375 0zm21.039215 17.375l0 -43.90625l18.65625 0q7.046875 0 10.234375 1.1875q3.1875 1.1875 5.09375 4.21875q1.921875 3.015625 1.921875 6.90625q0 4.9375 -2.90625 8.15625q-2.890625 3.21875 -8.671875 4.0625q2.875 1.671875 4.734375 3.6875q1.875 2.0 5.046875 7.125l5.359375 8.5625l-10.59375 0l-6.40625 -9.546875q-3.421875 -5.125 -4.6875 -6.453125q-1.25 -1.34375 -2.65625 -1.828125q-1.40625 -0.5 -4.453125 -0.5l-1.796875 0l0 18.328125l-8.875 0zm8.875 -25.328125l6.546875 0q6.390625 0 7.96875 -0.53125q1.59375 -0.546875 2.484375 -1.859375q0.90625 -1.328125 0.90625 -3.296875q0 -2.21875 -1.1875 -3.578125q-1.1875 -1.375 -3.34375 -1.734375q-1.078125 -0.140625 -6.46875 -0.140625l-6.90625 0l0 11.140625zm44.638184 25.328125l0 -18.46875l-16.078125 -25.4375l10.390625 0l10.328125 17.375l10.125 -17.375l10.21875 0l-16.140625 25.484375l0 18.421875l-8.84375 0zm45.554993 0l0 -43.546875l8.859375 0l0 36.15625l22.046875 0l0 7.390625l-30.90625 0zm36.946045 0l0 -43.90625l8.875 0l0 43.90625l-8.875 0zm17.367065 0l0 -43.90625l30.09375 0l0 7.4375l-21.21875 0l0 10.390625l18.328125 0l0 7.421875l-18.328125 0l0 18.65625l-8.875 0zm37.414795 0l0 -43.90625l32.546875 0l0 7.4375l-23.6875 0l0 9.734375l22.03125 0l0 7.390625l-22.03125 0l0 11.953125l24.515625 0l0 7.390625l-33.375 0z" fill-rule="nonzero"/><path fill="#010000" fill-opacity="0.0" d="m650.4327 319.6681l0 0l0 70.52133l0 0l0 -70.52133z" fill-rule="nonzero"/></g></svg>