<svg version="1.1" viewBox="0.0 0.0 816.0 1056.0" fill="none" stroke="none" stroke-linecap="square" stroke-miterlimit="10" xmlns:xlink="http://www.w3.org/1999/xlink" xmlns="http://www.w3.org/2000/svg"><clipPath id="g2bed7475345_1_33.0"><path d="m0 0l816.0 0l0 1056.0l-816.0 0l0 -1056.0z" clip-rule="nonzero"/></clipPath><g clip-path="url(#g2bed7475345_1_33.0)"><path fill="#ffffff" d="m0 0l816.0 0l0 1056.0l-816.0 0z" fill-rule="evenodd"/><path fill="#000000" fill-opacity="0.0" d="m146.27559 321.16797l584.4095 0l0 362.2992l-584.4095 0z" fill-rule="evenodd"/><path fill="#ffffff" d="m155.27559 330.16797l330.71875 0l0 76.80002l-330.71875 0l0 -76.80002z" fill-rule="nonzero"/><path fill="#000000" fill-opacity="0.0" d="m155.27559 333.67047l330.71875 0l0 73.59375l-330.71875 0l0 -73.59375z" fill-rule="nonzero"/><path fill="#222222" d="m159.93184 391.60797l0 -45.8125l33.96875 0l0 7.75l-24.71875 0l0 10.15625l23.0 0l0 7.71875l-23.0 0l0 12.46875l25.59375 0l0 7.71875l-34.84375 0zm42.6875 0l0 -45.8125l14.84375 0q8.4375 0 11.0 0.6875q3.9375 1.03125 6.59375 4.484375q2.65625 3.453125 2.65625 8.921875q0 4.21875 -1.53125 7.09375q-1.53125 2.875 -3.890625 4.515625q-2.359375 1.640625 -4.796875 2.171875q-3.3125 0.65625 -9.59375 0.65625l-6.03125 0l0 17.28125l-9.25 0zm9.25 -38.0625l0 13.0l5.0625 0q5.46875 0 7.3125 -0.71875q1.84375 -0.71875 2.890625 -2.25q1.046875 -1.53125 1.046875 -3.5625q0 -2.5 -1.46875 -4.125q-1.46875 -1.625 -3.71875 -2.03125q-1.65625 -0.3125 -6.65625 -0.3125l-4.46875 0zm33.15625 38.0625l0 -45.8125l9.25 0l0 45.8125l-9.25 0zm18.312515 0l0 -45.4375l9.25 0l0 37.71875l23.0 0l0 7.71875l-32.25 0zm36.96875 -22.625q0 -7.0 2.09375 -11.75q1.5625 -3.5 4.265625 -6.28125q2.703125 -2.78125 5.921875 -4.125q4.28125 -1.8125 9.875 -1.8125q10.125 0 16.203125 6.28125q6.078125 6.28125 6.078125 17.46875q0 11.09375 -6.03125 17.359375q-6.03125 6.265625 -16.125 6.265625q-10.21875 0 -16.25 -6.234375q-6.03125 -6.234375 -6.03125 -17.171875zm9.53125 -0.3125q0 7.78125 3.59375 11.796875q3.59375 4.015625 9.125 4.015625q5.53125 0 9.078125 -3.984375q3.546875 -3.984375 3.546875 -11.953125q0 -7.875 -3.453125 -11.75q-3.453125 -3.875 -9.171875 -3.875q-5.71875 0 -9.21875 3.921875q-3.5 3.921875 -3.5 11.828125zm63.4375 6.09375l0 -7.71875l19.9375 0l0 18.25q-2.90625 2.8125 -8.421875 4.953125q-5.515625 2.140625 -11.171875 2.140625q-7.1875 0 -12.53125 -3.015625q-5.34375 -3.015625 -8.03125 -8.625q-2.6875 -5.609375 -2.6875 -12.203125q0 -7.15625 3.0 -12.71875q3.0 -5.5625 8.78125 -8.53125q4.40625 -2.28125 10.96875 -2.28125q8.53125 0 13.328125 3.578125q4.796875 3.578125 6.171875 9.890625l-9.1875 1.71875q-0.96875 -3.375 -3.640625 -5.328125q-2.671875 -1.953125 -6.671875 -1.953125q-6.0625 0 -9.640625 3.84375q-3.578125 3.84375 -3.578125 11.40625q0 8.15625 3.625 12.234375q3.625 4.078125 9.5 4.078125q2.90625 0 5.828125 -1.140625q2.921875 -1.140625 5.015625 -2.765625l0 -5.8125l-10.59375 0zm28.40625 -28.96875l9.25 0l0 24.8125q0 5.90625 0.34375 7.65625q0.59375 2.8125 2.828125 4.515625q2.234375 1.703125 6.109375 1.703125q3.9375 0 5.9375 -1.609375q2.0 -1.609375 2.40625 -3.953125q0.40625 -2.34375 0.40625 -7.78125l0 -25.34375l9.25 0l0 24.0625q0 8.25 -0.75 11.65625q-0.75 3.40625 -2.765625 5.75q-2.015625 2.34375 -5.390625 3.734375q-3.375 1.390625 -8.8125 1.390625q-6.5625 0 -9.953125 -1.515625q-3.390625 -1.515625 -5.359375 -3.9375q-1.96875 -2.421875 -2.59375 -5.078125q-0.90625 -3.9375 -0.90625 -11.625l0 -24.4375zm46.28125 45.8125l0 -45.8125l33.96875 0l0 7.75l-24.71875 0l0 10.15625l23.0 0l0 7.71875l-23.0 0l0 12.46875l25.59375 0l0 7.71875l-34.84375 0z" fill-rule="nonzero"/><path fill="#000000" fill-opacity="0.0" d="m485.99435 333.67047l0 0l0 73.59375l0 0l0 -73.59375z" fill-rule="nonzero"/><path fill="#ffffff" d="m155.27559 421.1548l484.71875 0l0 76.80002l-484.71875 0l0 -76.80002z" fill-rule="nonzero"/><path fill="#000000" fill-opacity="0.0" d="m155.27559 424.6573l484.71875 0l0 73.59375l-484.71875 0l0 -73.59375z" fill-rule="nonzero"/><path fill="#222222" d="m170.24434 482.5948l0 -38.0625l-13.59375 0l0 -7.75l36.40625 0l0 7.75l-13.5625 0l0 38.0625l-9.25 0zm28.8125 0l0 -45.8125l9.25 0l0 18.03125l18.125 0l0 -18.03125l9.25 0l0 45.8125l-9.25 0l0 -20.03125l-18.125 0l0 20.03125l-9.25 0zm46.1875 0l0 -45.8125l33.968765 0l0 7.75l-24.718765 0l0 10.15625l23.000015 0l0 7.71875l-23.000015 0l0 12.46875l25.593765 0l0 7.71875l-34.843765 0zm99.406265 0l-10.0625 0l-4.0 -10.40625l-18.3125 0l-3.78125 10.40625l-9.8125 0l17.84375 -45.8125l9.78125 0l18.34375 45.8125zm-17.03125 -18.125l-6.3125 -17.0l-6.1875 17.0l12.5 0zm21.65625 18.125l0 -45.8125l9.25 0l0 45.8125l-9.25 0zm35.71875 0l0 -45.8125l13.84375 0l8.3125 31.25l8.21875 -31.25l13.875 0l0 45.8125l-8.59375 0l0 -36.0625l-9.09375 36.0625l-8.90625 0l-9.0625 -36.0625l0 36.0625l-8.59375 0zm53.15625 0l0 -45.8125l9.25 0l0 45.8125l-9.25 0zm18.09375 0l0 -45.8125l19.46875 0q7.34375 0 10.671875 1.234375q3.328125 1.234375 5.328125 4.390625q2.0 3.15625 2.0 7.21875q0 5.15625 -3.03125 8.515625q-3.03125 3.359375 -9.0625 4.234375q3.0 1.75 4.953125 3.84375q1.953125 2.09375 5.265625 7.4375l5.59375 8.9375l-11.0625 0l-6.6875 -9.96875q-3.5625 -5.34375 -4.875 -6.734375q-1.3125 -1.390625 -2.78125 -1.90625q-1.46875 -0.515625 -4.65625 -0.515625l-1.875 0l0 19.125l-9.25 0zm9.25 -26.4375l6.84375 0q6.65625 0 8.3125 -0.5625q1.65625 -0.5625 2.59375 -1.9375q0.9375 -1.375 0.9375 -3.4375q0 -2.3125 -1.234375 -3.734375q-1.234375 -1.421875 -3.484375 -1.796875q-1.125 -0.15625 -6.75 -0.15625l-7.21875 0l0 11.625zm36.96875 26.4375l0 -45.8125l19.46872 0q7.34375 0 10.671875 1.234375q3.328125 1.234375 5.328125 4.390625q2.0 3.15625 2.0 7.21875q0 5.15625 -3.03125 8.515625q-3.03125 3.359375 -9.0625 4.234375q3.0 1.75 4.953125 3.84375q1.953125 2.09375 5.265625 7.4375l5.59375 8.9375l-11.0625 0l-6.6875 -9.96875q-3.5625 -5.34375 -4.875 -6.734375q-1.3125 -1.390625 -2.78125 -1.90625q-1.46875 -0.515625 -4.65625 -0.515625l-1.8749695 0l0 19.125l-9.25 0zm9.25 -26.4375l6.8437195 0q6.65625 0 8.3125 -0.5625q1.65625 -0.5625 2.59375 -1.9375q0.9375 -1.375 0.9375 -3.4375q0 -2.3125 -1.234375 -3.734375q-1.234375 -1.421875 -3.484375 -1.796875q-1.125 -0.15625 -6.75 -0.15625l-7.2187195 0l0 11.625zm35.06247 3.8125q0 -7.0 2.09375 -11.75q1.5625 -3.5 4.265625 -6.28125q2.703125 -2.78125 5.921875 -4.125q4.28125 -1.8125 9.875 -1.8125q10.125 0 16.203125 6.28125q6.078125 6.28125 6.078125 17.46875q0 11.09375 -6.03125 17.359375q-6.03125 6.265625 -16.125 6.265625q-10.21875 0 -16.25 -6.234375q-6.03125 -6.234375 -6.03125 -17.171875zm9.53125 -0.3125q0 7.78125 3.59375 11.796875q3.59375 4.015625 9.125 4.015625q5.53125 0 9.078125 -3.984375q3.546875 -3.984375 3.546875 -11.953125q0 -7.875 -3.453125 -11.75q-3.453125 -3.875 -9.171875 -3.875q-5.71875 0 -9.21875 3.921875q-3.5 3.921875 -3.5 11.828125zm42.15625 22.9375l0 -45.8125l19.46875 0q7.34375 0 10.671875 1.234375q3.328125 1.234375 5.328125 4.390625q2.0 3.15625 2.0 7.21875q0 5.15625 -3.03125 8.515625q-3.03125 3.359375 -9.0625 4.234375q3.0 1.75 4.953125 3.84375q1.953125 2.09375 5.265625 7.4375l5.59375 8.9375l-11.0625 0l-6.6875 -9.96875q-3.5625 -5.34375 -4.875 -6.734375q-1.3125 -1.390625 -2.78125 -1.90625q-1.46875 -0.515625 -4.65625 -0.515625l-1.875 0l0 19.125l-9.25 0zm9.25 -26.4375l6.84375 0q6.65625 0 8.3125 -0.5625q1.65625 -0.5625 2.59375 -1.9375q0.9375 -1.375 0.9375 -3.4375q0 -2.3125 -1.234375 -3.734375q-1.234375 -1.421875 -3.484375 -1.796875q-1.125 -0.15625 -6.75 -0.15625l-7.21875 0l0 11.625z" fill-rule="nonzero"/><path fill="#010000" fill-opacity="0.0" d="m639.9943 424.6573l0 0l0 73.59375l0 0l0 -73.59375z" fill-rule="nonzero"/><path fill="#ffffff" d="m155.27559 512.14166l504.02258 0l0 51.19995l-504.02258 0l0 -51.19995z" fill-rule="nonzero"/><path fill="#000000" fill-opacity="0.0" d="m155.27559 514.4861l504.02258 0l0 49.050476l-504.02258 0l0 -49.050476z" fill-rule="nonzero"/><path fill="#999999" d="m158.40059 522.5704l12.203125 0q3.625 0 5.40625 0.296875q1.78125 0.296875 3.1875 1.265625q1.40625 0.953125 2.34375 2.546875q0.9375 1.59375 0.9375 3.578125q0 2.140625 -1.15625 3.9375q-1.15625 1.78125 -3.140625 2.6875q2.796875 0.8125 4.296875 2.765625q1.5 1.953125 1.5 4.59375q0 2.09375 -0.96875 4.0625q-0.96875 1.96875 -2.65625 3.140625q-1.671875 1.171875 -4.125 1.453125q-1.546875 0.15625 -7.4375 0.203125l-10.390625 0l0 -30.53125zm6.171875 5.078125l0 7.0625l4.03125 0q3.609375 0 4.484375 -0.109375q1.578125 -0.1875 2.484375 -1.09375q0.90625 -0.90625 0.90625 -2.375q0 -1.421875 -0.78125 -2.296875q-0.78125 -0.890625 -2.328125 -1.078125q-0.90625 -0.109375 -5.265625 -0.109375l-3.53125 0zm0 12.140625l0 8.171875l5.703125 0q3.328125 0 4.21875 -0.1875q1.375 -0.25 2.234375 -1.21875q0.875 -0.96875 0.875 -2.59375q0 -1.375 -0.671875 -2.328125q-0.65625 -0.96875 -1.921875 -1.40625q-1.265625 -0.4375 -5.46875 -0.4375l-4.96875 0zm52.148727 13.3125l-6.703125 0l-2.671875 -6.9375l-12.203125 0l-2.515625 6.9375l-6.546875 0l11.890625 -30.53125l6.515625 0l12.234375 30.53125zm-11.359375 -12.078125l-4.203125 -11.328125l-4.125 11.328125l8.328125 0zm34.164352 0.859375l5.984375 1.890625q-1.375 5.0 -4.578125 7.421875q-3.203125 2.421875 -8.109375 2.421875q-6.078125 0 -10.0 -4.15625q-3.921875 -4.15625 -3.921875 -11.359375q0 -7.625 3.9375 -11.84375q3.9375 -4.21875 10.359375 -4.21875q5.59375 0 9.09375 3.3125q2.09375 1.96875 3.125 5.625l-6.09375 1.46875q-0.546875 -2.375 -2.265625 -3.75q-1.71875 -1.375 -4.171875 -1.375q-3.40625 0 -5.515625 2.4375q-2.109375 2.4375 -2.109375 7.890625q0 5.78125 2.078125 8.25q2.078125 2.453125 5.421875 2.453125q2.453125 0 4.21875 -1.5625q1.78125 -1.5625 2.546875 -4.90625zm11.351852 11.21875l0 -30.53125l6.171875 0l0 13.5625l12.453125 -13.5625l8.28125 0l-11.5 11.890625l12.125 18.640625l-7.96875 0l-8.40625 -14.328125l-4.984375 5.09375l0 9.234375l-6.171875 0zm49.453125 0l0 -25.375l-9.0625 0l0 -5.15625l24.265625 0l0 5.15625l-9.046875 0l0 25.375l-6.15625 0zm17.160309 -15.078125q0 -4.671875 1.390625 -7.828125q1.046875 -2.34375 2.84375 -4.1875q1.796875 -1.859375 3.953125 -2.75q2.84375 -1.21875 6.578125 -1.21875q6.75 0 10.796875 4.1875q4.046875 4.1875 4.046875 11.65625q0 7.390625 -4.015625 11.5625q-4.015625 4.171875 -10.75 4.171875q-6.8125 0 -10.828125 -4.15625q-4.015625 -4.15625 -4.015625 -11.4375zm6.34375 -0.203125q0 5.171875 2.390625 7.859375q2.40625 2.671875 6.09375 2.671875q3.6875 0 6.046875 -2.65625q2.359375 -2.65625 2.359375 -7.96875q0 -5.25 -2.296875 -7.828125q-2.296875 -2.578125 -6.109375 -2.578125q-3.8125 0 -6.15625 2.609375q-2.328125 2.609375 -2.328125 7.890625zm46.81192 15.28125l0 -25.375l-9.0625 0l0 -5.15625l24.265625 0l0 5.15625l-9.046875 0l0 25.375l-6.15625 0zm19.196777 0l0 -30.53125l6.171875 0l0 12.015625l12.078125 0l0 -12.015625l6.15625 0l0 30.53125l-6.15625 0l0 -13.34375l-12.078125 0l0 13.34375l-6.171875 0zm30.789368 0l0 -30.53125l22.640625 0l0 5.15625l-16.484375 0l0 6.78125l15.328125 0l0 5.140625l-15.328125 0l0 8.3125l17.0625 0l0 5.140625l-23.21875 0zm40.302673 0l0 -30.53125l9.890625 0q5.625 0 7.328125 0.453125q2.625 0.6875 4.390625 3.0q1.78125 2.296875 1.78125 5.9375q0 2.8125 -1.03125 4.734375q-1.015625 1.90625 -2.59375 3.0q-1.5625 1.09375 -3.1875 1.453125q-2.21875 0.4375 -6.40625 0.4375l-4.015625 0l0 11.515625l-6.15625 0zm6.15625 -25.375l0 8.671875l3.375 0q3.640625 0 4.875 -0.46875q1.234375 -0.484375 1.921875 -1.5q0.703125 -1.03125 0.703125 -2.390625q0 -1.65625 -0.984375 -2.734375q-0.96875 -1.09375 -2.46875 -1.359375q-1.109375 -0.21875 -4.4375 -0.21875l-2.984375 0zm22.31076 25.375l0 -30.53125l12.96875 0q4.90625 0 7.125 0.828125q2.21875 0.8125 3.546875 2.921875q1.328125 2.09375 1.328125 4.8125q0 3.4375 -2.015625 5.671875q-2.015625 2.234375 -6.046875 2.828125q2.0 1.15625 3.296875 2.5625q1.3125 1.390625 3.515625 4.953125l3.734375 5.953125l-7.375 0l-4.453125 -6.640625q-2.375 -3.5625 -3.25 -4.484375q-0.875 -0.9375 -1.859375 -1.28125q-0.984375 -0.34375 -3.09375 -0.34375l-1.25 0l0 12.75l-6.171875 0zm6.171875 -17.625l4.546875 0q4.4375 0 5.546875 -0.375q1.109375 -0.375 1.734375 -1.28125q0.625 -0.921875 0.625 -2.296875q0 -1.546875 -0.828125 -2.484375q-0.828125 -0.953125 -2.328125 -1.203125q-0.75 -0.109375 -4.5 -0.109375l-4.796875 0l0 7.75zm24.617432 17.625l0 -30.53125l22.640625 0l0 5.15625l-16.484375 0l0 6.78125l15.328125 0l0 5.140625l-15.328125 0l0 8.3125l17.0625 0l0 5.140625l-23.21875 0zm26.888916 -9.9375l6.0 -0.578125q0.53125 3.015625 2.1875 4.4375q1.65625 1.40625 4.46875 1.40625q2.984375 0 4.484375 -1.25q1.515625 -1.265625 1.515625 -2.953125q0 -1.078125 -0.640625 -1.828125q-0.625 -0.765625 -2.21875 -1.328125q-1.078125 -0.375 -4.9375 -1.34375q-4.953125 -1.21875 -6.953125 -3.015625q-2.8125 -2.515625 -2.8125 -6.140625q0 -2.34375 1.328125 -4.375q1.328125 -2.03125 3.8125 -3.09375q2.484375 -1.0625 6.0 -1.0625q5.75 0 8.65625 2.53125q2.90625 2.515625 3.0625 6.71875l-6.171875 0.28125q-0.390625 -2.359375 -1.703125 -3.390625q-1.296875 -1.03125 -3.90625 -1.03125q-2.6875 0 -4.203125 1.109375q-0.96875 0.703125 -0.96875 1.890625q0 1.078125 0.90625 1.859375q1.171875 0.96875 5.671875 2.03125q4.5 1.0625 6.65625 2.203125q2.15625 1.140625 3.375 3.109375q1.21875 1.96875 1.21875 4.859375q0 2.625 -1.46875 4.921875q-1.453125 2.28125 -4.125 3.40625q-2.65625 1.109375 -6.640625 1.109375q-5.78125 0 -8.890625 -2.671875q-3.109375 -2.6875 -3.703125 -7.8125zm30.013855 9.9375l0 -30.53125l22.640625 0l0 5.15625l-16.484375 0l0 6.78125l15.328125 0l0 5.140625l-15.328125 0l0 8.3125l17.0625 0l0 5.140625l-23.21875 0zm28.513916 0l0 -30.53125l6.0 0l12.484375 20.390625l0 -20.390625l5.734375 0l0 30.53125l-6.1875 0l-12.3125 -19.90625l0 19.90625l-5.71875 0zm37.61743 0l0 -25.375l-9.0625 0l0 -5.15625l24.265625 0l0 5.15625l-9.046875 0l0 25.375l-6.15625 0z" fill-rule="nonzero"/><path fill="#000000" fill-opacity="0.0" d="m659.29816 514.4861l0 0l0 49.050476l0 0l0 -49.050476z" fill-rule="nonzero"/><path fill="#000000" fill-opacity="0.0" d="m155.27559 578.0665l0 0l0 91.99219l0 0l0 -91.99219z" fill-rule="nonzero"/></g></svg>