<svg version="1.1" viewBox="0.0 0.0 816.0 1056.0" fill="none" stroke="none" stroke-linecap="square" stroke-miterlimit="10" xmlns:xlink="http://www.w3.org/1999/xlink" xmlns="http://www.w3.org/2000/svg"><clipPath id="g237a0a82111_1_24.0"><path d="m0 0l816.0 0l0 1056.0l-816.0 0l0 -1056.0z" clip-rule="nonzero"/></clipPath><g clip-path="url(#g237a0a82111_1_24.0)"><path fill="#ffffff" d="m0 0l816.0 0l0 1056.0l-816.0 0z" fill-rule="evenodd"/><path fill="#000000" fill-opacity="0.0" d="m79.71916 338.40945l635.874 0l0 506.23624l-635.874 0z" fill-rule="evenodd"/><path fill="#ffffff" d="m88.71916 347.40945l553.46875 0l0 76.79999l-553.46875 0l0 -76.79999z" fill-rule="nonzero"/><path fill="#000000" fill-opacity="0.0" d="m88.71916 350.91196l553.46875 0l0 73.59375l-553.46875 0l0 -73.59375z" fill-rule="nonzero"/><path fill="#222222" d="m93.46916 408.84946l0 -45.8125l9.0 0l18.75 30.59375l0 -30.59375l8.59375 0l0 45.8125l-9.28125 0l-18.46875 -29.875l0 29.875l-8.59375 0zm46.125 0l0 -45.8125l33.96875 0l0 7.75l-24.71875 0l0 10.15625l23.0 0l0 7.71875l-23.0 0l0 12.46875l25.59375 0l0 7.71875l-34.84375 0zm49.1875 0l-10.9375 -45.8125l9.46875 0l6.90625 31.46875l8.375 -31.46875l11.0 0l8.03125 32.0l7.03125 -32.0l9.3125 0l-11.125 45.8125l-9.8125 0l-9.125 -34.25l-9.09375 34.25l-10.03125 0zm71.687485 0l0 -45.8125l14.84375 0q8.4375 0 11.0 0.6875q3.9375 1.03125 6.59375 4.484375q2.65625 3.453125 2.65625 8.921875q0 4.21875 -1.53125 7.09375q-1.53125 2.875 -3.890625 4.515625q-2.359375 1.640625 -4.796875 2.171875q-3.3125 0.65625 -9.59375 0.65625l-6.03125 0l0 17.28125l-9.25 0zm9.25 -38.0625l0 13.0l5.0625 0q5.46875 0 7.3125 -0.71875q1.84375 -0.71875 2.890625 -2.25q1.046875 -1.53125 1.046875 -3.5625q0 -2.5 -1.46875 -4.125q-1.46875 -1.625 -3.71875 -2.03125q-1.65625 -0.3125 -6.65625 -0.3125l-4.46875 0zm70.0 38.0625l-10.0625 0l-4.0 -10.40625l-18.3125 0l-3.78125 10.40625l-9.8125 0l17.84375 -45.8125l9.78125 0l18.34375 45.8125zm-17.03125 -18.125l-6.3125 -17.0l-6.1875 17.0l12.5 0zm21.96875 18.125l0 -45.8125l19.46875 0q7.34375 0 10.671875 1.234375q3.328125 1.234375 5.328125 4.390625q2.0 3.15625 2.0 7.21875q0 5.15625 -3.03125 8.515625q-3.03125 3.359375 -9.0625 4.234375q3.0 1.75 4.953125 3.84375q1.953125 2.09375 5.265625 7.4375l5.59375 8.9375l-11.0625 0l-6.6875 -9.96875q-3.5625 -5.34375 -4.875 -6.734375q-1.3125 -1.390625 -2.78125 -1.90625q-1.46875 -0.515625 -4.65625 -0.515625l-1.875 0l0 19.125l-9.25 0zm9.25 -26.4375l6.84375 0q6.65625 0 8.3125 -0.5625q1.65625 -0.5625 2.59375 -1.9375q0.9375 -1.375 0.9375 -3.4375q0 -2.3125 -1.234375 -3.734375q-1.234375 -1.421875 -3.484375 -1.796875q-1.125 -0.15625 -6.75 -0.15625l-7.21875 0l0 11.625zm78.25 26.4375l-10.0625 0l-4.0 -10.40625l-18.3125 0l-3.78125 10.40625l-9.8125 0l17.84375 -45.8125l9.78125 0l18.34375 45.8125zm-17.03125 -18.125l-6.3125 -17.0l-6.1875 17.0l12.5 0zm21.90625 -27.6875l16.90625 0q5.71875 0 8.71875 0.875q4.03125 1.1875 6.90625 4.21875q2.875 3.03125 4.375 7.421875q1.5 4.390625 1.5 10.828125q0 5.65625 -1.40625 9.75q-1.71875 5.0 -4.90625 8.09375q-2.40625 2.34375 -6.5 3.65625q-3.0625 0.96875 -8.1875 0.96875l-17.40625 0l0 -45.8125zm9.25 7.75l0 30.34375l6.90625 0q3.875 0 5.59375 -0.4375q2.25 -0.5625 3.734375 -1.90625q1.484375 -1.34375 2.421875 -4.421875q0.9375 -3.078125 0.9375 -8.390625q0 -5.3125 -0.9375 -8.15625q-0.9375 -2.84375 -2.625 -4.4375q-1.6875 -1.59375 -4.28125 -2.15625q-1.9375 -0.4375 -7.59375 -0.4375l-4.15625 0zm36.71875 38.0625l0 -45.8125l9.25 0l0 45.8125l-9.25 0zm39.37503 -16.84375l0 -7.71875l19.9375 0l0 18.25q-2.90625 2.8125 -8.421875 4.953125q-5.515625 2.140625 -11.171875 2.140625q-7.1875 0 -12.5312805 -3.015625q-5.34375 -3.015625 -8.03125 -8.625q-2.6875 -5.609375 -2.6875 -12.203125q0 -7.15625 3.0 -12.71875q3.0 -5.5625 8.78125 -8.53125q4.4062805 -2.28125 10.9687805 -2.28125q8.53125 0 13.328125 3.578125q4.796875 3.578125 6.171875 9.890625l-9.1875 1.71875q-0.96875 -3.375 -3.640625 -5.328125q-2.671875 -1.953125 -6.671875 -1.953125q-6.0625 0 -9.640625 3.84375q-3.5781555 3.84375 -3.5781555 11.40625q0 8.15625 3.6250305 12.234375q3.625 4.078125 9.5 4.078125q2.90625 0 5.828125 -1.140625q2.921875 -1.140625 5.015625 -2.765625l0 -5.8125l-10.59375 0zm28.34375 16.84375l0 -45.8125l13.84375 0l8.3125 31.25l8.21875 -31.25l13.875 0l0 45.8125l-8.59375 0l0 -36.0625l-9.09375 36.0625l-8.90625 0l-9.0625 -36.0625l0 36.0625l-8.59375 0zm51.09375 -14.90625l9.0 -0.875q0.8125 4.53125 3.296875 6.65625q2.484375 2.125 6.703125 2.125q4.46875 0 6.734375 -1.890625q2.265625 -1.890625 2.265625 -4.421875q0 -1.625 -0.953125 -2.765625q-0.953125 -1.140625 -3.328125 -1.984375q-1.625 -0.5625 -7.40625 -2.0q-7.4375 -1.84375 -10.4375 -4.53125q-4.21875 -3.78125 -4.21875 -9.21875q0 -3.5 1.984375 -6.546875q1.984375 -3.046875 5.71875 -4.640625q3.734375 -1.59375 9.015625 -1.59375q8.625 0 12.984375 3.78125q4.359375 3.78125 4.578125 10.09375l-9.25 0.40625q-0.59375 -3.53125 -2.546875 -5.078125q-1.953125 -1.546875 -5.859375 -1.546875q-4.03125 0 -6.3125 1.65625q-1.46875 1.0625 -1.46875 2.84375q0 1.625 1.375 2.78125q1.75 1.46875 8.5 3.0625q6.75 1.59375 9.984375 3.296875q3.234375 1.703125 5.0625 4.65625q1.828125 2.953125 1.828125 7.296875q0 3.9375 -2.1875 7.375q-2.1875 3.4375 -6.1875 5.109375q-4.0 1.671875 -9.96875 1.671875q-8.6875 0 -13.34375 -4.015625q-4.65625 -4.015625 -5.5625 -11.703125z" fill-rule="nonzero"/><path fill="#000000" fill-opacity="0.0" d="m642.1879 350.91196l0 0l0 73.59375l0 0l0 -73.59375z" fill-rule="nonzero"/><path fill="#ffffff" d="m88.71916 438.39627l521.46875 0l0 76.80002l-521.46875 0l0 -76.80002z" fill-rule="nonzero"/><path fill="#000000" fill-opacity="0.0" d="m88.71916 441.89877l521.46875 0l0 73.59372l-521.46875 0l0 -73.59372z" fill-rule="nonzero"/><path fill="#888888" d="m93.09416 499.83627l0 -45.8125l9.25 0l0 45.8125l-9.25 0zm18.15625 0l0 -45.8125l9.0 0l18.75 30.59375l0 -30.59375l8.59375 0l0 45.8125l-9.28125 0l-18.46875 -29.875l0 29.875l-8.59375 0zm63.90625 0l0 -45.8125l33.96875 0l0 7.75l-24.71875 0l0 10.15625l23.0 0l0 7.71875l-23.0 0l0 12.46875l25.59375 0l0 7.71875l-34.84375 0zm42.65625 -45.8125l16.90625 0q5.71875 0 8.71875 0.875q4.03125 1.1875 6.90625 4.21875q2.875 3.03125 4.375 7.421875q1.4999847 4.390625 1.4999847 10.828125q0 5.65625 -1.4062347 9.75q-1.71875 5.0 -4.90625 8.09375q-2.40625 2.34375 -6.5 3.65625q-3.0625 0.96875 -8.1875 0.96875l-17.40625 0l0 -45.8125zm9.25 7.75l0 30.34375l6.90625 0q3.875 0 5.59375 -0.4375q2.25 -0.5625 3.734375 -1.90625q1.484375 -1.34375 2.421875 -4.421875q0.9375 -3.078125 0.9375 -8.390625q0 -5.3125 -0.9375 -8.15625q-0.9375 -2.84375 -2.625 -4.4375q-1.6875 -1.59375 -4.28125 -2.15625q-1.9375 -0.4375 -7.59375 -0.4375l-4.15625 0zm36.937485 -7.75l9.25 0l0 24.8125q0 5.90625 0.34375 7.65625q0.59375 2.8125 2.828125 4.515625q2.234375 1.703125 6.109375 1.703125q3.9375 0 5.9375 -1.609375q2.0 -1.609375 2.40625 -3.953125q0.40625 -2.34375 0.40625 -7.78125l0 -25.34375l9.25 0l0 24.0625q0 8.25 -0.75 11.65625q-0.75 3.40625 -2.765625 5.75q-2.015625 2.34375 -5.390625 3.734375q-3.375 1.390625 -8.8125 1.390625q-6.5625 0 -9.953125 -1.515625q-3.390625 -1.515625 -5.359375 -3.9375q-1.96875 -2.421875 -2.59375 -5.078125q-0.90625 -3.9375 -0.90625 -11.625l0 -24.4375zm75.59375 28.96875l8.96875 2.84375q-2.0625 7.5 -6.859375 11.140625q-4.796875 3.640625 -12.171875 3.640625q-9.125 0 -15.0 -6.234375q-5.875 -6.234375 -5.875 -17.046875q0 -11.4375 5.90625 -17.765625q5.90625 -6.328125 15.53125 -6.328125q8.40625 0 13.65625 4.96875q3.125 2.9375 4.6875 8.4375l-9.15625 2.1875q-0.8125 -3.5625 -3.390625 -5.625q-2.578125 -2.0625 -6.265625 -2.0625q-5.09375 0 -8.265625 3.65625q-3.171875 3.65625 -3.171875 11.84375q0 8.6875 3.125 12.375q3.125 3.6875 8.125 3.6875q3.6875 0 6.34375 -2.34375q2.65625 -2.34375 3.8125 -7.375zm58.21875 16.84375l-10.0625 0l-4.0 -10.40625l-18.3125 0l-3.78125 10.40625l-9.8125 0l17.84375 -45.8125l9.78125 0l18.34375 45.8125zm-17.03125 -18.125l-6.3125 -17.0l-6.1875 17.0l12.5 0zm27.5 18.125l0 -38.0625l-13.59375 0l0 -7.75l36.40625 0l0 7.75l-13.5625 0l0 38.0625l-9.25 0zm28.5 0l0 -45.8125l9.25 0l0 45.8125l-9.25 0zm16.1875 -22.625q0 -7.0 2.09375 -11.75q1.5625 -3.5 4.265625 -6.28125q2.703125 -2.78125 5.921875 -4.125q4.28125 -1.8125 9.875 -1.8125q10.125 0 16.203125 6.28125q6.078125 6.28125 6.078125 17.46875q0 11.09375 -6.03125 17.359375q-6.03125 6.265625 -16.125 6.265625q-10.21875 0 -16.25 -6.234375q-6.03125 -6.234375 -6.03125 -17.171875zm9.53125 -0.3125q0 7.78125 3.59375 11.796875q3.59375 4.015625 9.125 4.015625q5.53125 0 9.078125 -3.984375q3.546875 -3.984375 3.546875 -11.953125q0 -7.875 -3.453125 -11.75q-3.453125 -3.875 -9.171875 -3.875q-5.71875 0 -9.21875 3.921875q-3.5 3.921875 -3.5 11.828125zm42.21875 22.9375l0 -45.8125l9.0000305 0l18.75 30.59375l0 -30.59375l8.59375 0l0 45.8125l-9.28125 0l-18.46875 -29.875l0 29.875l-8.5937805 0zm104.43753 -5.59375l-5.3125 6.78125q-3.90625 -1.90625 -7.5 -5.25q-2.78125 2.5 -5.90625 3.6875q-3.125 1.1875 -7.4375 1.1875q-8.5625 0 -12.875 -4.8125q-3.34375 -3.71875 -3.34375 -8.5625q0 -4.40625 2.625 -7.921875q2.625 -3.515625 7.84375 -6.109375q-2.34375 -2.78125 -3.53125 -5.296875q-1.1875 -2.515625 -1.1875 -4.765625q0 -4.15625 3.328125 -7.046875q3.328125 -2.890625 9.484375 -2.890625q5.9375 0 9.28125 3.03125q3.34375 3.03125 3.34375 7.40625q0 2.78125 -1.65625 5.28125q-1.65625 2.5 -6.6875 5.65625l6.375 8.40625q1.125 -2.0 1.9375 -5.21875l7.9375 1.8125q-1.1875 4.21875 -2.0625 6.171875q-0.875 1.953125 -1.875 3.265625q1.46875 1.375 3.796875 3.015625q2.328125 1.640625 3.421875 2.171875zm-23.90625 -24.90625l2.375 -1.8125q2.625 -2.03125 2.625 -4.03125q0 -1.6875 -1.265625 -2.875q-1.265625 -1.1875 -3.421875 -1.1875q-2.09375 0 -3.28125 1.046875q-1.1875 1.046875 -1.1875 2.421875q0 1.625 2.0 3.9375l2.15625 2.5zm-3.4375 9.53125q-3.03125 1.53125 -4.53125 3.6875q-1.5 2.15625 -1.5 4.40625q0 2.84375 1.859375 4.640625q1.859375 1.796875 4.984375 1.796875q2.0625 0 3.96875 -0.8125q1.90625 -0.8125 4.15625 -2.6875l-8.9375 -11.03125z" fill-rule="nonzero"/><path fill="#000000" fill-opacity="0.0" d="m610.1879 441.89877l0 0l0 73.59372l0 0l0 -73.59372z" fill-rule="nonzero"/><path fill="#ffffff" d="m88.71916 529.3831l423.09375 0l0 76.79999l-423.09375 0l0 -76.79999z" fill-rule="nonzero"/><path fill="#000000" fill-opacity="0.0" d="m88.71916 532.8856l423.09375 0l0 73.59369l-423.09375 0l0 -73.59369z" fill-rule="nonzero"/><path fill="#888888" d="m93.50041 590.8231l0 -45.8125l9.25 0l0 20.34375l18.6875 -20.34375l12.4375 0l-17.25 17.84375l18.1875 27.96875l-11.96875 0l-12.59375 -21.5l-7.5 7.65625l0 13.84375l-9.25 0zm46.1875 0l0 -45.8125l9.0 0l18.75 30.59375l0 -30.59375l8.59375 0l0 45.8125l-9.28125 0l-18.46875 -29.875l0 29.875l-8.59375 0zm44.25 -22.625q0 -7.0 2.09375 -11.75q1.5625 -3.5 4.265625 -6.28125q2.703125 -2.78125 5.921875 -4.125q4.28125 -1.8125 9.875 -1.8125q10.125 0 16.203125 6.28125q6.078125 6.28125 6.078125 17.46875q0 11.09375 -6.03125 17.359375q-6.03125 6.265625 -16.125 6.265625q-10.21875 0 -16.25 -6.234375q-6.03125 -6.234375 -6.03125 -17.171875zm9.53125 -0.3125q0 7.78125 3.59375 11.796875q3.59375 4.015625 9.125 4.015625q5.53125 0 9.078125 -3.984375q3.546875 -3.984375 3.546875 -11.953125q0 -7.875 -3.453125 -11.75q-3.453125 -3.875 -9.171875 -3.875q-5.71875 0 -9.21875 3.921875q-3.5 3.921875 -3.5 11.828125zm48.625 22.9375l-10.9375 -45.8125l9.46875 0l6.90625 31.46875l8.375 -31.46875l10.999985 0l8.03125 32.0l7.03125 -32.0l9.3125 0l-11.125 45.8125l-9.8125 0l-9.125 -34.25l-9.093735 34.25l-10.03125 0zm54.156235 0l0 -45.4375l9.25 0l0 37.71875l23.0 0l0 7.71875l-32.25 0zm38.84375 0l0 -45.8125l33.96875 0l0 7.75l-24.71875 0l0 10.15625l23.0 0l0 7.71875l-23.0 0l0 12.46875l25.59375 0l0 7.71875l-34.84375 0zm42.65625 -45.8125l16.90625 0q5.71875 0 8.71875 0.875q4.03125 1.1875 6.90625 4.21875q2.875 3.03125 4.375 7.421875q1.5 4.390625 1.5 10.828125q0 5.65625 -1.40625 9.75q-1.71875 5.0 -4.90625 8.09375q-2.40625 2.34375 -6.5 3.65625q-3.0625 0.96875 -8.1875 0.96875l-17.40625 0l0 -45.8125zm9.25 7.75l0 30.34375l6.90625 0q3.875 0 5.59375 -0.4375q2.25 -0.5625 3.734375 -1.90625q1.484375 -1.34375 2.421875 -4.421875q0.9375 -3.078125 0.9375 -8.390625q0 -5.3125 -0.9375 -8.15625q-0.9375 -2.84375 -2.625 -4.4375q-1.6875 -1.59375 -4.28125 -2.15625q-1.9375 -0.4375 -7.59375 -0.4375l-4.15625 0zm58.3125 21.21875l0 -7.71875l19.9375 0l0 18.25q-2.90625 2.8125 -8.421875 4.953125q-5.515625 2.140625 -11.171875 2.140625q-7.1875 0 -12.53125 -3.015625q-5.34375 -3.015625 -8.03125 -8.625q-2.6875 -5.609375 -2.6875 -12.203125q0 -7.15625 3.0 -12.71875q3.0 -5.5625 8.78125 -8.53125q4.40625 -2.28125 10.96875 -2.28125q8.53125 0 13.328125 3.578125q4.796875 3.578125 6.171875 9.890625l-9.1875 1.71875q-0.96875 -3.375 -3.640625 -5.328125q-2.671875 -1.953125 -6.671875 -1.953125q-6.0625 0 -9.640625 3.84375q-3.578125 3.84375 -3.578125 11.40625q0 8.15625 3.625 12.234375q3.625 4.078125 9.5 4.078125q2.90625 0 5.828125 -1.140625q2.921875 -1.140625 5.015625 -2.765625l0 -5.8125l-10.59375 0zm28.46875 16.84375l0 -45.8125l33.96875 0l0 7.75l-24.71875 0l0 10.15625l23.0 0l0 7.71875l-23.0 0l0 12.46875l25.59375 0l0 7.71875l-34.84375 0z" fill-rule="nonzero"/><path fill="#000000" fill-opacity="0.0" d="m511.8129 532.8856l0 0l0 73.59369l0 0l0 -73.59369z" fill-rule="nonzero"/><path fill="#000000" fill-opacity="0.0" d="m397.65616 624.748l0 0l0 91.99219l0 0l0 -91.99219z" fill-rule="nonzero"/><path fill="#000000" fill-opacity="0.0" d="m88.71916 737.8148l0 0l0 91.99219l0 0l0 -91.99219z" fill-rule="nonzero"/></g></svg>