<svg version="1.1" viewBox="0.0 0.0 816.0 1056.0" fill="none" stroke="none" stroke-linecap="square" stroke-miterlimit="10" xmlns:xlink="http://www.w3.org/1999/xlink" xmlns="http://www.w3.org/2000/svg"><clipPath id="g2940ad5a13a_0_284.0"><path d="m0 0l816.0 0l0 1056.0l-816.0 0l0 -1056.0z" clip-rule="nonzero"/></clipPath><g clip-path="url(#g2940ad5a13a_0_284.0)"><path fill="#ffffff" d="m0 0l816.0 0l0 1056.0l-816.0 0z" fill-rule="evenodd"/><path fill="#000000" fill-opacity="0.0" d="m130.7559 301.56955l578.9921 0l0 313.88974l-578.9921 0z" fill-rule="evenodd"/><path fill="#000000" d="m144.3809 326.19705l16.90625 0q5.71875 0 8.71875 0.875q4.03125 1.1875 6.90625 4.21875q2.875 3.03125 4.375 7.421875q1.5 4.390625 1.5 10.828125q0 5.65625 -1.40625 9.75q-1.71875 5.0 -4.90625 8.09375q-2.40625 2.34375 -6.5 3.65625q-3.0625 0.96875 -8.1875 0.96875l-17.40625 0l0 -45.8125zm9.25 7.75l0 30.34375l6.90625 0q3.875 0 5.59375 -0.4375q2.25 -0.5625 3.734375 -1.90625q1.484375 -1.34375 2.421875 -4.421875q0.9375 -3.078125 0.9375 -8.390625q0 -5.3125 -0.9375 -8.15625q-0.9375 -2.84375 -2.625 -4.4375q-1.6875 -1.59375 -4.28125 -2.15625q-1.9375 -0.4375 -7.59375 -0.4375l-4.15625 0zm37.0 38.0625l0 -45.8125l33.96875 0l0 7.75l-24.71875 0l0 10.15625l23.0 0l0 7.71875l-23.0 0l0 12.46875l25.59375 0l0 7.71875l-34.84375 0zm84.000015 0l-10.0625 0l-4.0 -10.40625l-18.312515 0l-3.78125 10.40625l-9.8125 0l17.84375 -45.8125l9.781265 0l18.34375 45.8125zm-17.03125 -18.125l-6.3125153 -17.0l-6.1875 17.0l12.500015 0zm27.5 18.125l0 -38.0625l-13.59375 0l0 -7.75l36.40625 0l0 7.75l-13.5625 0l0 38.0625l-9.25 0zm28.8125 0l0 -45.8125l9.25 0l0 18.03125l18.125 0l0 -18.03125l9.25 0l0 45.8125l-9.25 0l0 -20.03125l-18.125 0l0 20.03125l-9.25 0zm62.09375 -22.625q0 -7.0 2.09375 -11.75q1.5625 -3.5 4.265625 -6.28125q2.703125 -2.78125 5.921875 -4.125q4.28125 -1.8125 9.875 -1.8125q10.125 0 16.203125 6.28125q6.078125 6.28125 6.078125 17.46875q0 11.09375 -6.03125 17.359375q-6.03125 6.265625 -16.125 6.265625q-10.21875 0 -16.25 -6.234375q-6.03125 -6.234375 -6.03125 -17.171875zm9.53125 -0.3125q0 7.78125 3.59375 11.796875q3.59375 4.015625 9.125 4.015625q5.53125 0 9.078125 -3.984375q3.546875 -3.984375 3.546875 -11.953125q0 -7.875 -3.453125 -11.75q-3.453125 -3.875 -9.171875 -3.875q-5.71875 0 -9.21875 3.921875q-3.5 3.921875 -3.5 11.828125zm42.1875 22.9375l0 -45.8125l31.40625 0l0 7.75l-22.15625 0l0 10.84375l19.125 0l0 7.75l-19.125 0l0 19.46875l-9.25 0z" fill-rule="nonzero"/><path fill="#888888" d="m154.72466 462.99637l0 -38.0625l-13.59375 0l0 -7.75l36.40625 0l0 7.75l-13.5625 0l0 38.0625l-9.25 0zm28.8125 0l0 -45.8125l9.25 0l0 18.03125l18.125 0l0 -18.03125l9.25 0l0 45.8125l-9.25 0l0 -20.03125l-18.125 0l0 20.03125l-9.25 0zm46.1875 0l0 -45.8125l33.968765 0l0 7.75l-24.718765 0l0 10.15625l23.000015 0l0 7.71875l-23.000015 0l0 12.46875l25.593765 0l0 7.71875l-34.843765 0zm60.500015 0l0 -45.8125l9.25 0l0 18.03125l18.125 0l0 -18.03125l9.25 0l0 45.8125l-9.25 0l0 -20.03125l-18.125 0l0 20.03125l-9.25 0zm46.1875 0l0 -45.8125l33.96875 0l0 7.75l-24.71875 0l0 10.15625l23.0 0l0 7.71875l-23.0 0l0 12.46875l25.59375 0l0 7.71875l-34.84375 0zm42.71875 0l0 -45.8125l19.46875 0q7.34375 0 10.671875 1.234375q3.328125 1.234375 5.328125 4.390625q2.0 3.15625 2.0 7.21875q0 5.15625 -3.03125 8.515625q-3.03125 3.359375 -9.0625 4.234375q3.0 1.75 4.953125 3.84375q1.953125 2.09375 5.265625 7.4375l5.59375 8.9375l-11.0625 0l-6.6875 -9.96875q-3.5625 -5.34375 -4.875 -6.734375q-1.3125 -1.390625 -2.78125 -1.90625q-1.46875 -0.515625 -4.65625 -0.515625l-1.875 0l0 19.125l-9.25 0zm9.25 -26.4375l6.84375 0q6.65625 0 8.3125 -0.5625q1.65625 -0.5625 2.59375 -1.9375q0.9375 -1.375 0.9375 -3.4375q0 -2.3125 -1.234375 -3.734375q-1.234375 -1.421875 -3.484375 -1.796875q-1.125 -0.15625 -6.75 -0.15625l-7.21875 0l0 11.625zm35.0625 3.8125q0 -7.0 2.09375 -11.75q1.5625 -3.5 4.265625 -6.28125q2.703125 -2.78125 5.921875 -4.125q4.28125 -1.8125 9.875 -1.8125q10.125 0 16.203125 6.28125q6.078125 6.28125 6.078125 17.46875q0 11.09375 -6.03125 17.359375q-6.03125 6.265625 -16.125 6.265625q-10.21875 0 -16.25 -6.234375q-6.03125 -6.234375 -6.03125 -17.171875zm9.53125 -0.3125q0 7.78125 3.59375 11.796875q3.59375 4.015625 9.125 4.015625q5.53125 0 9.078125 -3.984375q3.546875 -3.984375 3.546875 -11.953125q0 -7.875 -3.453125 -11.75q-3.453125 -3.875 -9.171875 -3.875q-5.71875 0 -9.21875 3.921875q-3.5 3.921875 -3.5 11.828125z" fill-rule="nonzero"/><path fill="#000000" fill-opacity="0.0" d="m139.7559 676.64233l0 0l0 44.450928l0 0l0 -44.450928z" fill-rule="nonzero"/></g></svg>