<svg version="1.1" viewBox="0.0 0.0 816.0 1056.0" fill="none" stroke="none" stroke-linecap="square" stroke-miterlimit="10" xmlns:xlink="http://www.w3.org/1999/xlink" xmlns="http://www.w3.org/2000/svg"><clipPath id="g2bd6d2b12d8_0_19.0"><path d="m0 0l816.0 0l0 1056.0l-816.0 0l0 -1056.0z" clip-rule="nonzero"/></clipPath><g clip-path="url(#g2bd6d2b12d8_0_19.0)"><path fill="#ffffff" d="m0 0l816.0 0l0 1056.0l-816.0 0z" fill-rule="evenodd"/><path fill="#000000" fill-opacity="0.0" d="m139.97638 312.0l599.0866 0l0 236.56696l-599.0866 0z" fill-rule="evenodd"/><path fill="#ffffff" d="m148.97638 321.0l508.40625 0l0 76.79999l-508.40625 0l0 -76.79999z" fill-rule="nonzero"/><path fill="#000000" fill-opacity="0.0" d="m148.97638 324.5025l508.40625 0l0 73.59375l-508.40625 0l0 -73.59375z" fill-rule="nonzero"/><path fill="#222222" d="m153.88263 382.44l0 -45.4375l9.25 0l0 37.71875l23.0 0l0 7.71875l-32.25 0zm38.84375 0l0 -45.8125l33.96875 0l0 7.75l-24.71875 0l0 10.15625l23.0 0l0 7.71875l-23.0 0l0 12.46875l25.59375 0l0 7.71875l-34.84375 0zm84.0 0l-10.0625 0l-4.0 -10.40625l-18.3125 0l-3.78125 10.40625l-9.8125 0l17.84375 -45.8125l9.78125 0l18.34375 45.8125zm-17.03125 -18.125l-6.3125 -17.0l-6.1875 17.0l12.5 0zm21.96875 18.125l0 -45.8125l19.46875 0q7.34375 0 10.671875 1.234375q3.328125 1.234375 5.328125 4.390625q2.0 3.15625 2.0 7.21875q0 5.15625 -3.03125 8.515625q-3.03125 3.359375 -9.0625 4.234375q3.0 1.75 4.953125 3.84375q1.953125 2.09375 5.265625 7.4375l5.59375 8.9375l-11.0625 0l-6.6875 -9.96875q-3.5625 -5.34375 -4.875 -6.734375q-1.3125 -1.390625 -2.78125 -1.90625q-1.46875 -0.515625 -4.65625 -0.515625l-1.875 0l0 19.125l-9.25 0zm9.25 -26.4375l6.84375 0q6.65625 0 8.3125 -0.5625q1.65625 -0.5625 2.59375 -1.9375q0.9375 -1.375 0.9375 -3.4375q0 -2.3125 -1.234375 -3.734375q-1.234375 -1.421875 -3.484375 -1.796875q-1.125 -0.15625 -6.75 -0.15625l-7.21875 0l0 11.625zm37.03125 26.4375l0 -45.8125l9.0 0l18.75 30.59375l0 -30.59375l8.59375 0l0 45.8125l-9.28125 0l-18.46875 -29.875l0 29.875l-8.59375 0zm45.84375 0l0 -45.8125l9.25 0l0 45.8125l-9.25 0zm18.15625 0l0 -45.8125l9.0 0l18.75 30.59375l0 -30.59375l8.59375 0l0 45.8125l-9.28125 0l-18.46875 -29.875l0 29.875l-8.59375 0zm67.4375 -16.84375l0 -7.71875l19.9375 0l0 18.25q-2.90625 2.8125 -8.421875 4.953125q-5.515625 2.140625 -11.171875 2.140625q-7.1875 0 -12.53125 -3.015625q-5.34375 -3.015625 -8.03125 -8.625q-2.6875 -5.609375 -2.6875 -12.203125q0 -7.15625 3.0 -12.71875q3.0 -5.5625 8.78125 -8.53125q4.40625 -2.28125 10.96875 -2.28125q8.53125 0 13.328125 3.578125q4.796875 3.578125 6.171875 9.890625l-9.1875 1.71875q-0.96875 -3.375 -3.640625 -5.328125q-2.671875 -1.953125 -6.671875 -1.953125q-6.0625 0 -9.640625 3.84375q-3.578125 3.84375 -3.578125 11.40625q0 8.15625 3.625 12.234375q3.625 4.078125 9.5 4.078125q2.90625 0 5.828125 -1.140625q2.921875 -1.140625 5.015625 -2.765625l0 -5.8125l-10.59375 0zm46.28125 16.84375l0 -45.8125l9.25 0l0 18.03125l18.125 0l0 -18.03125l9.25 0l0 45.8125l-9.25 0l0 -20.03125l-18.125 0l0 20.03125l-9.25 0zm44.3125 -22.625q0 -7.0 2.09375 -11.75q1.5625 -3.5 4.265625 -6.28125q2.703125 -2.78125 5.921875 -4.125q4.28125 -1.8125 9.875 -1.8125q10.125 0 16.203125 6.28125q6.078125 6.28125 6.078125 17.46875q0 11.09375 -6.03125 17.359375q-6.03125 6.265625 -16.125 6.265625q-10.21875 0 -16.25 -6.234375q-6.03125 -6.234375 -6.03125 -17.171875zm9.53125 -0.3125q0 7.78125 3.59375 11.796875q3.59375 4.015625 9.125 4.015625q5.53125 0 9.078125 -3.984375q3.546875 -3.984375 3.546875 -11.953125q0 -7.875 -3.453125 -11.75q-3.453125 -3.875 -9.171875 -3.875q-5.71875 0 -9.21875 3.921875q-3.5 3.921875 -3.5 11.828125zm48.625 22.9375l-10.9375 -45.8125l9.46875 0l6.90625 31.46875l8.375 -31.46875l11.0 0l8.03125 32.0l7.03125 -32.0l9.3125 0l-11.125 45.8125l-9.8125 0l-9.125 -34.25l-9.09375 34.25l-10.03125 0z" fill-rule="nonzero"/><path fill="#000000" fill-opacity="0.0" d="m657.3826 324.5025l0 0l0 73.59375l0 0l0 -73.59375z" fill-rule="nonzero"/><path fill="#ffffff" d="m148.97638 409.32l508.46875 0l0 76.79999l-508.46875 0l0 -76.79999z" fill-rule="nonzero"/><path fill="#000000" fill-opacity="0.0" d="m148.97638 412.8225l508.46875 0l0 73.59375l-508.46875 0l0 -73.59375z" fill-rule="nonzero"/><path fill="#888888" d="m163.94513 470.76l0 -38.0625l-13.59375 0l0 -7.75l36.40625 0l0 7.75l-13.5625 0l0 38.0625l-9.25 0zm25.75 -22.625q0 -7.0 2.09375 -11.75q1.5625 -3.5 4.265625 -6.28125q2.703125 -2.78125 5.921875 -4.125q4.28125 -1.8125 9.875 -1.8125q10.125 0 16.203125 6.28125q6.078125 6.28125 6.078125 17.46875q0 11.09375 -6.03125 17.359375q-6.03125 6.265625 -16.125 6.265625q-10.21875 0 -16.25 -6.234375q-6.03125 -6.234375 -6.03125 -17.171875zm9.53125 -0.3125q0 7.78125 3.59375 11.796875q3.59375 4.015625 9.125 4.015625q5.53125 0 9.078125 -3.984375q3.546875 -3.984375 3.546875 -11.953125q0 -7.875 -3.453125 -11.75q-3.453125 -3.875 -9.171875 -3.875q-5.71875 0 -9.21875 3.921875q-3.5 3.921875 -3.5 11.828125zm59.625 22.9375l0 -45.8125l9.25 0l0 45.8125l-9.25 0zm17.9375 0l0 -45.8125l13.84375 0l8.3125 31.25l8.21875 -31.25l13.875 0l0 45.8125l-8.59375 0l0 -36.0625l-9.09375 36.0625l-8.90625 0l-9.0625 -36.0625l0 36.0625l-8.59375 0zm94.75 0l-10.0625 0l-4.0 -10.40625l-18.3125 0l-3.78125 10.40625l-9.8125 0l17.84375 -45.8125l9.78125 0l18.34375 45.8125zm-17.03125 -18.125l-6.3125 -17.0l-6.1875 17.0l12.5 0zm43.25 1.28125l0 -7.71875l19.9375 0l0 18.25q-2.90625 2.8125 -8.421875 4.953125q-5.515625 2.140625 -11.171875 2.140625q-7.1875 0 -12.53125 -3.015625q-5.34375 -3.015625 -8.03125 -8.625q-2.6875 -5.609375 -2.6875 -12.203125q0 -7.15625 3.0 -12.71875q3.0 -5.5625 8.78125 -8.53125q4.40625 -2.28125 10.96875 -2.28125q8.53125 0 13.328125 3.578125q4.796875 3.578125 6.171875 9.890625l-9.1875 1.71875q-0.96875 -3.375 -3.640625 -5.328125q-2.671875 -1.953125 -6.671875 -1.953125q-6.0625 0 -9.640625 3.84375q-3.578125 3.84375 -3.578125 11.40625q0 8.15625 3.625 12.234375q3.625 4.078125 9.5 4.078125q2.90625 0 5.828125 -1.140625q2.921875 -1.140625 5.015625 -2.765625l0 -5.8125l-10.59375 0zm28.1875 16.84375l0 -45.8125l9.25 0l0 45.8125l-9.25 0zm18.15625 0l0 -45.8125l9.0 0l18.75 30.59375l0 -30.59375l8.59375 0l0 45.8125l-9.28125 0l-18.46875 -29.875l0 29.875l-8.59375 0zm46.125 0l0 -45.8125l33.96875 0l0 7.75l-24.71875 0l0 10.15625l23.0 0l0 7.71875l-23.0 0l0 12.46875l25.59375 0l0 7.71875l-34.84375 0zm99.40625 0l-10.0625 0l-4.0 -10.40625l-18.3125 0l-3.78125 10.40625l-9.8125 0l17.84375 -45.8125l9.78125 0l18.34375 45.8125zm-17.03125 -18.125l-6.3125 -17.0l-6.1875 17.0l12.5 0zm43.25 1.28125l0 -7.71875l19.9375 0l0 18.25q-2.90625 2.8125 -8.421875 4.953125q-5.515625 2.140625 -11.171875 2.140625q-7.1875 0 -12.53125 -3.015625q-5.34375 -3.015625 -8.03125 -8.625q-2.6875 -5.609375 -2.6875 -12.203125q0 -7.15625 3.0 -12.71875q3.0 -5.5625 8.78125 -8.53125q4.40625 -2.28125 10.96875 -2.28125q8.53125 0 13.328125 3.578125q4.796875 3.578125 6.171875 9.890625l-9.1875 1.71875q-0.96875 -3.375 -3.640625 -5.328125q-2.671875 -1.953125 -6.671875 -1.953125q-6.0625 0 -9.640625 3.84375q-3.578125 3.84375 -3.578125 11.40625q0 8.15625 3.625 12.234375q3.625 4.078125 9.5 4.078125q2.90625 0 5.828125 -1.140625q2.921875 -1.140625 5.015625 -2.765625l0 -5.8125l-10.59375 0zm28.1875 16.84375l0 -45.8125l9.25 0l0 45.8125l-9.25 0z" fill-rule="nonzero"/><path fill="#010000" fill-opacity="0.0" d="m657.4451 412.8225l0 0l0 73.59375l0 0l0 -73.59375z" fill-rule="nonzero"/></g></svg>