<svg version="1.1" viewBox="0.0 0.0 816.0 1056.0" fill="none" stroke="none" stroke-linecap="square" stroke-miterlimit="10" xmlns:xlink="http://www.w3.org/1999/xlink" xmlns="http://www.w3.org/2000/svg"><clipPath id="g237a0a82111_1_9.0"><path d="m0 0l816.0 0l0 1056.0l-816.0 0l0 -1056.0z" clip-rule="nonzero"/></clipPath><g clip-path="url(#g237a0a82111_1_9.0)"><path fill="#ffffff" d="m0 0l816.0 0l0 1056.0l-816.0 0z" fill-rule="evenodd"/><path fill="#000000" fill-opacity="0.0" d="m127.62992 324.55643l642.01575 0l0 392.03152l-642.01575 0z" fill-rule="evenodd"/><path fill="#ffffff" d="m136.62993 333.55643l369.75 0l0 76.79999l-369.75 0l0 -76.79999z" fill-rule="nonzero"/><path fill="#000000" fill-opacity="0.0" d="m136.62993 337.05893l369.75 0l0 73.59375l-369.75 0l0 -73.59375z" fill-rule="nonzero"/><path fill="#222222" d="m141.31743 394.99643l0 -45.8125l19.46875 0q7.34375 0 10.671875 1.234375q3.328125 1.234375 5.328125 4.390625q2.0 3.15625 2.0 7.21875q0 5.15625 -3.03125 8.515625q-3.03125 3.359375 -9.0625 4.234375q3.0 1.75 4.953125 3.84375q1.953125 2.09375 5.265625 7.4375l5.59375 8.9375l-11.0625 0l-6.6875 -9.96875q-3.5625 -5.34375 -4.875 -6.734375q-1.3125 -1.390625 -2.78125 -1.90625q-1.46875 -0.515625 -4.65625 -0.515625l-1.875 0l0 19.125l-9.25 0zm9.25 -26.4375l6.84375 0q6.65625 0 8.3125 -0.5625q1.65625 -0.5625 2.59375 -1.9375q0.9375 -1.375 0.9375 -3.4375q0 -2.3125 -1.234375 -3.734375q-1.234375 -1.421875 -3.484375 -1.796875q-1.125 -0.15625 -6.75 -0.15625l-7.21875 0l0 11.625zm36.9375 26.4375l0 -45.8125l33.96875 0l0 7.75l-24.71875 0l0 10.15625l23.0 0l0 7.71875l-23.0 0l0 12.46875l25.59375 0l0 7.71875l-34.84375 0zm41.625 -12.21875l0 -8.78125l17.25 0l0 8.78125l-17.25 0zm22.40625 -33.59375l18.312485 0q5.4375 0 8.109375 0.453125q2.671875 0.453125 4.78125 1.890625q2.109375 1.4375 3.515625 3.828125q1.40625 2.390625 1.40625 5.359375q0 3.21875 -1.734375 5.90625q-1.734375 2.6875 -4.703125 4.03125q4.1875 1.21875 6.4375 4.15625q2.25 2.9375 2.25 6.90625q0 3.125 -1.453125 6.078125q-1.453125 2.953125 -3.96875 4.71875q-2.515625 1.765625 -6.203125 2.171875q-2.3125 0.25 -11.15625 0.3125l-15.593735 0l0 -45.8125zm9.249985 7.625l0 10.59375l6.0625 0q5.40625 0 6.71875 -0.15625q2.375 -0.28125 3.734375 -1.640625q1.359375 -1.359375 1.359375 -3.578125q0 -2.125 -1.171875 -3.453125q-1.171875 -1.328125 -3.484375 -1.609375q-1.375 -0.15625 -7.90625 -0.15625l-5.3125 0zm0 18.21875l0 12.25l8.5625 0q5.0 0 6.34375 -0.28125q2.0625 -0.375 3.359375 -1.828125q1.296875 -1.453125 1.296875 -3.890625q0 -2.0625 -1.0 -3.5q-1.0 -1.4375 -2.890625 -2.09375q-1.890625 -0.65625 -8.203125 -0.65625l-7.46875 0zm36.65625 19.96875l0 -45.8125l9.25 0l0 45.8125l-9.25 0zm18.09375 0l0 -45.8125l19.46875 0q7.34375 0 10.671875 1.234375q3.328125 1.234375 5.328125 4.390625q2.0 3.15625 2.0 7.21875q0 5.15625 -3.03125 8.515625q-3.03125 3.359375 -9.0625 4.234375q3.0 1.75 4.953125 3.84375q1.953125 2.09375 5.265625 7.4375l5.59375 8.9375l-11.0625 0l-6.6875 -9.96875q-3.5625 -5.34375 -4.875 -6.734375q-1.3125 -1.390625 -2.78125 -1.90625q-1.46875 -0.515625 -4.65625 -0.515625l-1.875 0l0 19.125l-9.25 0zm9.25 -26.4375l6.84375 0q6.65625 0 8.3125 -0.5625q1.65625 -0.5625 2.59375 -1.9375q0.9375 -1.375 0.9375 -3.4375q0 -2.3125 -1.234375 -3.734375q-1.234375 -1.421875 -3.484375 -1.796875q-1.125 -0.15625 -6.75 -0.15625l-7.21875 0l0 11.625zm47.25 26.4375l0 -38.0625l-13.59375 0l0 -7.75l36.40625 0l0 7.75l-13.5625 0l0 38.0625l-9.25 0zm28.8125 0l0 -45.8125l9.25 0l0 18.03125l18.125 0l0 -18.03125l9.25 0l0 45.8125l-9.25 0l0 -20.03125l-18.125 0l0 20.03125l-9.25 0zm104.5 -5.59375l-5.3125 6.78125q-3.90625 -1.90625 -7.5 -5.25q-2.78125 2.5 -5.90625 3.6875q-3.125 1.1875 -7.4375 1.1875q-8.5625 0 -12.875 -4.8125q-3.34375 -3.71875 -3.34375 -8.5625q0 -4.40625 2.625 -7.921875q2.625 -3.515625 7.84375 -6.109375q-2.34375 -2.78125 -3.53125 -5.296875q-1.1875 -2.515625 -1.1875 -4.765625q0 -4.15625 3.328125 -7.046875q3.328125 -2.890625 9.484375 -2.890625q5.9375 0 9.28125 3.03125q3.34375 3.03125 3.34375 7.40625q0 2.78125 -1.65625 5.28125q-1.65625 2.5 -6.6875 5.65625l6.375 8.40625q1.125 -2.0 1.9375 -5.21875l7.9375 1.8125q-1.1875 4.21875 -2.0625 6.171875q-0.875 1.953125 -1.875 3.265625q1.46875 1.375 3.796875 3.015625q2.328125 1.640625 3.421875 2.171875zm-23.90625 -24.90625l2.375 -1.8125q2.625 -2.03125 2.625 -4.03125q0 -1.6875 -1.265625 -2.875q-1.265625 -1.1875 -3.421875 -1.1875q-2.09375 0 -3.28125 1.046875q-1.1875 1.046875 -1.1875 2.421875q0 1.625 2.0 3.9375l2.15625 2.5zm-3.4375 9.53125q-3.03125 1.53125 -4.53125 3.6875q-1.5 2.15625 -1.5 4.40625q0 2.84375 1.859375 4.640625q1.859375 1.796875 4.984375 1.796875q2.0625 0 3.96875 -0.8125q1.90625 -0.8125 4.15625 -2.6875l-8.9375 -11.03125z" fill-rule="nonzero"/><path fill="#000000" fill-opacity="0.0" d="m506.3799 337.05893l0 0l0 73.59375l0 0l0 -73.59375z" fill-rule="nonzero"/><path fill="#ffffff" d="m136.62993 424.54324l603.1875 0l0 76.79999l-603.1875 0l0 -76.79999z" fill-rule="nonzero"/><path fill="#000000" fill-opacity="0.0" d="m136.62993 428.04575l603.1875 0l0 73.59375l-603.1875 0l0 -73.59375z" fill-rule="nonzero"/><path fill="#888888" d="m151.59868 485.98325l0 -38.0625l-13.59375 0l0 -7.75l36.40625 0l0 7.75l-13.5625 0l0 38.0625l-9.25 0zm28.8125 0l0 -45.8125l19.46875 0q7.34375 0 10.671875 1.234375q3.328125 1.234375 5.328125 4.390625q2.0 3.15625 2.0 7.21875q0 5.15625 -3.03125 8.515625q-3.03125 3.359375 -9.0625 4.234375q3.0 1.75 4.953125 3.84375q1.953125 2.09375 5.265625 7.4375l5.59375 8.9375l-11.0625 0l-6.6875 -9.96875q-3.5625 -5.34375 -4.875 -6.734375q-1.3125 -1.390625 -2.78125 -1.90625q-1.46875 -0.515625 -4.65625 -0.515625l-1.875 0l0 19.125l-9.25 0zm9.25 -26.4375l6.84375 0q6.65625 0 8.3125 -0.5625q1.65625 -0.5625 2.59375 -1.9375q0.9375 -1.375 0.9375 -3.4375q0 -2.3125 -1.234375 -3.734375q-1.234375 -1.421875 -3.484375 -1.796875q-1.125 -0.15625 -6.75 -0.15625l-7.21875 0l0 11.625zm78.249985 26.4375l-10.0625 0l-3.9999847 -10.40625l-18.3125 0l-3.78125 10.40625l-9.8125 0l17.84375 -45.8125l9.78125 0l18.343735 45.8125zm-17.031235 -18.125l-6.3125 -17.0l-6.1875 17.0l12.5 0zm22.031235 18.125l0 -45.8125l9.0 0l18.75 30.59375l0 -30.59375l8.59375 0l0 45.8125l-9.28125 0l-18.46875 -29.875l0 29.875l-8.59375 0zm43.78125 -14.90625l9.0 -0.875q0.8125 4.53125 3.296875 6.65625q2.484375 2.125 6.703125 2.125q4.46875 0 6.734375 -1.890625q2.265625 -1.890625 2.265625 -4.421875q0 -1.625 -0.953125 -2.765625q-0.953125 -1.140625 -3.328125 -1.984375q-1.625 -0.5625 -7.40625 -2.0q-7.4375 -1.84375 -10.4375 -4.53125q-4.21875 -3.78125 -4.21875 -9.21875q0 -3.5 1.984375 -6.546875q1.984375 -3.046875 5.71875 -4.640625q3.734375 -1.59375 9.015625 -1.59375q8.625 0 12.984375 3.78125q4.359375 3.78125 4.578125 10.09375l-9.25 0.40625q-0.59375 -3.53125 -2.546875 -5.078125q-1.953125 -1.546875 -5.859375 -1.546875q-4.03125 0 -6.3125 1.65625q-1.46875 1.0625 -1.46875 2.84375q0 1.625 1.375 2.78125q1.75 1.46875 8.5 3.0625q6.75 1.59375 9.984375 3.296875q3.234375 1.703125 5.0625 4.65625q1.828125 2.953125 1.828125 7.296875q0 3.9375 -2.1875 7.375q-2.1875 3.4375 -6.1875 5.109375q-4.0 1.671875 -9.96875 1.671875q-8.6875 0 -13.34375 -4.015625q-4.65625 -4.015625 -5.5625 -11.703125zm45.09375 14.90625l0 -45.8125l31.40625 0l0 7.75l-22.15625 0l0 10.84375l19.125 0l0 7.75l-19.125 0l0 19.46875l-9.25 0zm37.15625 -22.625q0 -7.0 2.09375 -11.75q1.5625 -3.5 4.265625 -6.28125q2.703125 -2.78125 5.921875 -4.125q4.28125 -1.8125 9.875 -1.8125q10.125 0 16.203125 6.28125q6.078125 6.28125 6.078125 17.46875q0 11.09375 -6.03125 17.359375q-6.03125 6.265625 -16.125 6.265625q-10.21875 0 -16.25 -6.234375q-6.03125 -6.234375 -6.03125 -17.171875zm9.53125 -0.3125q0 7.78125 3.59375 11.796875q3.59375 4.015625 9.125 4.015625q5.53125 0 9.078125 -3.984375q3.546875 -3.984375 3.546875 -11.953125q0 -7.875 -3.453125 -11.75q-3.453125 -3.875 -9.171875 -3.875q-5.71875 0 -9.21875 3.921875q-3.5 3.921875 -3.5 11.828125zm42.15625 22.9375l0 -45.8125l19.46875 0q7.34375 0 10.671875 1.234375q3.328125 1.234375 5.328125 4.390625q2.0 3.15625 2.0 7.21875q0 5.15625 -3.03125 8.515625q-3.03125 3.359375 -9.0625 4.234375q3.0 1.75 4.953125 3.84375q1.953125 2.09375 5.265625 7.4375l5.59375 8.9375l-11.0625 0l-6.6875 -9.96875q-3.5625 -5.34375 -4.875 -6.734375q-1.3125 -1.390625 -2.78125 -1.90625q-1.46875 -0.515625 -4.65625 -0.515625l-1.875 0l0 19.125l-9.25 0zm9.25 -26.4375l6.84375 0q6.65625 0 8.3125 -0.5625q1.65625 -0.5625 2.59375 -1.9375q0.9375 -1.375 0.9375 -3.4375q0 -2.3125 -1.234375 -3.734375q-1.234375 -1.421875 -3.484375 -1.796875q-1.125 -0.15625 -6.75 -0.15625l-7.21875 0l0 11.625zm36.8125 26.4375l0 -45.8125l13.84375 0l8.3125305 31.25l8.21875 -31.25l13.875 0l0 45.8125l-8.59375 0l0 -36.0625l-9.09375 36.0625l-8.90625 0l-9.0625305 -36.0625l0 36.0625l-8.59375 0zm94.75003 0l-10.0625 0l-4.0 -10.40625l-18.3125 0l-3.78125 10.40625l-9.8125 0l17.84375 -45.8125l9.78125 0l18.34375 45.8125zm-17.03125 -18.125l-6.3125 -17.0l-6.1875 17.0l12.5 0zm27.5 18.125l0 -38.0625l-13.59375 0l0 -7.75l36.40625 0l0 7.75l-13.5625 0l0 38.0625l-9.25 0zm28.5 0l0 -45.8125l9.25 0l0 45.8125l-9.25 0zm16.1875 -22.625q0 -7.0 2.09375 -11.75q1.5625 -3.5 4.265625 -6.28125q2.703125 -2.78125 5.921875 -4.125q4.28125 -1.8125 9.875 -1.8125q10.125 0 16.203125 6.28125q6.078125 6.28125 6.078125 17.46875q0 11.09375 -6.03125 17.359375q-6.03125 6.265625 -16.125 6.265625q-10.21875 0 -16.25 -6.234375q-6.03125 -6.234375 -6.03125 -17.171875zm9.53125 -0.3125q0 7.78125 3.59375 11.796875q3.59375 4.015625 9.125 4.015625q5.53125 0 9.078125 -3.984375q3.546875 -3.984375 3.546875 -11.953125q0 -7.875 -3.453125 -11.75q-3.453125 -3.875 -9.171875 -3.875q-5.71875 0 -9.21875 3.921875q-3.5 3.921875 -3.5 11.828125zm42.21875 22.9375l0 -45.8125l9.0 0l18.75 30.59375l0 -30.59375l8.59375 0l0 45.8125l-9.28125 0l-18.46875 -29.875l0 29.875l-8.59375 0z" fill-rule="nonzero"/><path fill="#000000" fill-opacity="0.0" d="m739.81744 428.04575l0 0l0 73.59375l0 0l0 -73.59375z" fill-rule="nonzero"/><path fill="#000000" fill-opacity="0.0" d="m136.62993 519.0326l0 0l0 73.59375l0 0l0 -73.59375z" fill-rule="nonzero"/><path fill="#000000" fill-opacity="0.0" d="m136.62993 610.895l0 0l0 91.99219l0 0l0 -91.99219z" fill-rule="nonzero"/></g></svg>