<svg version="1.1" viewBox="0.0 0.0 816.0 1056.0" fill="none" stroke="none" stroke-linecap="square" stroke-miterlimit="10" xmlns:xlink="http://www.w3.org/1999/xlink" xmlns="http://www.w3.org/2000/svg"><clipPath id="g2ae49cd5bed_0_5.0"><path d="m0 0l816.0 0l0 1056.0l-816.0 0l0 -1056.0z" clip-rule="nonzero"/></clipPath><g clip-path="url(#g2ae49cd5bed_0_5.0)"><path fill="#ffffff" d="m0 0l816.0 0l0 1056.0l-816.0 0z" fill-rule="evenodd"/><path fill="#000000" fill-opacity="0.0" d="m111.362206 275.90552l673.48035 0l0 414.99213l-673.48035 0z" fill-rule="evenodd"/><path fill="#ffffff" d="m120.362206 284.90552l476.40622 0l0 76.79999l-476.40622 0l0 -76.79999z" fill-rule="nonzero"/><path fill="#000000" fill-opacity="0.0" d="m120.362206 288.40802l476.40622 0l0 73.59375l-476.40622 0l0 -73.59375z" fill-rule="nonzero"/><path fill="#222222" d="m154.33095 329.50177l8.96875 2.84375q-2.0625 7.5 -6.859375 11.140625q-4.796875 3.640625 -12.171875 3.640625q-9.125 0 -15.0 -6.234375q-5.8749924 -6.234375 -5.8749924 -17.046875q0 -11.4375 5.9062424 -17.765625q5.90625 -6.328125 15.53125 -6.328125q8.40625 0 13.65625 4.96875q3.125 2.9375 4.6875 8.4375l-9.15625 2.1875q-0.8125 -3.5625 -3.390625 -5.625q-2.578125 -2.0625 -6.265625 -2.0625q-5.09375 0 -8.265625 3.65625q-3.171875 3.65625 -3.171875 11.84375q0 8.6875 3.125 12.375q3.125 3.6875 8.125 3.6875q3.6875 0 6.34375 -2.34375q2.65625 -2.34375 3.8125 -7.375zm15.03125 -5.78125q0 -7.0 2.09375 -11.75q1.5625 -3.5 4.265625 -6.28125q2.703125 -2.78125 5.921875 -4.125q4.28125 -1.8125 9.875 -1.8125q10.125 0 16.203125 6.28125q6.078125 6.28125 6.078125 17.46875q0 11.09375 -6.03125 17.359375q-6.03125 6.265625 -16.125 6.265625q-10.21875 0 -16.25 -6.234375q-6.03125 -6.234375 -6.03125 -17.171875zm9.53125 -0.3125q0 7.78125 3.59375 11.796875q3.59375 4.015625 9.125 4.015625q5.53125 0 9.078125 -3.984375q3.546875 -3.984375 3.546875 -11.953125q0 -7.875 -3.453125 -11.75q-3.453125 -3.875 -9.171875 -3.875q-5.71875 0 -9.21875 3.921875q-3.5 3.921875 -3.5 11.828125zm42.21875 22.9375l0 -45.8125l9.0 0l18.75 30.59375l0 -30.59375l8.593765 0l0 45.8125l-9.281265 0l-18.46875 -29.875l0 29.875l-8.59375 0zm46.187515 0l0 -45.8125l31.40625 0l0 7.75l-22.15625 0l0 10.84375l19.125 0l0 7.75l-19.125 0l0 19.46875l-9.25 0zm39.0625 0l0 -45.8125l19.46875 0q7.34375 0 10.671875 1.234375q3.328125 1.234375 5.328125 4.390625q2.0 3.15625 2.0 7.21875q0 5.15625 -3.03125 8.515625q-3.03125 3.359375 -9.0625 4.234375q3.0 1.75 4.953125 3.84375q1.953125 2.09375 5.265625 7.4375l5.59375 8.9375l-11.0625 0l-6.6875 -9.96875q-3.5625 -5.34375 -4.875 -6.734375q-1.3125 -1.390625 -2.78125 -1.90625q-1.46875 -0.515625 -4.65625 -0.515625l-1.875 0l0 19.125l-9.25 0zm9.25 -26.4375l6.84375 0q6.65625 0 8.3125 -0.5625q1.65625 -0.5625 2.59375 -1.9375q0.9375 -1.375 0.9375 -3.4375q0 -2.3125 -1.234375 -3.734375q-1.234375 -1.421875 -3.484375 -1.796875q-1.125 -0.15625 -6.75 -0.15625l-7.21875 0l0 11.625zm35.0625 3.8125q0 -7.0 2.09375 -11.75q1.5625 -3.5 4.265625 -6.28125q2.703125 -2.78125 5.921875 -4.125q4.28125 -1.8125 9.875 -1.8125q10.125 0 16.203125 6.28125q6.078125 6.28125 6.078125 17.46875q0 11.09375 -6.03125 17.359375q-6.03125 6.265625 -16.125 6.265625q-10.21875 0 -16.25 -6.234375q-6.03125 -6.234375 -6.03125 -17.171875zm9.53125 -0.3125q0 7.78125 3.59375 11.796875q3.59375 4.015625 9.125 4.015625q5.53125 0 9.078125 -3.984375q3.546875 -3.984375 3.546875 -11.953125q0 -7.875 -3.453125 -11.75q-3.453125 -3.875 -9.171875 -3.875q-5.71875 0 -9.21875 3.921875q-3.5 3.921875 -3.5 11.828125zm42.21875 22.9375l0 -45.8125l9.0 0l18.75 30.59375l0 -30.59375l8.59375 0l0 45.8125l-9.28125 0l-18.46875 -29.875l0 29.875l-8.59375 0zm56.4375 0l0 -38.0625l-13.59375 0l0 -7.75l36.40625 0l0 7.75l-13.5625 0l0 38.0625l-9.25 0zm28.5 0l0 -45.8125l9.25 0l0 45.8125l-9.25 0zm18.15625 0l0 -45.8125l8.9999695 0l18.75 30.59375l0 -30.59375l8.59375 0l0 45.8125l-9.28125 0l-18.46875 -29.875l0 29.875l-8.5937195 0zm67.43747 -16.84375l0 -7.71875l19.9375 0l0 18.25q-2.90625 2.8125 -8.421875 4.953125q-5.515625 2.140625 -11.171875 2.140625q-7.1875 0 -12.53125 -3.015625q-5.34375 -3.015625 -8.03125 -8.625q-2.6875 -5.609375 -2.6875 -12.203125q0 -7.15625 3.0 -12.71875q3.0 -5.5625 8.78125 -8.53125q4.40625 -2.28125 10.96875 -2.28125q8.53125 0 13.328125 3.578125q4.796875 3.578125 6.171875 9.890625l-9.1875 1.71875q-0.96875 -3.375 -3.640625 -5.328125q-2.671875 -1.953125 -6.671875 -1.953125q-6.0625 0 -9.640625 3.84375q-3.578125 3.84375 -3.578125 11.40625q0 8.15625 3.625 12.234375q3.625 4.078125 9.5 4.078125q2.90625 0 5.828125 -1.140625q2.921875 -1.140625 5.015625 -2.765625l0 -5.8125l-10.59375 0z" fill-rule="nonzero"/><path fill="#000000" fill-opacity="0.0" d="m596.76843 288.40802l0 0l0 73.59375l0 0l0 -73.59375z" fill-rule="nonzero"/><path fill="#ffffff" d="m120.362206 373.2255l407.74997 0l0 76.80002l-407.74997 0l0 -76.80002z" fill-rule="nonzero"/><path fill="#000000" fill-opacity="0.0" d="m120.362206 376.728l407.74997 0l0 73.59375l-407.74997 0l0 -73.59375z" fill-rule="nonzero"/><path fill="#888888" d="m125.049706 434.6655l0 -45.8125l19.468742 0q7.34375 0 10.671875 1.234375q3.328125 1.234375 5.328125 4.390625q2.0 3.15625 2.0 7.21875q0 5.15625 -3.03125 8.515625q-3.03125 3.359375 -9.0625 4.234375q3.0 1.75 4.953125 3.84375q1.953125 2.09375 5.265625 7.4375l5.59375 8.9375l-11.0625 0l-6.6875 -9.96875q-3.5625 -5.34375 -4.875 -6.734375q-1.3125 -1.390625 -2.78125 -1.90625q-1.46875 -0.515625 -4.65625 -0.515625l-1.875 0l0 19.125l-9.249992 0zm9.249992 -26.4375l6.84375 0q6.65625 0 8.3125 -0.5625q1.65625 -0.5625 2.59375 -1.9375q0.9375 -1.375 0.9375 -3.4375q0 -2.3125 -1.234375 -3.734375q-1.234375 -1.421875 -3.484375 -1.796875q-1.125 -0.15625 -6.75 -0.15625l-7.21875 0l0 11.625zm36.9375 26.4375l0 -45.8125l33.96875 0l0 7.75l-24.71875 0l0 10.15625l23.0 0l0 7.71875l-23.0 0l0 12.46875l25.59375 0l0 7.71875l-34.84375 0zm40.34375 -14.90625l9.0 -0.875q0.8125 4.53125 3.296875 6.65625q2.484375 2.125 6.703125 2.125q4.46875 0 6.734375 -1.890625q2.265625 -1.890625 2.265625 -4.421875q0 -1.625 -0.953125 -2.765625q-0.953125 -1.140625 -3.328125 -1.984375q-1.625 -0.5625 -7.40625 -2.0q-7.4375 -1.84375 -10.4375 -4.53125q-4.21875 -3.78125 -4.21875 -9.21875q0 -3.5 1.984375 -6.546875q1.984375 -3.046875 5.71875 -4.640625q3.734375 -1.59375 9.015625 -1.59375q8.625 0 12.984375 3.78125q4.359375 3.78125 4.578125 10.09375l-9.25 0.40625q-0.59375 -3.53125 -2.546875 -5.078125q-1.953125 -1.546875 -5.859375 -1.546875q-4.03125 0 -6.3125 1.65625q-1.46875 1.0625 -1.46875 2.84375q0 1.625 1.375 2.78125q1.75 1.46875 8.5 3.0625q6.75 1.59375 9.984375 3.296875q3.234375 1.703125 5.0625 4.65625q1.828125 2.953125 1.828125 7.296875q0 3.9375 -2.1875 7.375q-2.1875 3.4375 -6.1875 5.109375q-4.0 1.671875 -9.96875 1.671875q-8.6875 0 -13.34375 -4.015625q-4.65625 -4.015625 -5.5625 -11.703125zm44.750015 14.90625l0 -45.8125l9.25 0l0 45.8125l-9.25 0zm15.71875 -14.90625l9.0 -0.875q0.8125 4.53125 3.296875 6.65625q2.484375 2.125 6.703125 2.125q4.46875 0 6.734375 -1.890625q2.265625 -1.890625 2.265625 -4.421875q0 -1.625 -0.953125 -2.765625q-0.953125 -1.140625 -3.328125 -1.984375q-1.625 -0.5625 -7.40625 -2.0q-7.4375 -1.84375 -10.4375 -4.53125q-4.21875 -3.78125 -4.21875 -9.21875q0 -3.5 1.984375 -6.546875q1.984375 -3.046875 5.71875 -4.640625q3.734375 -1.59375 9.015625 -1.59375q8.625 0 12.984375 3.78125q4.359375 3.78125 4.578125 10.09375l-9.25 0.40625q-0.59375 -3.53125 -2.546875 -5.078125q-1.953125 -1.546875 -5.859375 -1.546875q-4.03125 0 -6.3125 1.65625q-1.46875 1.0625 -1.46875 2.84375q0 1.625 1.375 2.78125q1.75 1.46875 8.5 3.0625q6.75 1.59375 9.984375 3.296875q3.234375 1.703125 5.0625 4.65625q1.828125 2.953125 1.828125 7.296875q0 3.9375 -2.1875 7.375q-2.1875 3.4375 -6.1875 5.109375q-4.0 1.671875 -9.96875 1.671875q-8.6875 0 -13.34375 -4.015625q-4.65625 -4.015625 -5.5625 -11.703125zm55.34375 14.90625l0 -38.0625l-13.59375 0l0 -7.75l36.40625 0l0 7.75l-13.5625 0l0 38.0625l-9.25 0zm65.34375 0l-10.0625 0l-4.0 -10.40625l-18.3125 0l-3.78125 10.40625l-9.8125 0l17.84375 -45.8125l9.78125 0l18.34375 45.8125zm-17.03125 -18.125l-6.3125 -17.0l-6.1875 17.0l12.5 0zm22.03125 18.125l0 -45.8125l9.0 0l18.75 30.59375l0 -30.59375l8.59375 0l0 45.8125l-9.28125 0l-18.46875 -29.875l0 29.875l-8.59375 0zm75.4375 -16.84375l8.96875 2.84375q-2.0625 7.5 -6.859375 11.140625q-4.796875 3.640625 -12.171875 3.640625q-9.125 0 -15.0 -6.234375q-5.875 -6.234375 -5.875 -17.046875q0 -11.4375 5.90625 -17.765625q5.90625 -6.328125 15.53125 -6.328125q8.40625 0 13.65625 4.96875q3.125 2.9375 4.6875 8.4375l-9.15625 2.1875q-0.8125 -3.5625 -3.390625 -5.625q-2.578125 -2.0625 -6.265625 -2.0625q-5.09375 0 -8.265625 3.65625q-3.171875 3.65625 -3.171875 11.84375q0 8.6875 3.125 12.375q3.125 3.6875 8.125 3.6875q3.6875 0 6.34375 -2.34375q2.65625 -2.34375 3.8125 -7.375zm16.90625 16.84375l0 -45.8125l33.96872 0l0 7.75l-24.71872 0l0 10.15625l22.99997 0l0 7.71875l-22.99997 0l0 12.46875l25.59372 0l0 7.71875l-34.84372 0z" fill-rule="nonzero"/><path fill="#000000" fill-opacity="0.0" d="m528.1122 376.728l17.78125 0l0 73.59375l-17.78125 0l0 -73.59375z" fill-rule="nonzero"/><path fill="#000000" fill-opacity="0.0" d="m545.89343 376.728l0 0l0 73.59375l0 0l0 -73.59375z" fill-rule="nonzero"/><path fill="#ffffff" d="m120.362206 461.5455l302.21875 0l0 76.80002l-302.21875 0l0 -76.80002z" fill-rule="nonzero"/><path fill="#000000" fill-opacity="0.0" d="m120.362206 465.048l302.21875 0l0 73.59372l-302.21875 0l0 -73.59372z" fill-rule="nonzero"/><path fill="#888888" d="m165.5497 517.3917l-5.3125 6.78125q-3.90625 -1.90625 -7.5 -5.25q-2.78125 2.5 -5.90625 3.6875q-3.125 1.1875 -7.4375 1.1875q-8.5625 0 -12.874992 -4.8125q-3.34375 -3.71875 -3.34375 -8.5624695q0 -4.40625 2.625 -7.921875q2.6249924 -3.515625 7.8437424 -6.109375q-2.34375 -2.78125 -3.53125 -5.296875q-1.1875 -2.515625 -1.1875 -4.765625q0 -4.15625 3.328125 -7.046875q3.328125 -2.890625 9.484375 -2.890625q5.9375 0 9.28125 3.03125q3.34375 3.03125 3.34375 7.40625q0 2.78125 -1.65625 5.28125q-1.65625 2.5 -6.6875 5.65625l6.375 8.40625q1.125 -2.0 1.9375 -5.21875l7.9375 1.8125q-1.1875 4.21875 -2.0625 6.171875q-0.875 1.953125 -1.875 3.2655945q1.46875 1.375 3.796875 3.015625q2.328125 1.640625 3.421875 2.171875zm-23.90625 -24.90622l2.375 -1.8125q2.625 -2.03125 2.625 -4.03125q0 -1.6875 -1.265625 -2.875q-1.265625 -1.1875 -3.421875 -1.1875q-2.09375 0 -3.28125 1.046875q-1.1875 1.046875 -1.1875 2.421875q0 1.625 2.0 3.9375l2.15625 2.5zm-3.4375 9.53125q-3.03125 1.53125 -4.53125 3.6875q-1.5 2.15625 -1.5 4.40625q0 2.8437195 1.859375 4.6405945q1.859375 1.796875 4.984375 1.796875q2.0625 0 3.96875 -0.8125q1.90625 -0.8125 4.15625 -2.6875l-8.9375 -11.0312195zm50.78125 -24.84375l16.90625 0q5.71875 0 8.71875 0.875q4.03125 1.1875 6.90625 4.21875q2.875 3.03125 4.375 7.421875q1.5 4.390625 1.5 10.828125q0 5.65625 -1.40625 9.75q-1.71875 4.9999695 -4.90625 8.0937195q-2.40625 2.34375 -6.5 3.65625q-3.0625 0.96875 -8.1875 0.96875l-17.40625 0l0 -45.81247zm9.25 7.75l0 30.34372l6.90625 0q3.875 0 5.59375 -0.4375q2.25 -0.5625 3.734375 -1.90625q1.484375 -1.3437195 2.421875 -4.4218445q0.9375 -3.078125 0.9375 -8.390625q0 -5.3125 -0.9375 -8.15625q-0.9375 -2.84375 -2.625 -4.4375q-1.6875 -1.59375 -4.28125 -2.15625q-1.9375 -0.4375 -7.59375 -0.4375l-4.15625 0zm37.0 38.06247l0 -45.81247l33.968765 0l0 7.75l-24.718765 0l0 10.15625l23.000015 0l0 7.71875l-23.000015 0l0 12.4687195l25.593765 0l0 7.71875l-34.843765 0zm42.781265 0l0 -45.81247l9.0 0l18.75 30.59375l0 -30.59375l8.59375 0l0 45.81247l-9.28125 0l-18.46875 -29.87497l0 29.87497l-8.59375 0zm45.84375 0l0 -45.81247l9.25 0l0 45.81247l-9.25 0zm59.375 0l-10.0625 0l-4.0 -10.40625l-18.3125 0l-3.78125 10.40625l-9.8125 0l17.84375 -45.81247l9.78125 0l18.34375 45.81247zm-17.03125 -18.12497l-6.3125 -17.0l-6.1875 17.0l12.5 0zm22.1875 18.12497l0 -45.43747l9.25 0l0 37.71872l23.0 0l0 7.71875l-32.25 0z" fill-rule="nonzero"/><path fill="#010000" fill-opacity="0.0" d="m422.58096 465.048l0 0l0 73.59372l0 0l0 -73.59372z" fill-rule="nonzero"/><path fill="#000000" fill-opacity="0.0" d="m120.362206 553.368l0 0l0 73.59375l0 0l0 -73.59375z" fill-rule="nonzero"/></g></svg>