<svg version="1.1" viewBox="0.0 0.0 816.0 1056.0" fill="none" stroke="none" stroke-linecap="square" stroke-miterlimit="10" xmlns:xlink="http://www.w3.org/1999/xlink" xmlns="http://www.w3.org/2000/svg"><clipPath id="g2ae49cd5bed_0_46.0"><path d="m0 0l816.0 0l0 1056.0l-816.0 0l0 -1056.0z" clip-rule="nonzero"/></clipPath><g clip-path="url(#g2ae49cd5bed_0_46.0)"><path fill="#ffffff" d="m0 0l816.0 0l0 1056.0l-816.0 0z" fill-rule="evenodd"/><path fill="#000000" fill-opacity="0.0" d="m51.73491 207.85826l747.1181 0l0 442.48816l-747.1181 0z" fill-rule="evenodd"/><path fill="#000000" fill-opacity="0.0" d="m60.73491 219.48514l0 0l0 55.195312l0 0l0 -55.195312z" fill-rule="nonzero"/><path fill="#000000" fill-opacity="0.0" d="m60.73491 289.78305l0 0l0 84.32019l0 0l0 -84.32019z" fill-rule="nonzero"/><path fill="#000000" fill-opacity="0.0" d="m60.73491 393.6499l0 0l0 84.32019l0 0l0 -84.32019z" fill-rule="nonzero"/><path fill="#000000" fill-opacity="0.0" d="m60.73491 497.51672l0 0l0 84.32019l0 0l0 -84.32019z" fill-rule="nonzero"/><path fill="#000000" fill-opacity="0.0" d="m60.73491 599.1168l0 0l0 36.796875l0 0l0 -36.796875z" fill-rule="nonzero"/><path fill="#000000" fill-opacity="0.0" d="m62.199474 220.0l675.81104 0l0 200.0l-675.81104 0z" fill-rule="evenodd"/><path fill="#ffffff" d="m71.19948 229.0l602.6133 0l0 86.399994l-602.6133 0l0 -86.399994z" fill-rule="nonzero"/><path fill="#000000" fill-opacity="0.0" d="m71.19948 232.9403l602.6133 0l0 82.79297l-602.6133 0l0 -82.79297z" fill-rule="nonzero"/><path fill="#000000" d="m73.80885 281.35437l10.125 -0.984375q0.90625 5.09375 3.703125 7.484375q2.796875 2.390625 7.546875 2.390625q5.015625 0 7.5625 -2.125q2.5625 -2.125 2.5625 -4.984375q0 -1.828125 -1.078125 -3.109375q-1.078125 -1.28125 -3.75 -2.234375q-1.828125 -0.625 -8.328125 -2.25q-8.359375 -2.0625 -11.734375 -5.09375q-4.75 -4.25 -4.75 -10.375q0 -3.9375 2.234375 -7.359375q2.234375 -3.421875 6.421875 -5.21875q4.203125 -1.796875 10.15625 -1.796875q9.703125 0 14.59375 4.265625q4.90625 4.25 5.15625 11.34375l-10.40625 0.453125q-0.671875 -3.96875 -2.875 -5.703125q-2.1875 -1.75 -6.578125 -1.75q-4.53125 0 -7.109375 1.875q-1.640625 1.1875 -1.640625 3.1875q0 1.828125 1.546875 3.140625q1.96875 1.640625 9.5625 3.4375q7.59375 1.796875 11.21875 3.71875q3.640625 1.90625 5.703125 5.234375q2.0625 3.3125 2.0625 8.203125q0 4.4375 -2.46875 8.3125q-2.453125 3.859375 -6.953125 5.75q-4.5 1.875 -11.21875 1.875q-9.78125 0 -15.015625 -4.515625q-5.234375 -4.53125 -6.25 -13.171875zm62.257812 16.765625l0 -42.828125l-15.296875 0l0 -8.71875l40.953125 0l0 8.71875l-15.25 0l0 42.828125l-10.40625 0zm73.51172 0l-11.328125 0l-4.5 -11.703125l-20.59375 0l-4.25 11.703125l-11.046875 0l20.078125 -51.546875l11.0 0l20.640625 51.546875zm-19.15625 -20.390625l-7.109375 -19.125l-6.953125 19.125l14.0625 0zm24.714844 20.390625l0 -51.546875l21.890625 0q8.265625 0 12.0 1.390625q3.75 1.390625 6.0 4.953125q2.2499847 3.546875 2.2499847 8.109375q0 5.796875 -3.4062347 9.578125q-3.40625 3.78125 -10.1875 4.765625q3.375 1.96875 5.5625 4.328125q2.203125 2.359375 5.921875 8.359375l6.2968597 10.0625l-12.437485 0l-7.53125 -11.21875q-4.0 -6.015625 -5.484375 -7.578125q-1.46875 -1.5625 -3.125 -2.140625q-1.65625 -0.578125 -5.234375 -0.578125l-2.109375 0l0 21.515625l-10.40625 0zm10.40625 -29.75l7.6875 0q7.5 0 9.359375 -0.625q1.859375 -0.640625 2.90625 -2.1875q1.0625 -1.546875 1.0625 -3.859375q0 -2.609375 -1.390625 -4.203125q-1.390625 -1.59375 -3.921875 -2.015625q-1.265625 -0.1875 -7.59375 -0.1875l-8.109375 0l0 13.078125zm53.15233 29.75l0 -42.828125l-15.296875 0l0 -8.71875l40.953125 0l0 8.71875l-15.25 0l0 42.828125l-10.40625 0zm63.984375 0l0 -42.828125l-15.296875 0l0 -8.71875l40.953125 0l0 8.71875l-15.25 0l0 42.828125l-10.40625 0zm32.41797 0l0 -51.546875l21.890625 0q8.265625 0 12.0 1.390625q3.75 1.390625 6.0 4.953125q2.25 3.546875 2.25 8.109375q0 5.796875 -3.40625 9.578125q-3.40625 3.78125 -10.1875 4.765625q3.375 1.96875 5.5625 4.328125q2.203125 2.359375 5.921875 8.359375l6.296875 10.0625l-12.4375 0l-7.53125 -11.21875q-4.0 -6.015625 -5.484375 -7.578125q-1.46875 -1.5625 -3.125 -2.140625q-1.65625 -0.578125 -5.234375 -0.578125l-2.109375 0l0 21.515625l-10.40625 0zm10.40625 -29.75l7.6875 0q7.5 0 9.359375 -0.625q1.859375 -0.640625 2.90625 -2.1875q1.0625 -1.546875 1.0625 -3.859375q0 -2.609375 -1.390625 -4.203125q-1.390625 -1.59375 -3.921875 -2.015625q-1.265625 -0.1875 -7.59375 -0.1875l-8.109375 0l0 13.078125zm88.02734 29.75l-11.328125 0l-4.5 -11.703125l-20.59375 0l-4.25 11.703125l-11.046875 0l20.078125 -51.546875l11.0 0l20.640625 51.546875zm-19.15625 -20.390625l-7.109375 -19.125l-6.953125 19.125l14.0625 0zm24.355469 20.390625l0 -51.546875l10.40625 0l0 51.546875l-10.40625 0zm20.425781 0l0 -51.546875l10.125 0l21.09375 34.421875l0 -34.421875l9.671875 0l0 51.546875l-10.4375 0l-20.78125 -33.609375l0 33.609375l-9.671875 0zm51.57422 0l0 -51.546875l10.40625 0l0 51.546875l-10.40625 0zm20.425781 0l0 -51.546875l10.125 0l21.09375 34.421875l0 -34.421875l9.671875 0l0 51.546875l-10.4375 0l-20.78125 -33.609375l0 33.609375l-9.671875 0zm75.87109 -18.953125l0 -8.6875l22.421875 0l0 20.53125q-3.265625 3.171875 -9.46875 5.578125q-6.203125 2.40625 -12.5625 2.40625q-8.09375 0 -14.109375 -3.390625q-6.0 -3.390625 -9.03125 -9.703125q-3.015625 -6.3125 -3.015625 -13.734375q0 -8.046875 3.375 -14.296875q3.375 -6.265625 9.875 -9.609375q4.953125 -2.5625 12.34375 -2.5625q9.59375 0 14.984375 4.03125q5.40625 4.015625 6.953125 11.125l-10.34375 1.9375q-1.09375 -3.796875 -4.09375 -6.0q-3.0 -2.203125 -7.5 -2.203125q-6.828125 0 -10.859375 4.328125q-4.015625 4.328125 -4.015625 12.828125q0 9.1875 4.078125 13.78125q4.078125 4.578125 10.6875 4.578125q3.265625 0 6.546875 -1.28125q3.296875 -1.28125 5.65625 -3.109375l0 -6.546875l-11.921875 0z" fill-rule="nonzero"/><path fill="#010000" fill-opacity="0.0" d="m673.81274 228.1169l0 0l0 88.919785l0 0l0 -88.919785z" fill-rule="nonzero"/><path fill="#ffffff" d="m71.19948 331.02682l623.375 0l0 76.79999l-623.375 0l0 -76.79999z" fill-rule="nonzero"/><path fill="#000000" fill-opacity="0.0" d="m71.19948 334.52933l623.375 0l0 73.59375l-623.375 0l0 -73.59375z" fill-rule="nonzero"/><path fill="#888888" d="m86.16823 392.46683l0 -38.0625l-13.59375 0l0 -7.75l36.40625 0l0 7.75l-13.5625 0l0 38.0625l-9.25 0zm25.75 -22.625q0 -7.0 2.09375 -11.75q1.5625 -3.5 4.265625 -6.28125q2.703125 -2.78125 5.921875 -4.125q4.28125 -1.8125 9.875 -1.8125q10.125 0 16.203125 6.28125q6.078125 6.28125 6.078125 17.46875q0 11.09375 -6.03125 17.359375q-6.03125 6.265625 -16.125 6.265625q-10.21875 0 -16.25 -6.234375q-6.03125 -6.234375 -6.03125 -17.171875zm9.53125 -0.3125q0 7.78125 3.59375 11.796875q3.59375 4.015625 9.125 4.015625q5.53125 0 9.078125 -3.984375q3.546875 -3.984375 3.546875 -11.953125q0 -7.875 -3.453125 -11.75q-3.453125 -3.875 -9.171875 -3.875q-5.71875 0 -9.21875 3.921875q-3.5 3.921875 -3.5 11.828125zm70.21875 22.9375l0 -38.0625l-13.59375 0l0 -7.75l36.40625 0l0 7.75l-13.5625 0l0 38.0625l-9.25 0zm28.8125 0l0 -45.8125l9.25 0l0 18.03125l18.125 0l0 -18.03125l9.249985 0l0 45.8125l-9.249985 0l0 -20.03125l-18.125 0l0 20.03125l-9.25 0zm45.906235 0l0 -45.8125l9.25 0l0 45.8125l-9.25 0zm18.15625 0l0 -45.8125l9.0 0l18.75 30.59375l0 -30.59375l8.59375 0l0 45.8125l-9.28125 0l-18.46875 -29.875l0 29.875l-8.59375 0zm46.25 0l0 -45.8125l9.25 0l0 20.34375l18.6875 -20.34375l12.4375 0l-17.25 17.84375l18.1875 27.96875l-11.96875 0l-12.59375 -21.5l-7.5 7.65625l0 13.84375l-9.25 0zm102.8125 0l-10.0625 0l-4.0 -10.40625l-18.3125 0l-3.78125 10.40625l-9.8125 0l17.84375 -45.8125l9.78125 0l18.34375 45.8125zm-17.03125 -18.125l-6.3125 -17.0l-6.1875 17.0l12.5 0zm21.96875 -27.6875l18.3125 0q5.4375 0 8.109375 0.453125q2.671875 0.453125 4.78125 1.890625q2.109375 1.4375 3.515625 3.828125q1.40625 2.390625 1.40625 5.359375q0 3.21875 -1.734375 5.90625q-1.734375 2.6875 -4.703125 4.03125q4.1875 1.21875 6.4375 4.15625q2.25 2.9375 2.25 6.90625q0 3.125 -1.453125 6.078125q-1.453125 2.953125 -3.96875 4.71875q-2.515625 1.765625 -6.203125 2.171875q-2.3125 0.25 -11.15625 0.3125l-15.59375 0l0 -45.8125zm9.25 7.625l0 10.59375l6.0625 0q5.40625 0 6.71875 -0.15625q2.375 -0.28125 3.734375 -1.640625q1.359375 -1.359375 1.359375 -3.578125q0 -2.125 -1.171875 -3.453125q-1.171875 -1.328125 -3.484375 -1.609375q-1.375 -0.15625 -7.90625 -0.15625l-5.3125 0zm0 18.21875l0 12.25l8.5625 0q5.0 0 6.34375 -0.28125q2.0625 -0.375 3.359375 -1.828125q1.296875 -1.453125 1.296875 -3.890625q0 -2.0625 -1.0 -3.5q-1.0 -1.4375 -2.890625 -2.09375q-1.890625 -0.65625 -8.203125 -0.65625l-7.46875 0zm35.0625 -2.65625q0 -7.0 2.09375 -11.75q1.5625 -3.5 4.265625 -6.28125q2.703125 -2.78125 5.921875 -4.125q4.28125 -1.8125 9.875 -1.8125q10.125 0 16.203125 6.28125q6.078125 6.28125 6.078125 17.46875q0 11.09375 -6.03125 17.359375q-6.03125 6.265625 -16.125 6.265625q-10.21875 0 -16.25 -6.234375q-6.03125 -6.234375 -6.03125 -17.171875zm9.53125 -0.3125q0 7.78125 3.59375 11.796875q3.59375 4.015625 9.125 4.015625q5.53125 0 9.078125 -3.984375q3.546875 -3.984375 3.546875 -11.953125q0 -7.875 -3.453125 -11.75q-3.453125 -3.875 -9.171875 -3.875q-5.71875 0 -9.21875 3.921875q-3.5 3.921875 -3.5 11.828125zm42.0625 -22.875l9.25 0l0 24.8125q0 5.90625 0.34375 7.65625q0.59375 2.8125 2.828125 4.515625q2.234375 1.703125 6.109375 1.703125q3.9375 0 5.9375 -1.609375q2.0 -1.609375 2.40625 -3.953125q0.40625 -2.34375 0.40625 -7.78125l0 -25.34375l9.25 0l0 24.0625q0 8.25 -0.75 11.65625q-0.75 3.40625 -2.765625 5.75q-2.015625 2.34375 -5.390625 3.734375q-3.375 1.390625 -8.8125 1.390625q-6.5625 0 -9.953125 -1.515625q-3.390625 -1.515625 -5.359375 -3.9375q-1.96875 -2.421875 -2.59375 -5.078125q-0.90625 -3.9375 -0.90625 -11.625l0 -24.4375zm56.59375 45.8125l0 -38.0625l-13.59375 0l0 -7.75l36.40625 0l0 7.75l-13.5625 0l0 38.0625l-9.25 0zm85.5 0l-10.0625 0l-4.0 -10.40625l-18.3125 0l-3.78125 10.40625l-9.8125 0l17.84375 -45.8125l9.78125 0l18.34375 45.8125zm-17.03125 -18.125l-6.3125 -17.0l-6.1875 17.0l12.5 0zm21.65625 18.125l0 -45.8125l9.25 0l0 45.8125l-9.25 0z" fill-rule="nonzero"/><path fill="#000000" fill-opacity="0.0" d="m694.57446 334.52933l0 0l0 73.59375l0 0l0 -73.59375z" fill-rule="nonzero"/></g></svg>