<svg version="1.1" viewBox="0.0 0.0 816.0 1056.0" fill="none" stroke="none" stroke-linecap="square" stroke-miterlimit="10" xmlns:xlink="http://www.w3.org/1999/xlink" xmlns="http://www.w3.org/2000/svg"><clipPath id="g2bed7475345_1_38.0"><path d="m0 0l816.0 0l0 1056.0l-816.0 0l0 -1056.0z" clip-rule="nonzero"/></clipPath><g clip-path="url(#g2bed7475345_1_38.0)"><path fill="#ffffff" d="m0 0l816.0 0l0 1056.0l-816.0 0z" fill-rule="evenodd"/><path fill="#000000" fill-opacity="0.0" d="m160.35695 252.75853l611.4961 0l0 327.37006l-611.4961 0z" fill-rule="evenodd"/><path fill="#ffffff" d="m167.35695 255.75853l401.8125 0l0 76.8l-401.8125 0l0 -76.8z" fill-rule="nonzero"/><path fill="#000000" fill-opacity="0.0" d="m167.35695 259.26105l401.8125 0l0 73.59375l-401.8125 0l0 -73.59375z" fill-rule="nonzero"/><path fill="#000000" d="m172.04445 317.19855l0 -45.8125l19.46875 0q7.34375 0 10.671875 1.234375q3.328125 1.234375 5.328125 4.390625q2.0 3.15625 2.0 7.21875q0 5.15625 -3.03125 8.515625q-3.03125 3.359375 -9.0625 4.234375q3.0 1.75 4.953125 3.84375q1.953125 2.09375 5.265625 7.4375l5.59375 8.9375l-11.0625 0l-6.6875 -9.96875q-3.5625 -5.34375 -4.875 -6.734375q-1.3125 -1.390625 -2.78125 -1.90625q-1.46875 -0.515625 -4.65625 -0.515625l-1.875 0l0 19.125l-9.25 0zm9.25 -26.4375l6.84375 0q6.65625 0 8.3125 -0.5625q1.65625 -0.5625 2.59375 -1.9375q0.9375 -1.375 0.9375 -3.4375q0 -2.3125 -1.234375 -3.734375q-1.234375 -1.421875 -3.484375 -1.796875q-1.125 -0.15625 -6.75 -0.15625l-7.21875 0l0 11.625zm36.65625 26.4375l0 -45.8125l9.25 0l0 45.8125l-9.25 0zm15.71875 -14.90625l9.0 -0.875q0.8125 4.53125 3.296875 6.65625q2.484375 2.125 6.703125 2.125q4.4687653 0 6.7343903 -1.890625q2.265625 -1.890625 2.265625 -4.421875q0 -1.625 -0.953125 -2.765625q-0.953125 -1.140625 -3.328125 -1.984375q-1.6250153 -0.5625 -7.4062653 -2.0q-7.4375 -1.84375 -10.4375 -4.53125q-4.21875 -3.78125 -4.21875 -9.21875q0 -3.5 1.984375 -6.546875q1.984375 -3.046875 5.71875 -4.640625q3.734375 -1.59375 9.015625 -1.59375q8.625015 0 12.98439 3.78125q4.359375 3.78125 4.578125 10.09375l-9.25 0.40625q-0.59375 -3.53125 -2.546875 -5.078125q-1.9531403 -1.546875 -5.8593903 -1.546875q-4.03125 0 -6.3125 1.65625q-1.46875 1.0625 -1.46875 2.84375q0 1.625 1.375 2.78125q1.75 1.46875 8.5 3.0625q6.7500153 1.59375 9.98439 3.296875q3.234375 1.703125 5.0625 4.65625q1.828125 2.953125 1.828125 7.296875q0 3.9375 -2.1875 7.375q-2.1875 3.4375 -6.1875 5.109375q-4.0 1.671875 -9.968765 1.671875q-8.6875 0 -13.34375 -4.015625q-4.65625 -4.015625 -5.5625 -11.703125zm45.031265 14.90625l0 -45.8125l33.96875 0l0 7.75l-24.71875 0l0 10.15625l23.0 0l0 7.71875l-23.0 0l0 12.46875l25.59375 0l0 7.71875l-34.84375 0zm58.59375 -22.625q0 -7.0 2.09375 -11.75q1.5625 -3.5 4.265625 -6.28125q2.703125 -2.78125 5.921875 -4.125q4.28125 -1.8125 9.875 -1.8125q10.125 0 16.203125 6.28125q6.078125 6.28125 6.078125 17.46875q0 11.09375 -6.03125 17.359375q-6.03125 6.265625 -16.125 6.265625q-10.21875 0 -16.25 -6.234375q-6.03125 -6.234375 -6.03125 -17.171875zm9.53125 -0.3125q0 7.78125 3.59375 11.796875q3.59375 4.015625 9.125 4.015625q5.53125 0 9.078125 -3.984375q3.546875 -3.984375 3.546875 -11.953125q0 -7.875 -3.453125 -11.75q-3.453125 -3.875 -9.171875 -3.875q-5.71875 0 -9.21875 3.921875q-3.5 3.921875 -3.5 11.828125zm42.1875 22.9375l0 -45.8125l31.40625 0l0 7.75l-22.15625 0l0 10.84375l19.125 0l0 7.75l-19.125 0l0 19.46875l-9.25 0zm67.125 0l0 -38.0625l-13.59375 0l0 -7.75l36.40625 0l0 7.75l-13.5625 0l0 38.0625l-9.25 0zm28.8125 0l0 -45.8125l9.25 0l0 18.03125l18.12497 0l0 -18.03125l9.25 0l0 45.8125l-9.25 0l0 -20.03125l-18.12497 0l0 20.03125l-9.25 0zm46.18747 0l0 -45.8125l33.96875 0l0 7.75l-24.71875 0l0 10.15625l23.0 0l0 7.71875l-23.0 0l0 12.46875l25.59375 0l0 7.71875l-34.84375 0z" fill-rule="nonzero"/><path fill="#010000" fill-opacity="0.0" d="m569.16943 259.26105l17.78125 0l0 73.59375l-17.78125 0l0 -73.59375z" fill-rule="nonzero"/><path fill="#010000" fill-opacity="0.0" d="m586.9507 259.26105l0 0l0 73.59375l0 0l0 -73.59375z" fill-rule="nonzero"/><path fill="#ffffff" d="m167.35695 344.07852l404.15625 0l0 76.79999l-404.15625 0l0 -76.79999z" fill-rule="nonzero"/><path fill="#000000" fill-opacity="0.0" d="m167.35695 347.58102l404.15625 0l0 73.59375l-404.15625 0l0 -73.59375z" fill-rule="nonzero"/><path fill="#888888" d="m201.3257 388.67477l8.96875 2.84375q-2.0625 7.5 -6.859375 11.140625q-4.796875 3.640625 -12.171875 3.640625q-9.125 0 -15.0 -6.234375q-5.875 -6.234375 -5.875 -17.046875q0 -11.4375 5.90625 -17.765625q5.90625 -6.328125 15.53125 -6.328125q8.40625 0 13.65625 4.96875q3.125 2.9375 4.6875 8.4375l-9.15625 2.1875q-0.8125 -3.5625 -3.390625 -5.625q-2.578125 -2.0625 -6.265625 -2.0625q-5.09375 0 -8.265625 3.65625q-3.171875 3.65625 -3.171875 11.84375q0 8.6875 3.125 12.375q3.125 3.6875 8.125 3.6875q3.6875 0 6.34375 -2.34375q2.65625 -2.34375 3.8125 -7.375zm15.03125 -5.78125q0 -7.0 2.09375 -11.75q1.5625 -3.5 4.265625 -6.28125q2.703125 -2.78125 5.921875 -4.125q4.28125 -1.8125 9.875 -1.8125q10.125 0 16.203125 6.28125q6.0781403 6.28125 6.0781403 17.46875q0 11.09375 -6.0312653 17.359375q-6.03125 6.265625 -16.125 6.265625q-10.21875 0 -16.25 -6.234375q-6.03125 -6.234375 -6.03125 -17.171875zm9.53125 -0.3125q0 7.78125 3.59375 11.796875q3.59375 4.015625 9.125 4.015625q5.53125 0 9.078125 -3.984375q3.546875 -3.984375 3.546875 -11.953125q0 -7.875 -3.453125 -11.75q-3.453125 -3.875 -9.171875 -3.875q-5.71875 0 -9.21875 3.921875q-3.5 3.921875 -3.5 11.828125zm42.156265 22.9375l0 -45.8125l19.46875 0q7.34375 0 10.671875 1.234375q3.328125 1.234375 5.328125 4.390625q2.0 3.15625 2.0 7.21875q0 5.15625 -3.03125 8.515625q-3.03125 3.359375 -9.0625 4.234375q3.0 1.75 4.953125 3.84375q1.953125 2.09375 5.265625 7.4375l5.59375 8.9375l-11.0625 0l-6.6875 -9.96875q-3.5625 -5.34375 -4.875 -6.734375q-1.3125 -1.390625 -2.78125 -1.90625q-1.46875 -0.515625 -4.65625 -0.515625l-1.875 0l0 19.125l-9.25 0zm9.25 -26.4375l6.84375 0q6.65625 0 8.3125 -0.5625q1.65625 -0.5625 2.59375 -1.9375q0.9375 -1.375 0.9375 -3.4375q0 -2.3125 -1.234375 -3.734375q-1.234375 -1.421875 -3.484375 -1.796875q-1.125 -0.15625 -6.75 -0.15625l-7.21875 0l0 11.625zm36.9375 26.4375l0 -45.8125l14.84375 0q8.4375 0 11.0 0.6875q3.9375 1.03125 6.59375 4.484375q2.65625 3.453125 2.65625 8.921875q0 4.21875 -1.53125 7.09375q-1.53125 2.875 -3.890625 4.515625q-2.359375 1.640625 -4.796875 2.171875q-3.3125 0.65625 -9.59375 0.65625l-6.03125 0l0 17.28125l-9.25 0zm9.25 -38.0625l0 13.0l5.0625 0q5.46875 0 7.3125 -0.71875q1.84375 -0.71875 2.890625 -2.25q1.046875 -1.53125 1.046875 -3.5625q0 -2.5 -1.46875 -4.125q-1.46875 -1.625 -3.71875 -2.03125q-1.65625 -0.3125 -6.65625 -0.3125l-4.46875 0zm31.5625 15.4375q0 -7.0 2.09375 -11.75q1.5625 -3.5 4.265625 -6.28125q2.703125 -2.78125 5.921875 -4.125q4.28125 -1.8125 9.875 -1.8125q10.125 0 16.203125 6.28125q6.078125 6.28125 6.078125 17.46875q0 11.09375 -6.03125 17.359375q-6.03125 6.265625 -16.125 6.265625q-10.21875 0 -16.25 -6.234375q-6.03125 -6.234375 -6.03125 -17.171875zm9.53125 -0.3125q0 7.78125 3.59375 11.796875q3.59375 4.015625 9.125 4.015625q5.53125 0 9.078125 -3.984375q3.546875 -3.984375 3.546875 -11.953125q0 -7.875 -3.453125 -11.75q-3.453125 -3.875 -9.171875 -3.875q-5.71875 0 -9.21875 3.921875q-3.5 3.921875 -3.5 11.828125zm42.15625 22.9375l0 -45.8125l19.46875 0q7.34375 0 10.671875 1.234375q3.328125 1.234375 5.328125 4.390625q2.0 3.15625 2.0 7.21875q0 5.15625 -3.03125 8.515625q-3.03125 3.359375 -9.0625 4.234375q3.0 1.75 4.953125 3.84375q1.953125 2.09375 5.265625 7.4375l5.59375 8.9375l-11.0625 0l-6.6875 -9.96875q-3.5625 -5.34375 -4.875 -6.734375q-1.3125 -1.390625 -2.78125 -1.90625q-1.46875 -0.515625 -4.65625 -0.515625l-1.875 0l0 19.125l-9.25 0zm9.25 -26.4375l6.84375 0q6.65625 0 8.3125 -0.5625q1.65625 -0.5625 2.59375 -1.9375q0.9375 -1.375 0.9375 -3.4375q0 -2.3125 -1.234375 -3.734375q-1.234375 -1.421875 -3.484375 -1.796875q-1.125 -0.15625 -6.75 -0.15625l-7.21875 0l0 11.625zm78.25 26.4375l-10.0625 0l-4.0 -10.40625l-18.3125 0l-3.78125 10.40625l-9.8125 0l17.84375 -45.8125l9.78125 0l18.34375 45.8125zm-17.03125 -18.125l-6.3125 -17.0l-6.1875 17.0l12.5 0zm27.5 18.125l0 -38.0625l-13.59375 0l0 -7.75l36.40622 0l0 7.75l-13.5625 0l0 38.0625l-9.2499695 0zm28.78122 0l0 -45.8125l33.96875 0l0 7.75l-24.71875 0l0 10.15625l23.0 0l0 7.71875l-23.0 0l0 12.46875l25.59375 0l0 7.71875l-34.84375 0z" fill-rule="nonzero"/><path fill="#000000" fill-opacity="0.0" d="m571.5132 347.58102l17.78125 0l0 73.59375l-17.78125 0l0 -73.59375z" fill-rule="nonzero"/><path fill="#000000" fill-opacity="0.0" d="m589.29443 347.58102l0 0l0 73.59375l0 0l0 -73.59375z" fill-rule="nonzero"/><path fill="#ffffff" d="m167.35695 432.39853l283.25 0l0 76.79999l-283.25 0l0 -76.79999z" fill-rule="nonzero"/><path fill="#000000" fill-opacity="0.0" d="m167.35695 435.90103l283.25 0l0 73.59375l-283.25 0l0 -73.59375z" fill-rule="nonzero"/><path fill="#888888" d="m172.10695 493.83853l0 -45.8125l9.0 0l18.75 30.59375l0 -30.59375l8.59375 0l0 45.8125l-9.28125 0l-18.46875 -29.875l0 29.875l-8.59375 0zm87.437515 0l-10.062515 0l-4.0 -10.40625l-18.3125 0l-3.78125 10.40625l-9.8125 0l17.84375 -45.8125l9.78125 0l18.343765 45.8125zm-17.031265 -18.125l-6.3125 -17.0l-6.1875 17.0l12.5 0zm27.500015 18.125l0 -38.0625l-13.59375 0l0 -7.75l36.40625 0l0 7.75l-13.5625 0l0 38.0625l-9.25 0zm28.5 0l0 -45.8125l9.25 0l0 45.8125l-9.25 0zm16.1875 -22.625q0 -7.0 2.09375 -11.75q1.5625 -3.5 4.265625 -6.28125q2.703125 -2.78125 5.921875 -4.125q4.28125 -1.8125 9.875 -1.8125q10.125 0 16.203125 6.28125q6.078125 6.28125 6.078125 17.46875q0 11.09375 -6.03125 17.359375q-6.03125 6.265625 -16.125 6.265625q-10.21875 0 -16.25 -6.234375q-6.03125 -6.234375 -6.03125 -17.171875zm9.53125 -0.3125q0 7.78125 3.59375 11.796875q3.59375 4.015625 9.125 4.015625q5.53125 0 9.078125 -3.984375q3.546875 -3.984375 3.546875 -11.953125q0 -7.875 -3.453125 -11.75q-3.453125 -3.875 -9.171875 -3.875q-5.71875 0 -9.21875 3.921875q-3.5 3.921875 -3.5 11.828125zm42.21875 22.9375l0 -45.8125l9.0 0l18.75 30.59375l0 -30.59375l8.59375 0l0 45.8125l-9.28125 0l-18.46875 -29.875l0 29.875l-8.59375 0zm43.78125 -14.90625l9.0 -0.875q0.8125 4.53125 3.296875 6.65625q2.484375 2.125 6.703125 2.125q4.46875 0 6.734375 -1.890625q2.265625 -1.890625 2.265625 -4.421875q0 -1.625 -0.953125 -2.765625q-0.953125 -1.140625 -3.328125 -1.984375q-1.625 -0.5625 -7.40625 -2.0q-7.4375 -1.84375 -10.4375 -4.53125q-4.21875 -3.78125 -4.21875 -9.21875q0 -3.5 1.984375 -6.546875q1.984375 -3.046875 5.71875 -4.640625q3.734375 -1.59375 9.015625 -1.59375q8.625 0 12.984375 3.78125q4.359375 3.78125 4.578125 10.09375l-9.25 0.40625q-0.59375 -3.53125 -2.546875 -5.078125q-1.953125 -1.546875 -5.859375 -1.546875q-4.03125 0 -6.3125 1.65625q-1.46875 1.0625 -1.46875 2.84375q0 1.625 1.375 2.78125q1.75 1.46875 8.5 3.0625q6.75 1.59375 9.984375 3.296875q3.234375 1.703125 5.0625 4.65625q1.828125 2.953125 1.828125 7.296875q0 3.9375 -2.1875 7.375q-2.1875 3.4375 -6.1875 5.109375q-4.0 1.671875 -9.96875 1.671875q-8.6875 0 -13.34375 -4.015625q-4.65625 -4.015625 -5.5625 -11.703125z" fill-rule="nonzero"/><path fill="#010000" fill-opacity="0.0" d="m450.60696 435.90103l35.5625 0l0 73.59375l-35.5625 0l0 -73.59375z" fill-rule="nonzero"/></g></svg>