<svg version="1.1" viewBox="0.0 0.0 816.0 1056.0" fill="none" stroke="none" stroke-linecap="square" stroke-miterlimit="10" xmlns:xlink="http://www.w3.org/1999/xlink" xmlns="http://www.w3.org/2000/svg"><clipPath id="g2af0d8d5eaf_0_11.0"><path d="m0 0l816.0 0l0 1056.0l-816.0 0l0 -1056.0z" clip-rule="nonzero"/></clipPath><g clip-path="url(#g2af0d8d5eaf_0_11.0)"><path fill="#ffffff" d="m0 0l816.0 0l0 1056.0l-816.0 0z" fill-rule="evenodd"/><path fill="#000000" fill-opacity="0.0" d="m68.01575 312.0l579.2756 0l0 379.74805l-579.2756 0z" fill-rule="evenodd"/><path fill="#ffffff" d="m75.01575 339.0l551.9531 0l0 86.399994l-551.9531 0l0 -86.399994z" fill-rule="nonzero"/><path fill="#000000" fill-opacity="0.0" d="m75.01575 342.9403l551.9531 0l0 82.79297l-551.9531 0l0 -82.79297z" fill-rule="nonzero"/><path fill="#222222" d="m79.93762 408.12l0 -51.546875l10.40625 0l0 51.546875l-10.40625 0zm20.425781 0l0 -51.546875l10.125 0l21.09375 34.421875l0 -34.421875l9.671875 0l0 51.546875l-10.4375 0l-20.78125 -33.609375l0 33.609375l-9.671875 0zm63.496094 0l0 -42.828125l-15.296875 0l0 -8.71875l40.953125 0l0 8.71875l-15.25 0l0 42.828125l-10.40625 0zm32.41797 0l0 -51.546875l21.890625 0q8.265625 0 12.0 1.390625q3.75 1.390625 6.0 4.953125q2.25 3.546875 2.25 8.109375q0 5.796875 -3.40625 9.578125q-3.40625 3.78125 -10.1875 4.765625q3.375 1.96875 5.5625 4.328125q2.203125 2.359375 5.921875 8.359375l6.296875 10.0625l-12.4375 0l-7.53125 -11.21875q-4.0 -6.015625 -5.484375 -7.578125q-1.46875 -1.5625 -3.125 -2.140625q-1.65625 -0.578125 -5.234375 -0.578125l-2.109375 0l0 21.515625l-10.40625 0zm10.40625 -29.75l7.6875 0q7.5 0 9.359375 -0.625q1.859375 -0.640625 2.90625 -2.1875q1.0625 -1.546875 1.0625 -3.859375q0 -2.609375 -1.390625 -4.203125q-1.390625 -1.59375 -3.921875 -2.015625q-1.265625 -0.1875 -7.59375 -0.1875l-8.109375 0l0 13.078125zm39.433594 4.296875q0 -7.875 2.359375 -13.21875q1.765625 -3.9375 4.796875 -7.0625q3.046875 -3.140625 6.671875 -4.640625q4.8125 -2.046875 11.109375 -2.046875q11.390625 0 18.21875 7.078125q6.84375 7.0625 6.84375 19.640625q0 12.484375 -6.796875 19.53125q-6.78125 7.046875 -18.125 7.046875q-11.5 0 -18.296875 -7.015625q-6.78125 -7.015625 -6.78125 -19.3125zm10.734375 -0.359375q0 8.765625 4.03125 13.28125q4.046875 4.515625 10.265625 4.515625q6.234375 0 10.21875 -4.484375q3.984375 -4.484375 3.984375 -13.453125q0 -8.859375 -3.890625 -13.21875q-3.875 -4.359375 -10.3125 -4.359375q-6.421875 0 -10.359375 4.421875q-3.9375 4.40625 -3.9375 13.296875zm47.347656 -25.734375l19.015625 0q6.4375 0 9.8125 0.984375q4.53125 1.34375 7.765625 4.75q3.234375 3.40625 4.921875 8.359375q1.6875 4.9375 1.6875 12.171875q0 6.359375 -1.578125 10.96875q-1.9375 5.625 -5.515625 9.109375q-2.703125 2.640625 -7.3125 4.109375q-3.453125 1.09375 -9.21875 1.09375l-19.578125 0l0 -51.546875zm10.40625 8.71875l0 34.140625l7.765625 0q4.359375 0 6.296875 -0.484375q2.53125 -0.640625 4.203125 -2.140625q1.671875 -1.515625 2.71875 -4.984375q1.0625 -3.46875 1.0625 -9.4375q0 -5.984375 -1.0625 -9.171875q-1.046875 -3.203125 -2.953125 -5.0q-1.890625 -1.796875 -4.8125 -2.421875q-2.171875 -0.5 -8.546875 -0.5l-4.671875 0zm41.558594 -8.71875l10.40625 0l0 27.921875q0 6.640625 0.390625 8.609375q0.65625 3.171875 3.171875 5.09375q2.515625 1.90625 6.875 1.90625q4.4375 0 6.6875 -1.8125q2.25 -1.8125 2.703125 -4.4375q0.453125 -2.640625 0.453125 -8.765625l0 -28.515625l10.40625 0l0 27.078125q0 9.28125 -0.84375 13.109375q-0.84375 3.828125 -3.109375 6.46875q-2.265625 2.640625 -6.0625 4.203125q-3.796875 1.5625 -9.921875 1.5625q-7.375 0 -11.1875 -1.703125q-3.8125 -1.703125 -6.03125 -4.421875q-2.21875 -2.734375 -2.921875 -5.71875q-1.015625 -4.4375 -1.015625 -13.078125l0 -27.5zm85.04297 32.59375l10.09375 3.203125q-2.328125 8.4375 -7.734375 12.53125q-5.390625 4.09375 -13.6875 4.09375q-10.265625 0 -16.875 -7.015625q-6.609375 -7.015625 -6.609375 -19.171875q0 -12.875 6.640625 -19.984375q6.65625 -7.125 17.484375 -7.125q9.453125 0 15.359375 5.59375q3.515625 3.296875 5.28125 9.484375l-10.3125 2.46875q-0.90625 -4.015625 -3.8125 -6.328125q-2.890625 -2.328125 -7.046875 -2.328125q-5.734375 0 -9.296875 4.125q-3.5625 4.109375 -3.5625 13.3125q0 9.78125 3.515625 13.9375q3.515625 4.140625 9.140625 4.140625q4.140625 0 7.125 -2.640625q3.0 -2.640625 4.296875 -8.296875zm30.621094 18.953125l0 -42.828125l-15.296875 0l0 -8.71875l40.953125 0l0 8.71875l-15.25 0l0 42.828125l-10.40625 0zm32.058594 0l0 -51.546875l10.40625 0l0 51.546875l-10.40625 0zm18.207031 -25.453125q0 -7.875 2.359375 -13.21875q1.765625 -3.9375 4.796875 -7.0625q3.046875 -3.140625 6.671875 -4.640625q4.8125 -2.046875 11.109375 -2.046875q11.390625 0 18.21875 7.078125q6.84375 7.0625 6.84375 19.640625q0 12.484375 -6.796875 19.53125q-6.78125 7.046875 -18.125 7.046875q-11.5 0 -18.296875 -7.015625q-6.78125 -7.015625 -6.78125 -19.3125zm10.734375 -0.359375q0 8.765625 4.03125 13.28125q4.046875 4.515625 10.265625 4.515625q6.234375 0 10.21875 -4.484375q3.984375 -4.484375 3.984375 -13.453125q0 -8.859375 -3.890625 -13.21875q-3.875 -4.359375 -10.3125 -4.359375q-6.421875 0 -10.359375 4.421875q-3.9375 4.40625 -3.9375 13.296875zm47.48828 25.8125l0 -51.546875l10.125 0l21.09375 34.421875l0 -34.421875l9.671875 0l0 51.546875l-10.4375 0l-20.78125 -33.609375l0 33.609375l-9.671875 0z" fill-rule="nonzero"/><path fill="#000000" fill-opacity="0.0" d="m626.9689 342.9403l0 0l0 82.79297l0 0l0 -82.79297z" fill-rule="nonzero"/><path fill="#ffffff" d="m75.01575 438.36l352.0 0l0 76.79999l-352.0 0l0 -76.79999z" fill-rule="nonzero"/><path fill="#000000" fill-opacity="0.0" d="m75.01575 441.8625l352.0 0l0 73.59375l-352.0 0l0 -73.59375z" fill-rule="nonzero"/><path fill="#888888" d="m91.70325 499.8l0 -19.28125l-16.78125 -26.53125l10.84375 0l10.78125 18.125l10.5625 -18.125l10.65625 0l-16.84375 26.59375l0 19.21875l-9.21875 0zm28.78125 -22.625q0 -7.0 2.09375 -11.75q1.5625 -3.5 4.265625 -6.28125q2.703125 -2.78125 5.921875 -4.125q4.28125 -1.8125 9.875 -1.8125q10.125 0 16.203125 6.28125q6.078125 6.28125 6.078125 17.46875q0 11.09375 -6.03125 17.359375q-6.03125 6.265625 -16.125 6.265625q-10.21875 0 -16.25 -6.234375q-6.03125 -6.234375 -6.03125 -17.171875zm9.53125 -0.3125q0 7.78125 3.59375 11.796875q3.59375 4.015625 9.125 4.015625q5.53125 0 9.078125 -3.984375q3.546875 -3.984375 3.546875 -11.953125q0 -7.875 -3.453125 -11.75q-3.453125 -3.875 -9.171875 -3.875q-5.71875 0 -9.21875 3.921875q-3.5 3.921875 -3.5 11.828125zm42.0625 -22.875l9.25 0l0 24.8125q0 5.90625 0.34375 7.65625q0.59375 2.8125 2.828125 4.515625q2.234375 1.703125 6.109375 1.703125q3.9375 0 5.9375 -1.609375q2.0 -1.609375 2.40625 -3.953125q0.40625 -2.34375 0.40625 -7.78125l0 -25.34375l9.25 0l0 24.0625q0 8.25 -0.75 11.65625q-0.75 3.40625 -2.765625 5.75q-2.015625 2.34375 -5.390625 3.734375q-3.375 1.390625 -8.8125 1.390625q-6.5625 0 -9.953125 -1.515625q-3.390625 -1.515625 -5.359375 -3.9375q-1.96875 -2.421875 -2.59375 -5.078125q-0.90625 -3.9375 -0.90625 -11.625l0 -24.4375zm74.375 45.8125l0 -38.0625l-13.59375 0l0 -7.75l36.40625 0l0 7.75l-13.5625 0l0 38.0625l-9.25 0zm28.8125 0l0 -45.8125l9.25 0l0 18.03125l18.125 0l0 -18.03125l9.25 0l0 45.8125l-9.25 0l0 -20.03125l-18.125 0l0 20.03125l-9.25 0zm45.90625 0l0 -45.8125l9.25 0l0 45.8125l-9.25 0zm18.15625 0l0 -45.8125l9.0 0l18.75 30.59375l0 -30.59375l8.59375 0l0 45.8125l-9.28125 0l-18.46875 -29.875l0 29.875l-8.59375 0zm46.25 0l0 -45.8125l9.25 0l0 20.34375l18.6875 -20.34375l12.4375 0l-17.25 17.84375l18.1875 27.96875l-11.96875 0l-12.59375 -21.5l-7.5 7.65625l0 13.84375l-9.25 0z" fill-rule="nonzero"/><path fill="#000000" fill-opacity="0.0" d="m427.01575 441.8625l17.78125 0l0 73.59375l-17.78125 0l0 -73.59375z" fill-rule="nonzero"/><path fill="#000000" fill-opacity="0.0" d="m444.797 441.8625l0 0l0 73.59375l0 0l0 -73.59375z" fill-rule="nonzero"/><path fill="#ffffff" d="m75.01575 526.68l539.28125 0l0 76.79999l-539.28125 0l0 -76.79999z" fill-rule="nonzero"/><path fill="#000000" fill-opacity="0.0" d="m75.01575 530.1825l539.28125 0l0 73.59375l-539.28125 0l0 -73.59375z" fill-rule="nonzero"/><path fill="#888888" d="m91.70325 588.12l0 -19.28125l-16.78125 -26.53125l10.84375 0l10.78125 18.125l10.5625 -18.125l10.65625 0l-16.84375 26.59375l0 19.21875l-9.21875 0zm28.78125 -22.625q0 -7.0 2.09375 -11.75q1.5625 -3.5 4.265625 -6.28125q2.703125 -2.78125 5.921875 -4.125q4.28125 -1.8125 9.875 -1.8125q10.125 0 16.203125 6.28125q6.078125 6.28125 6.078125 17.46875q0 11.09375 -6.03125 17.359375q-6.03125 6.265625 -16.125 6.265625q-10.21875 0 -16.25 -6.234375q-6.03125 -6.234375 -6.03125 -17.171875zm9.53125 -0.3125q0 7.78125 3.59375 11.796875q3.59375 4.015625 9.125 4.015625q5.53125 0 9.078125 -3.984375q3.546875 -3.984375 3.546875 -11.953125q0 -7.875 -3.453125 -11.75q-3.453125 -3.875 -9.171875 -3.875q-5.71875 0 -9.21875 3.921875q-3.5 3.921875 -3.5 11.828125zm42.0625 -22.875l9.25 0l0 24.8125q0 5.90625 0.34375 7.65625q0.59375 2.8125 2.828125 4.515625q2.234375 1.703125 6.109375 1.703125q3.9375 0 5.9375 -1.609375q2.0 -1.609375 2.40625 -3.953125q0.40625 -2.34375 0.40625 -7.78125l0 -25.34375l9.25 0l0 24.0625q0 8.25 -0.75 11.65625q-0.75 3.40625 -2.765625 5.75q-2.015625 2.34375 -5.390625 3.734375q-3.375 1.390625 -8.8125 1.390625q-6.5625 0 -9.953125 -1.515625q-3.390625 -1.515625 -5.359375 -3.9375q-1.96875 -2.421875 -2.59375 -5.078125q-0.90625 -3.9375 -0.90625 -11.625l0 -24.4375zm64.09375 45.8125l0 -45.8125l9.25 0l0 18.03125l18.125 0l0 -18.03125l9.25 0l0 45.8125l-9.25 0l0 -20.03125l-18.125 0l0 20.03125l-9.25 0zm87.5 0l-10.0625 0l-4.0 -10.40625l-18.3125 0l-3.78125 10.40625l-9.8125 0l17.84375 -45.8125l9.78125 0l18.34375 45.8125zm-17.03125 -18.125l-6.3125 -17.0l-6.1875 17.0l12.5 0zm28.875 18.125l-16.375 -45.8125l10.03125 0l11.59375 33.90625l11.21875 -33.90625l9.8125 0l-16.40625 45.8125l-9.875 0zm31.0 0l0 -45.8125l33.96875 0l0 7.75l-24.71875 0l0 10.15625l23.0 0l0 7.71875l-23.0 0l0 12.46875l25.59375 0l0 7.71875l-34.84375 0zm70.78125 0l0 -38.0625l-13.59375 0l0 -7.75l36.40625 0l0 7.75l-13.5625 0l0 38.0625l-9.25 0zm28.5 0l0 -45.8125l9.25 0l0 45.8125l-9.25 0zm17.9375 0l0 -45.8125l13.84375 0l8.3125 31.25l8.21875 -31.25l13.875 0l0 45.8125l-8.59375 0l0 -36.0625l-9.09375 36.0625l-8.90625 0l-9.0625 -36.0625l0 36.0625l-8.59375 0zm53.4375 0l0 -45.8125l33.96875 0l0 7.75l-24.71875 0l0 10.15625l23.0 0l0 7.71875l-23.0 0l0 12.46875l25.59375 0l0 7.71875l-34.84375 0zm61.5 -11.8125l-7.96875 0q-0.03125 -1.71875 -0.03125 -2.09375q0 -3.875 1.28125 -6.375q1.28125 -2.5 5.125 -5.625q3.84375 -3.125 4.59375 -4.09375q1.15625 -1.53125 1.15625 -3.375q0 -2.5625 -2.046875 -4.390625q-2.046875 -1.828125 -5.515625 -1.828125q-3.34375 0 -5.59375 1.90625q-2.25 1.90625 -3.09375 5.8125l-8.0625 -1.0q0.34375 -5.59375 4.765625 -9.5q4.421875 -3.90625 11.609375 -3.90625q7.5625 0 12.03125 3.953125q4.46875 3.953125 4.46875 9.203125q0 2.90625 -1.640625 5.5q-1.640625 2.59375 -7.015625 7.0625q-2.78125 2.3125 -3.453125 3.71875q-0.671875 1.40625 -0.609375 5.03125zm-7.96875 11.8125l0 -8.78125l8.78125 0l0 8.78125l-8.78125 0z" fill-rule="nonzero"/><path fill="#010000" fill-opacity="0.0" d="m614.297 530.1825l17.78125 0l0 73.59375l-17.78125 0l0 -73.59375z" fill-rule="nonzero"/><path fill="#000000" fill-opacity="0.0" d="m632.07825 530.1825l0 0l0 73.59375l0 0l0 -73.59375z" fill-rule="nonzero"/><path fill="#000000" fill-opacity="0.0" d="m75.01575 616.0945l0 0l0 22.998047l0 0l0 -22.998047z" fill-rule="nonzero"/></g></svg>